<?xml version="1.0" standalone="no"?>
<!DOCTYPE svg PUBLIC "-//W3C//DTD SVG 1.1//EN" "http://www.w3.org/Graphics/SVG/1.1/DTD/svg11.dtd" >
<svg xmlns="http://www.w3.org/2000/svg" xmlns:xlink="http://www.w3.org/1999/xlink" version="1.1">
<metadata>
Created by FontForge 20161116 at Mon Apr 16 10:41:02 2007
 By Jimmy Wärting
Copyright (c) 2005 Parachute :, www.parachute.gr.  All rights reserved.
</metadata>
<defs>
<font id="PFHandbookPro-MediumItalic" horiz-adv-x="1818" >
  <font-face 
    font-family="PF Handbook Pro Medium"
    font-weight="500"
    font-style="italic"
    font-stretch="normal"
    units-per-em="1000"
    panose-1="2 0 5 6 2 0 0 9 0 4"
    ascent="750"
    descent="-250"
    x-height="440"
    cap-height="617"
    bbox="-220.048 -232 1760 913"
    underline-thickness="20"
    underline-position="-133"
    slope="-12"
    unicode-range="U+0020-FB05"
  />
<missing-glyph horiz-adv-x="444" 
d="M0 700h444v-700h-444v700zM352 59l-130 237l-130 -237h260zM352 641h-260l130 -237zM59 117l128 233l-128 233v-466zM385 117v466l-129 -233z" />
    <glyph glyph-name="fj" unicode="fj" horiz-adv-x="461" 
d="M219 451q-1 -10 10 -10h206q7 0 9 -3.5t1 -8.5l-89 -489q-6 -25 -15 -47.5t-25 -39t-40 -26.5t-59 -10q-22 0 -35 2t-24 5q-7 2 -11.5 5.5t0.5 13.5l17 52q6 14 24 10q5 -2 13.5 -2h15.5q26 0 35.5 16.5t13.5 38.5l73 389q2 10 0.5 13t-12.5 3h-113q-12 0 -14 -12
l-66 -339q-3 -12 -15 -12h-68q-14 0 -11 12l66 338q2 13 -9 13h-40q-11 0 -8 13l10 53q1 12 15 12h38q12 0 14 11l12 58q12 63 55.5 99t117.5 36q46 -2 74.5 -10t43.5 -19q6 -5 8 -8.5t-2 -10.5l-25 -51q-6 -8 -12.5 -8t-12.5 3q-15 7 -34 12t-45 5q-34 0 -54 -19t-25 -48z
" />
    <glyph glyph-name="ffj" unicode="ffj" horiz-adv-x="699" 
d="M594 -60q-6 -25 -15.5 -47.5t-25.5 -39.5t-38.5 -27t-53.5 -10q-22 0 -37 2.5t-26 5.5q-7 2 -10.5 5t-0.5 14l15 53q3 8 7.5 10t16.5 0q5 -1 13.5 -2t15.5 -1q26 0 35.5 16.5t13.5 38.5l74 388q1 6 0 10.5t-6 6.5h-120q-8 0 -10.5 -3.5t-3.5 -8.5l-66 -339
q-3 -12 -15 -12h-69q-13 0 -10 12l66 338q2 13 -9 13h-121q-12 0 -14 -12l-66 -339q-3 -12 -15 -12h-68q-14 0 -11 12l66 338q2 13 -9 13h-40q-11 0 -8 13l10 53q1 12 15 12h38q12 0 14 11l8 37q11 60 55.5 100t118.5 40q32 0 58 -6.5t44 -14.5q1 0 1.5 -0.5t2.5 -0.5t4 0.5
t10 5.5q24 16 55.5 26.5t75.5 10.5q42 0 73 -9t46 -20q6 -5 8 -8.5t-2 -10.5l-25 -51q-6 -8 -12.5 -8t-12.5 3q-15 7 -39.5 12t-50.5 5q-31 0 -52 -19t-26 -48l-9 -45q-1 -10 9 -10h208q7 0 9 -3.5t1 -8.5zM350 441q11 0 13 11l13 64q1 10 -2 11q-14 6 -30 10t-39 4
q-33 0 -54 -18t-27 -49l-5 -23q-1 -10 10 -10h121z" />
    <glyph glyph-name="ff" unicode="ff" horiz-adv-x="529" 
d="M306 632q33 0 58 -7t43 -15q1 -1 5 -1q5 0 7 2q24 19 55.5 30t70.5 11q30 0 57 -7t44 -16q6 -5 5.5 -9.5t-2.5 -11.5l-17 -45q-5 -11 -10.5 -11.5t-13.5 1.5q-13 5 -28 8t-35 3q-32 0 -52 -18.5t-25 -44.5l-10 -50q-1 -10 9 -10h80q12 0 11 -13l-11 -53q-2 -12 -15 -12
h-79q-8 0 -10.5 -3.5t-3.5 -8.5l-101 -512q-3 -12 -15 -12h-69q-13 0 -10 12l101 511q2 13 -9 13h-122q-12 0 -14 -12l-86 -435q-3 -12 -15 -12h-68q-14 0 -11 12l86 434q2 13 -9 13h-40q-11 0 -8 13l10 53q1 12 15 12h38q12 0 14 11l9 46q6 28 19.5 52.5t35 42.5t50.5 28.5
t66 10.5zM350 441q11 0 13 11l13 67q3 9 -1 11q-14 6 -31.5 10t-40.5 4q-35 0 -54 -19t-25 -48l-5 -26q-1 -10 10 -10h121z" />
    <glyph glyph-name="fi" unicode="fi" horiz-adv-x="461" 
d="M371 12q-3 -12 -15 -12h-70q-13 0 -11 12l64 335q2 10 0.5 13t-12.5 3h-113q-12 0 -14 -12l-100 -512q-3 -12 -15 -12h-68q-14 0 -11 12l100 511q2 13 -9 13h-40q-11 0 -8 13l10 53q1 12 15 12h38q12 0 14 11l12 58q12 63 55.5 99t117.5 36q46 -2 74.5 -10t43.5 -19
q6 -5 8 -8.5t-2 -10.5l-25 -51q-6 -8 -12.5 -8t-12.5 3q-15 7 -34 12t-45 5q-34 0 -54 -19t-25 -48l-8 -40q-1 -10 10 -10h211q7 0 9 -3.5t1 -8.5z" />
    <glyph glyph-name="fl" unicode="fl" horiz-adv-x="496" 
d="M214 363q-12 0 -14 -12l-100 -512q-3 -12 -15 -12h-68q-14 0 -11 12l100 511q2 13 -9 13h-40q-11 0 -8 13l10 53q1 12 15 12h38q12 0 14 11l14 68q14 59 55 92.5t119 33.5q27 0 51.5 -4.5t44.5 -11.5q3 -1 5 -1.5t5 -0.5h4.5t4.5 1q12 3 25.5 6.5t25.5 3.5q8 0 9 -4.5
t-1 -15.5l-95 -487q-6 -32 1 -42t31 -10h10q14 0 11 -16l-11 -55q-2 -11 -9.5 -13.5t-18.5 -3.5q-6 -1 -12 -0.5t-8 0.5q-34 0 -54.5 10t-30 28.5t-9.5 45.5t7 61l77 396q1 10 -11 15t-26.5 7.5t-33.5 2.5q-33 0 -53 -18.5t-26 -47.5l-8 -41q-1 -10 10 -10h74q10 0 13 -3.5
t1 -14.5l-9 -44q-2 -11 -7.5 -13.5t-12.5 -2.5h-74z" />
    <glyph glyph-name="ffi" unicode="ffi" horiz-adv-x="699" 
d="M452 363q-8 0 -10.5 -3.5t-3.5 -8.5l-99 -512q-3 -12 -15 -12h-69q-13 0 -10 12l99 511q2 13 -9 13h-121q-12 0 -14 -12l-86 -435q-3 -12 -15 -12h-68q-14 0 -11 12l86 434q2 13 -9 13h-40q-11 0 -8 13l10 53q1 12 15 12h38q12 0 14 11l8 37q11 60 55.5 100t118.5 40
q32 0 58 -6.5t44 -14.5q1 0 1.5 -0.5t2.5 -0.5t4 0.5t10 5.5q24 16 55.5 26.5t75.5 10.5q42 0 73 -9t46 -20q6 -5 8 -8.5t-2 -10.5l-25 -51q-6 -8 -12.5 -8t-12.5 3q-15 7 -39.5 12t-50.5 5q-31 0 -52 -19t-26 -48l-9 -45q-1 -10 9 -10h211q7 0 9 -3.5t1 -8.5l-79 -417
q-3 -12 -15 -12h-70q-13 0 -11 12l64 335q2 10 0.5 13t-12.5 3h-112zM350 441q11 0 13 11l13 64q1 10 -2 11q-14 6 -30 10t-39 4q-33 0 -54 -18t-27 -49l-5 -23q-1 -10 10 -10h121z" />
    <glyph glyph-name="ffl" unicode="ffl" horiz-adv-x="713" 
d="M310 630q33 0 58 -7t43 -15q0 -1 4 -1q5 0 8 3q24 18 57.5 29t71.5 11q27 0 52.5 -4t42.5 -11q6 -2 11 -2h2.5t6.5 1l15 3t27 6q2 0 4 0.5t4 0.5q8 0 9.5 -4.5t-0.5 -14.5l-96 -493q-6 -32 1 -42t31 -10h12q8 0 8.5 -5.5t-0.5 -10.5l-11 -55q-3 -14 -16 -15
q-8 -2 -17.5 -2h-13.5q-34 0 -54.5 10t-30 28.5t-9.5 45.5t7 61l77 397q2 11 -1.5 14t-8.5 5q-12 5 -24.5 7.5t-35.5 2.5q-29 0 -51.5 -19t-27.5 -48l-9 -45q-1 -10 10 -10h72q11 0 13.5 -3.5t0.5 -14.5l-9 -44q-2 -11 -7 -13.5t-13 -2.5h-72q-12 0 -14 -12l-101 -512
q-3 -12 -15 -12h-68q-14 0 -11 12l101 511q2 13 -9 13h-120q-12 0 -14 -12l-86 -435q-3 -12 -15 -12h-68q-14 0 -11 12l86 434q2 13 -9 13h-40q-11 0 -8 13l10 53q1 12 15 12h38q12 0 14 11l10 50q6 27 21 50t37 40.5t51 27.5t65 10zM350 441q11 0 13 11l13 66q2 6 1.5 8
t-2.5 4q-14 5 -30.5 9t-39.5 4q-33 0 -54 -17.5t-27 -49.5l-5 -25q-1 -10 10 -10h121z" />
    <glyph glyph-name="ft" unicode="ft" horiz-adv-x="546" 
d="M107 350q2 13 -13 13h-36q-12 0 -9 13l10 53q3 12 16 12h38q11 0 14 11l11 61q5 27 17 50.5t30.5 41t44.5 28t60 10.5q22 0 41 -2.5t30 -5.5q7 -2 11.5 -6t-0.5 -15l-16 -50q-3 -8 -8.5 -9.5t-15.5 0.5q-13 2 -22 3.5t-20 1.5q-28 0 -42 -17.5t-19 -41.5l-9 -50
q-1 -10 10 -10h120q12 0 15 13l15 76q2 13 15 13l71 15q13 0 11 -12l-18 -93q-3 -12 9 -12h86q12 0 11 -12l-10 -53q-1 -13 -15 -13h-86q-13 0 -14 -11l-43 -216q-6 -32 4 -44t37 -12q8 0 25 2t26 4q12 2 16.5 -1t5.5 -11l7 -49q1 -11 -5 -14.5t-14 -5.5t-19.5 -4t-25 -3.5
t-26.5 -2t-22 -0.5q-37 0 -60 9.5t-35 26t-13.5 39.5t3.5 50l46 232q2 11 -10 11h-122q-8 0 -10.5 -3.5t-3.5 -8.5l-101 -512q-3 -12 -15 -12h-68q-14 0 -11 12z" />
    <glyph glyph-name=".notdef" horiz-adv-x="444" 
d="M0 700h444v-700h-444v700zM352 59l-130 237l-130 -237h260zM352 641h-260l130 -237zM59 117l128 233l-128 233v-466zM385 117v466l-129 -233z" />
    <glyph glyph-name="quotedbl" unicode="&#x22;" horiz-adv-x="304" 
d="M294 422q-1 -6 -5.5 -8.5t-8.5 -2.5h-50q-5 0 -8.5 2.5t-2.5 8.5l36 183q3 12 15 12h50q13 0 10 -10zM172 422q-1 -6 -6 -8.5t-9 -2.5h-49q-5 0 -9 2.5t-2 8.5l36 183q1 12 14 12h51q5 0 8.5 -2.5t1.5 -7.5z" />
    <glyph glyph-name="numbersign" unicode="#" horiz-adv-x="486" 
d="M478 377q-2 -5 -5.5 -8t-11.5 -3h-56q-3 0 -6 -1q-7 -2 -8 -7l-44 -106q-3 -7 -2 -10t10 -3h60q13 0 8 -12l-17 -42q-5 -12 -17 -12h-66q-10 0 -13 -7l-48 -115q-3 -9 -13 -9h-46q-11 0 -11.5 4.5t1.5 10.5l43 104q2 6 1 9.5t-9 3.5h-70q-9 0 -12 -8l-50 -115
q-3 -9 -12 -9h-47q-16 0 -11 14q1 2 8 18t15 36q10 23 22 51q2 6 1 9t-9 3h-51q-8 0 -9 3t1 7l17 44q4 12 17 12h56q9 0 13 9l44 106q3 5 2 8.5t-10 3.5h-59q-8 0 -9 3t1 8q1 2 3 7.5t5 12t5.5 13t4.5 10.5q4 11 16 11h67q8 0 12 9l45 111q5 8 14 8h45q11 0 12 -4t-1 -10
l-42 -100q-2 -6 -1 -10t9 -4h70q8 0 12 9l48 111q3 8 13 8h45q11 0 12 -4t-1 -10l-41 -100q-7 -13 7 -13h52q9 0 9 -5t-2 -11zM316 353q2 6 1 9.5t-9 3.5h-68q-11 0 -15 -10l-42 -104q-3 -7 -2 -10t10 -3h68q10 0 13 9z" />
    <glyph glyph-name="dollar" unicode="$" horiz-adv-x="486" 
d="M472 552q11 -10 -3 -24l-32 -37q-7 -7 -13.5 -5.5t-15.5 8.5q-21 16 -48.5 25t-49.5 9q-21 0 -41 -7t-36 -20t-25.5 -30.5t-9.5 -39.5q0 -18 9 -31t22.5 -23t30 -16.5t30.5 -11.5q25 -8 51.5 -19t48.5 -28t36 -42.5t14 -61.5q0 -41 -13.5 -73.5t-38.5 -56t-60.5 -37.5
t-78.5 -18q-11 -3 -13 -11l-11 -55q-2 -12 -14 -12h-36q-11 0 -10 11l11 56q1 5 0 7.5t-8 3.5q-35 4 -65 16.5t-55 37.5q-8 8 3 24l30 38q7 9 13.5 8.5t14.5 -8.5q14 -13 43 -26t60 -13q25 0 48.5 5.5t42 17t29.5 29.5t11 44q0 19 -9.5 33t-24 24.5t-32 17.5t-33.5 13
q-21 7 -45.5 18t-45.5 28t-35 42t-14 60q0 38 14 70t38 56.5t56 39.5t70 18q11 1 14 12l9 49q3 11 14 11h37q12 0 9 -11l-10 -54q-2 -9 11 -10q67 -12 106 -51z" />
    <glyph glyph-name="ampersand" unicode="&#x26;" horiz-adv-x="597" 
d="M300 488q-48 0 -75.5 -25t-35.5 -63l-43 -221q-3 -19 -2.5 -37t9.5 -32.5t28 -23.5t52 -9h16q33 0 54.5 10t35.5 26t21 35.5t11 38.5l18 94q0 2 -1 6t-9 4h-105q-12 0 -10 12l11 55q2 12 15 12h198q29 0 59.5 5.5t65.5 25.5q7 4 11 4q7 0 10 -7l21 -42q1 -4 1 -11
q-1 -7 -10 -12q-32 -23 -72 -31t-72 -10q-9 -2 -14 -5t-7 -13l-16 -92q-7 -41 -24.5 -75.5t-45.5 -59.5t-67.5 -39t-89.5 -14h-15q-52 0 -88 16t-56 43t-26 63t2 77l40 206q15 79 69.5 125.5t143.5 46.5h153q5 0 9.5 -3.5t2.5 -9.5l-11 -57q-3 -13 -16 -13h-146z" />
    <glyph glyph-name="quotesingle" unicode="'" horiz-adv-x="189" 
d="M175 422q-2 -5 -6 -8t-9 -3h-49q-13 0 -12 11l36 183q2 6 6 9t9 3h51q13 0 10 -10z" />
    <glyph glyph-name="parenleft" unicode="(" horiz-adv-x="338" 
d="M381 649q-40 -48 -78 -104t-67.5 -117t-47.5 -125t-18 -129q0 -81 18.5 -151t42.5 -125q10 -20 -8 -30l-33 -19q-24 -13 -34 6q-17 29 -32 64t-27 74.5t-19 83.5t-7 90q0 73 21 144t56 137t80 126t93 112q8 8 14 9t14 -4l31 -18q14 -8 1 -24z" />
    <glyph glyph-name="parenright" unicode=")" horiz-adv-x="324" 
d="M280 357q0 -69 -21 -138t-55 -133.5t-78 -123.5t-90 -107q-18 -20 -36 -6l-27 19q-13 9 4 30q42 50 79 104.5t65 113.5t44.5 122t16.5 129q0 77 -18 148.5t-45 133.5q-6 16 11 24l37 18q10 5 16 4t10 -9q15 -27 30.5 -63.5t28 -79t20.5 -90t8 -96.5z" />
    <glyph glyph-name="asterisk" unicode="*" horiz-adv-x="378" 
d="M406 528q2 -8 -0.5 -14t-13.5 -8l-95 -20q-10 -2 -5 -10l46 -70q11 -16 -5 -25l-36 -21q-10 -6 -16 -6t-10 11l-30 78q-3 9 -12 0l-63 -79q-6 -8 -12 -9.5t-14 5.5l-26 21q-7 5 -7 11.5t10 16.5l73 67q9 7 0 9l-87 22q-16 3 -7 19l19 37q9 19 26 12l79 -37q7 -4 7 4l9 97
q1 7 5 11.5t17 4.5h37q19 0 15 -18l-29 -93q-3 -9 6 -6l92 36q19 7 22 -11l5 -35v0z" />
    <glyph glyph-name="plus" unicode="+" horiz-adv-x="486" 
d="M443 222q-3 -18 -21 -18h-141q-10 0 -11 -7l-27 -140q-3 -16 -20 -16h-40q-17 0 -14 16l27 140q2 7 -7 7h-138q-18 0 -15 17l7 35q3 17 21 17h138q9 0 10 8l27 139q3 17 21 17h39q18 0 15 -17l-27 -137q-3 -10 7 -10h142q17 0 14 -17z" />
    <glyph glyph-name="comma" unicode="," horiz-adv-x="221" 
d="M61 -97q-5 -11 -12 -14.5t-15 -3.5h-29q-11 0 -12 8t1 17l45 176q3 11 10 17.5t18 6.5h67q16 0 18.5 -7.5t-4.5 -20.5z" />
    <glyph glyph-name="hyphen" unicode="-" horiz-adv-x="332" 
d="M277 210q-3 -12 -14 -12h-202q-13 0 -11 12l10 51q3 12 14 12h202q13 0 11 -11z" />
    <glyph glyph-name="period" unicode="." horiz-adv-x="221" 
d="M92 110q22 0 36 -13.5t14 -34.5q0 -29 -22.5 -49.5t-50.5 -20.5q-22 0 -35.5 13.5t-13.5 33.5q0 28 22 49.5t50 21.5z" />
    <glyph glyph-name="slash" unicode="/" horiz-adv-x="311" 
d="M21 -52q-7 -14 -23 -14h-35q-9 0 -10.5 5t2.5 13l370 709q8 14 28 14h31q8 0 10.5 -4.5t-1.5 -11.5z" />
    <glyph glyph-name="zero" unicode="0" horiz-adv-x="486" 
d="M427 166q-17 -83 -71 -127.5t-137 -44.5q-41 0 -74.5 11t-55.5 32.5t-31 54t-1 74.5l56 288q16 81 71.5 126.5t136.5 45.5q40 0 73.5 -11.5t55.5 -33t31.5 -53.5t1.5 -74zM387 454q8 40 -12 64.5t-60 24.5t-69.5 -25t-37.5 -64l-56 -288q-8 -41 12.5 -65.5t59.5 -24.5
q40 0 69.5 24t37.5 66z" />
    <glyph glyph-name="one" unicode="1" horiz-adv-x="486" 
d="M266 13q-3 -13 -15 -13h-70q-13 0 -11 12l92 472q3 16 -14 8l-74 -38q-12 -7 -19 -5t-5 13l10 54q2 8 5 14.5t12 11.5l118 65q8 5 15 7.5t15 2.5h42q17 0 13 -16z" />
    <glyph glyph-name="two" unicode="2" horiz-adv-x="486" 
d="M465 496q0 -24 -7.5 -47.5t-20.5 -45t-28 -40.5t-30 -34l-227 -233q-12 -13 4 -13l227 -1q12 0 10 -11l-11 -58q-3 -13 -15 -13h-342q-17 0 -14 17l7 37q2 12 5.5 20.5t16.5 22.5l268 273q10 10 21 23t20 27.5t15 29.5t6 29q0 29 -21 46.5t-59 17.5q-29 0 -56.5 -15
t-41.5 -31q-8 -8 -15 -11.5t-14 1.5l-35 31q-13 12 -1 25q40 46 84.5 64.5t95.5 18.5q31 0 60 -8t50.5 -24t34.5 -40.5t13 -57.5z" />
    <glyph glyph-name="three" unicode="3" horiz-adv-x="486" 
d="M197 -6q-25 0 -50.5 4.5t-48.5 15.5t-41 28t-27 43q-2 5 0 10.5t10 10.5l49 27q14 7 21 -8q12 -26 35 -37.5t49 -11.5q54 0 87.5 36.5t33.5 103.5q0 38 -21.5 58.5t-53.5 20.5h-62q-11 0 -11 9v3l11 57q3 12 15 12h63q45 0 75 27.5t30 71.5q0 30 -19.5 49.5t-55.5 19.5
q-28 0 -54.5 -14t-43.5 -34q-6 -7 -13 -11.5t-15 0.5l-28 21q-3 2 -10.5 9t-5.5 12q-3 5 -1 9.5t6 9.5q37 43 81.5 61.5t96.5 18.5q34 0 63 -9.5t50 -26.5t33 -42t12 -56q0 -24 -8 -48t-22 -45t-33 -36.5t-41 -22.5q-6 -3 -6 -6q0 -2 3 -3q28 -11 42.5 -38.5t14.5 -65.5
q0 -54 -15.5 -97t-43.5 -73t-66.5 -46.5t-84.5 -16.5z" />
    <glyph glyph-name="four" unicode="4" horiz-adv-x="486" 
d="M319 609q5 8 17 8h69q10 0 11.5 -6t-2.5 -11l-266 -377q-2 -3 -2.5 -7t7.5 -4h114q8 0 11 5t4 10l30 154q2 11 13 11h72q6 0 8.5 -3.5t1.5 -8.5l-30 -152q-2 -9 -1 -12.5t9 -3.5h55q11 0 9 -11l-11 -57q-3 -12 -14 -12h-52q-6 0 -10.5 -3t-6.5 -12l-19 -106
q-2 -11 -13 -11h-73q-11 0 -9 11l20 107q3 14 -12 14h-210q-7 0 -11.5 3.5t-2.5 14.5l6 31q3 17 7.5 26.5t9.5 17.5z" />
    <glyph glyph-name="five" unicode="5" horiz-adv-x="486" 
d="M464 546q-1 -11 -14 -11h-201q-13 0 -15 -11l-23 -118q-4 -18 18 -9q28 10 50 10q38 0 67.5 -12.5t48 -35t25.5 -54t0 -68.5l-13 -71q-16 -81 -68.5 -126.5t-137.5 -45.5q-61 0 -101 19.5t-63 72.5q-6 11 8 19l54 29q8 5 12 3t6 -7q14 -25 31.5 -39.5t50.5 -14.5
q45 0 74.5 23.5t37.5 62.5l15 75q7 38 -11 62t-61 24q-19 0 -37.5 -6t-29.5 -12q-10 -5 -18.5 -7t-16.5 2l-35 17q-7 4 -11 9.5t-2 15.5l51 262q3 13 15 13h295q12 0 11 -12z" />
    <glyph glyph-name="six" unicode="6" horiz-adv-x="486" 
d="M468 537q8 -14 -8 -22l-54 -30q-8 -5 -12.5 -1.5t-7.5 9.5q-11 21 -30 35.5t-51 14.5q-38 0 -68.5 -24.5t-38.5 -62.5l-15 -77q-2 -8 1.5 -10.5t11.5 2.5q20 14 45 21t45 7q34 0 64 -11t50.5 -31t30 -49.5t3.5 -65.5q-2 -15 -3 -21.5t-2.5 -12.5t-3 -15t-5.5 -30
q-16 -81 -71.5 -125t-136.5 -44q-41 0 -74.5 11t-56.5 32t-33 52.5t-2 72.5l57 293q16 80 70.5 125.5t132.5 45.5q54 0 97.5 -19t64.5 -70zM338 231q8 41 -15.5 63.5t-61.5 22.5q-37 0 -68 -24t-39 -61l-13 -69q-8 -40 14.5 -63.5t60.5 -23.5q39 0 69.5 24t38.5 62z" />
    <glyph glyph-name="seven" unicode="7" horiz-adv-x="486" 
d="M507 568q-2 -8 -6.5 -17.5t-8.5 -15.5q-2 -5 -16.5 -27.5t-37 -57t-50.5 -77.5t-58 -88.5t-59 -90t-54 -81.5t-42.5 -64t-24.5 -37q-7 -12 -18 -12h-76q-7 0 -9.5 4t2.5 11l325 501q5 8 3.5 13.5t-12.5 5.5h-139q-11 0 -14.5 -3t-5.5 -10l-8 -42q-2 -14 -15 -14h-57
q-13 0 -10 13l24 125q3 13 15 13h338q11 0 16.5 -3.5t3.5 -14.5z" />
    <glyph glyph-name="eight" unicode="8" horiz-adv-x="486" 
d="M304 627q34 0 63 -9.5t50 -27t33 -42.5t12 -57q0 -48 -24 -91t-66 -67q-6 -2 -6 -7q0 -4 3 -5q21 -14 35 -43.5t14 -58.5q0 -53 -17.5 -95t-48 -71t-72 -44t-88.5 -15q-35 0 -64.5 9.5t-51 28t-34 45.5t-12.5 62q0 29 7 57.5t21 52.5t34.5 42.5t46.5 29.5q6 3 6 6
q0 2 -3 4q-24 14 -35 42.5t-11 57.5q0 40 16 76t44 62.5t66 42t82 15.5zM368 473q0 31 -17.5 51.5t-55.5 20.5q-23 0 -42.5 -8.5t-34 -23t-22.5 -34t-8 -41.5q0 -29 20.5 -50t52.5 -21q22 0 41.5 8.5t34 23t23 33.5t8.5 41zM243 284q-21 0 -42 -9t-37.5 -25.5t-26.5 -41.5
t-10 -56q0 -38 21 -57t55 -19q22 0 43.5 9t38.5 26t27 41t10 55q0 38 -22.5 57.5t-56.5 19.5z" />
    <glyph glyph-name="nine" unicode="9" horiz-adv-x="486" 
d="M414 165q-14 -80 -62 -125.5t-134 -45.5q-29 0 -55 4t-48.5 14t-40 27.5t-29.5 43.5q-6 13 9 22l52 29q8 5 13.5 1.5t7.5 -8.5q12 -21 30.5 -36t50.5 -15q51 0 75.5 26t31.5 62l18 78q3 17 -12 8q-20 -14 -44 -22t-45 -8q-34 0 -63.5 11.5t-50 34t-29.5 55.5t-1 75l11 61
q14 81 66.5 125t141.5 44q40 0 73.5 -13t55.5 -36.5t31 -56.5t1 -74zM375 457q7 39 -16 63t-61 24t-67.5 -24.5t-36.5 -61.5l-11 -60q-8 -40 10 -67.5t65 -27.5q48 0 72 24t32 61z" />
    <glyph glyph-name="colon" unicode=":" horiz-adv-x="221" 
d="M146 388q22 0 36 -14.5t14 -34.5q0 -14 -6.5 -26.5t-17 -22t-23.5 -15t-26 -5.5q-22 0 -35.5 13.5t-13.5 33.5q0 28 22 49.5t50 21.5zM69 -8q-22 0 -35.5 13.5t-13.5 33.5q0 28 22 49.5t50 21.5q22 0 36 -13.5t14 -34.5q0 -29 -22.5 -49.5t-50.5 -20.5z" />
    <glyph glyph-name="semicolon" unicode=";" horiz-adv-x="221" 
d="M145 387q23 0 37 -14t14 -34q0 -14 -6.5 -26.5t-17 -22t-23.5 -15t-26 -5.5q-22 0 -36 14t-14 34q0 13 6 25.5t16.5 22.5t23 15.5t26.5 5.5zM55 -97q-5 -11 -12 -14.5t-15 -3.5h-29q-11 0 -12.5 8t0.5 17l45 176q2 11 9.5 18t19.5 7h66q16 0 18.5 -8t-4.5 -22z" />
    <glyph glyph-name="less" unicode="&#x3c;" horiz-adv-x="486" 
d="M386 16q-2 -8 -8.5 -12.5t-14.5 0.5l-341 199q-18 11 -15 26l9 44q2 8 6 14.5t16 11.5l422 203q9 5 14.5 0.5t3.5 -11.5l-10 -54q-1 -6 -3.5 -13.5t-14.5 -12.5l-334 -154q-17 -8 -3 -16l274 -154q10 -5 10 -12.5t-2 -13.5l-9 -45v0z" />
    <glyph glyph-name="equal" unicode="=" horiz-adv-x="486" 
d="M460 318q-4 -22 -28 -22h-359q-23 0 -20 21l6 28q3 20 27 20h359q24 0 21 -20zM426 143q-4 -22 -28 -22h-359q-23 0 -20 21l6 28q3 20 27 20h359q24 0 21 -20z" />
    <glyph glyph-name="greater" unicode="&#x3e;" horiz-adv-x="486" 
d="M17 68l4.5 13.5t13.5 12.5l334 154q17 8 3 16l-274 154q-9 5 -9 12.5t1 13.5l10 47q2 7 8 11.5t14 -0.5l344 -203q9 -5 11.5 -11.5t0.5 -14.5l-9 -44q-2 -8 -7 -14t-18 -12l-419 -199q-9 -5 -14 -0.5t-3 12.5z" />
    <glyph glyph-name="question" unicode="?" horiz-adv-x="498" 
d="M490 501q0 -32 -11 -60.5t-29.5 -53.5t-43 -45.5t-51.5 -35.5q-43 -23 -70 -48t-37 -62q-1 -1 -2.5 -9.5t-3.5 -10.5q-4 -11 -13 -11h-66q-10 0 -12.5 3t-0.5 14l6 31q8 38 36.5 76t73.5 64q18 10 39.5 22.5t40 28.5t31.5 35.5t13 44.5q0 26 -18 44t-53 18t-57 -15.5
t-36 -31.5q-7 -8 -16.5 -11t-19.5 4l-34 24q-9 6 -6 15.5t8 16.5q13 19 32.5 33.5t42.5 24.5t47.5 15.5t46.5 5.5q35 0 65 -8.5t51.5 -24.5t34 -39.5t12.5 -53.5zM230 50q-5 -24 -25.5 -41.5t-46.5 -17.5q-24 0 -39 17.5t-10 40.5q5 25 26 42t46 17q26 0 40 -16.5t9 -42.5v1
z" />
    <glyph glyph-name="at" unicode="@" horiz-adv-x="743" 
d="M512 242q-1 -5 -1.5 -8.5t-0.5 -8.5q0 -41 41 -41q16 0 35 9t35 30t26.5 55t10.5 84q0 47 -17 83t-46 61t-68.5 37.5t-85.5 12.5q-67 0 -122.5 -24.5t-96 -66.5t-63 -98t-22.5 -119q0 -48 12 -88.5t39 -69.5t69 -45.5t102 -16.5q39 0 85.5 7.5t81.5 21.5q13 5 17 3t8 -13
l11 -27q5 -12 -1 -17t-15 -8q-44 -14 -92.5 -22t-97.5 -8q-140 0 -215.5 72t-75.5 200q0 75 26 143.5t74.5 121t119 84t160.5 31.5q67 0 120 -18t89.5 -50.5t55.5 -78t19 -99.5q0 -71 -18.5 -119.5t-45.5 -77.5t-58.5 -41.5t-58.5 -12.5q-29 0 -45.5 9.5t-28.5 26.5
q-5 7 -8.5 6.5t-7.5 -4.5q-10 -11 -23.5 -19t-28.5 -12.5t-29.5 -6t-25.5 -1.5q-25 0 -46 9t-36 25t-21 38.5t-1 49.5l17 88q10 51 44 86.5t97 35.5q20 0 38 -6t32 -19q7 -7 9 4l2 10q1 7 9 7h47q11 0 8 -9zM461 329q5 24 -10.5 43t-45.5 19t-48.5 -18t-23.5 -44l-17 -88
q-5 -26 8.5 -44.5t44.5 -18.5q19 0 32.5 6.5t22.5 16t13.5 20.5t6.5 20z" />
    <glyph glyph-name="A" unicode="A" horiz-adv-x="460" 
d="M331 0q-13 0 -16 12q-1 29 -2 56.5t-3 56.5q0 8 -7 8h-164q-7 0 -11 -8q-12 -28 -24 -57t-24 -56q-5 -12 -18 -12h-69q-12 0 -13.5 6t2.5 14q64 144 130.5 293t131.5 293q5 11 18 11h96q15 0 16 -11q11 -147 20 -293t20 -293q0 -5 -3 -12.5t-14 -7.5h-66zM245 397
q-17 -45 -36 -87.5t-38 -87.5l-2 -4q0 -3 6 -3h122q9 0 9 9q-1 22 -2 50t-2 53.5t-2 45t-1 23.5l-3 114q0 3 -2 3t-4 -4z" />
    <glyph glyph-name="B" unicode="B" horiz-adv-x="499" 
d="M40 0q-15 0 -13 14l115 589q2 14 17 14h174q72 0 116 -37t44 -106q0 -46 -24.5 -87t-67.5 -63q-2 0 -2 -3q0 -2 1 -3q33 -16 47.5 -46.5t14.5 -66.5q0 -44 -15 -81.5t-42.5 -65t-66 -43t-84.5 -15.5h-214zM363 201q0 31 -19.5 53t-58.5 22h-97q-11 0 -14 -11l-32 -168
q0 -4 1 -7.5t8 -3.5h98q51 0 82.5 30.5t31.5 84.5zM236 531q-9 0 -12 -10q-8 -38 -15 -74.5t-14 -73.5q0 -5 1 -9t6 -4h85q21 0 40.5 7t34.5 20t24 31t9 41q0 34 -20.5 53t-54.5 19h-84z" />
    <glyph glyph-name="C" unicode="C" horiz-adv-x="457" 
d="M227 81q38 0 61 13.5t44 31.5q8 7 14 10t14 -4l44 -44q9 -11 0 -21q-43 -44 -86.5 -58.5t-89.5 -14.5t-82 13t-60 37.5t-33 58.5t-1 76l53 270q7 40 22 72.5t38.5 55.5t57 36t79.5 13t92 -17t80 -63q8 -9 -5 -22l-39 -37q-7 -6 -12 -4.5t-13 9.5q-22 21 -47 34.5
t-54 13.5q-48 0 -71 -26.5t-30 -64.5l-54 -278q-7 -37 12.5 -63.5t65.5 -26.5z" />
    <glyph glyph-name="D" unicode="D" horiz-adv-x="505" 
d="M40 0q-15 0 -13 14l115 589q2 14 18 14h176q50 1 83.5 -13t52.5 -38.5t23.5 -59t-2.5 -74.5l-45 -249q-17 -94 -66 -138.5t-140 -44.5h-202zM237 87q50 0 76.5 25t34.5 68l51 259q8 48 -13 70t-66 22h-80q-15 0 -16 -12l-82 -421q-3 -11 9 -11h86z" />
    <glyph glyph-name="E" unicode="E" horiz-adv-x="457" 
d="M390 14q-3 -14 -17 -14h-335q-12 0 -12 10v4l114 589q3 14 18 14h327q15 0 12 -15l-11 -56q-3 -15 -16 -15h-232q-14 0 -15 -11l-30 -149v-3q0 -9 9 -9h192q9 0 11 -4.5t1 -10.5l-10 -59q-4 -13 -16 -13h-193q-13 0 -14 -12l-33 -164v-2q0 -8 11 -8h238q6 0 10 -4t2 -10z
" />
    <glyph glyph-name="F" unicode="F" horiz-adv-x="438" 
d="M477 617q15 0 13 -14l-12 -58q-2 -14 -17 -14h-223q-13 0 -14 -10l-30 -151v-3q0 -8 8 -8h188q13 0 13 -10q0 -3 -1 -5l-11 -57q-2 -14 -17 -14h-187q-12 0 -13 -13l-48 -246q-2 -14 -18 -14h-69q-12 0 -12 10v4l114 589q3 14 18 14h318z" />
    <glyph glyph-name="G" unicode="G" horiz-adv-x="508" 
d="M225 -6q-46 -1 -82.5 13.5t-60 41t-33 62t-0.5 76.5l54 262q15 80 65.5 128.5t139.5 48.5q48 0 93.5 -18t76.5 -63q9 -10 -7 -23l-40 -37q-7 -6 -14 -3.5t-12 8.5q-43 50 -93 50q-48 0 -75.5 -26.5t-35.5 -64.5l-53 -271q-4 -18 -1.5 -35.5t12.5 -31t27 -22t43 -8.5
q27 0 47.5 9t35 23.5t23 32.5t10.5 37l12 63q2 9 -6 9h-65q-13 0 -12 14l12 60q3 12 17 12h155q8 0 12 -3t2 -11q-3 -15 -7 -37t-8.5 -44.5t-8.5 -44t-7 -36.5q-15 -79 -69.5 -125t-146.5 -46z" />
    <glyph glyph-name="H" unicode="H" horiz-adv-x="540" 
d="M454 603q3 14 17 14h69q17 0 14 -13l-114 -589q-3 -15 -18 -15h-69q-16 0 -13 15l48 247q2 13 -9 13h-190q-8 0 -11 -3.5t-4 -9.5l-49 -247q-3 -15 -17 -15h-69q-15 0 -12 15l113 588q3 14 18 14h69q15 0 12 -14q0 -3 -3.5 -20.5t-8.5 -42t-10 -52t-10 -52t-8.5 -42
t-3.5 -20.5q-1 -13 9 -13h192q11 0 14 13z" />
    <glyph glyph-name="I" unicode="I" horiz-adv-x="248" 
d="M47 0q-16 0 -13 15l114 588q3 14 18 14h70q6 0 10.5 -3.5t2.5 -10.5l-114 -588q-3 -15 -18 -15h-70z" />
    <glyph glyph-name="J" unicode="J" horiz-adv-x="289" 
d="M-97 -81q0 8 3 14.5t17 8.5q48 6 78.5 21t49.5 37t28.5 50t15.5 60q23 123 48 246.5t48 247.5q4 13 16 13h68q13 0 13 -12v-2l-95 -498q-9 -45 -25 -89.5t-46 -80t-78 -58.5t-121 -25q-8 0 -11 2.5t-5 10.5z" />
    <glyph glyph-name="K" unicode="K" horiz-adv-x="517" 
d="M434 13q-1 -13 -14 -13h-69q-14 0 -11 12l23 181q2 19 1.5 37.5t-8.5 33t-24.5 23.5t-46.5 9q-53 0 -84.5 -30.5t-41.5 -77.5l-35 -175q-1 -13 -13 -13h-75q-13 0 -11 12l115 592q3 13 17 13h73q11 0 10 -12l-44 -219q-2 -9 2.5 -8t8.5 4l227 226q6 5 10.5 7t12.5 2h84
q9 0 10.5 -5t-3.5 -11l-223 -222q-11 -11 2 -11q20 0 37 -3q56 -11 80.5 -53t12.5 -110z" />
    <glyph glyph-name="L" unicode="L" horiz-adv-x="425" 
d="M381 87q6 0 10 -3.5t2 -11.5l-11 -57q-3 -15 -16 -15h-326q-15 0 -13 15l114 589q2 13 17 13h69q15 0 13 -13l-99 -507q-2 -10 10 -10h230z" />
    <glyph glyph-name="M" unicode="M" horiz-adv-x="657" 
d="M558 13q-4 -13 -17 -13h-65q-9 0 -11 5t0 11l67 350v1q0 2 -1 2t-3 -2l-118 -207l-73 -125q-4 -5 -10 -10.5t-16 -5.5h-41q-8 0 -13.5 2.5t-7.5 12.5l-42 230l-16 100q0 2 -2 2t-2 -2l-68 -351q-3 -13 -17 -13h-64q-14 0 -13 13l113 583q2 9 8 15t16 6h44q14 0 18 -3
t8 -15l64 -345l15 -92q1 -4 4 -4q2 0 4 3q22 38 33.5 60.5t21.5 39.5l195 339q8 11 14 14t17 3h53q19 0 19 -15q0 -2 -0.5 -2.5t-0.5 -2.5q-29 -147 -57 -292t-56 -292z" />
    <glyph glyph-name="N" unicode="N" horiz-adv-x="539" 
d="M208 617q13 0 18 -4.5t9 -12.5q35 -103 69 -209.5t69 -208.5q0 -1 1 -2q2 0 2 2l83 421q3 14 17 14h64q17 0 12 -13q-28 -147 -56 -292t-57 -292q-2 -12 -9 -16t-15 -4h-44q-11 0 -17.5 3t-9.5 12q-17 47 -35 99.5t-36 106t-36 106t-35 99.5q0 2 -2 2l-1 -2l-78 -413
q-4 -13 -17 -13h-65q-14 0 -13 13l113 580q2 12 7 18t19 6h43z" />
    <glyph glyph-name="O" unicode="O" horiz-adv-x="508" 
d="M444 173q-8 -40 -24 -73t-42 -56.5t-63.5 -36.5t-88.5 -13q-47 0 -83 14.5t-59 40t-31.5 61t-0.5 77.5l51 262q16 83 70.5 130t144.5 47q42 0 78.5 -12.5t61 -36.5t35.5 -59t2 -79zM397 444q8 40 -15 67.5t-69 27.5q-47 0 -76 -26.5t-37 -64.5l-52 -266q-7 -45 15 -73
t67 -28q51 0 79 24.5t36 66.5z" />
    <glyph glyph-name="P" unicode="P" horiz-adv-x="478" 
d="M493 467q0 -47 -16 -86.5t-44.5 -68t-69 -44t-89.5 -15.5h-94q-9 0 -12 -12v1l-44 -228q-2 -14 -18 -14h-68q-13 0 -13 11v2q29 149 57.5 295.5t57.5 294.5q3 14 18 14h165q77 0 123.5 -41t46.5 -109zM394 450q0 38 -24 59.5t-62 21.5h-73q-11 0 -13 -11l-34 -170v-2
q0 -10 8 -10h80q24 0 45.5 8t37.5 22.5t25.5 35t9.5 46.5z" />
    <glyph glyph-name="Q" unicode="Q" horiz-adv-x="508" 
d="M448 187q-6 -35 -19 -67t-35 -58t-54 -43t-77 -20q-13 -1 -13 -25q0 -15 8 -21t21 -6q11 0 26.5 2.5t35.5 8.5q8 2 14.5 3t8.5 -9l10 -48q2 -6 -1 -9t-11 -8q-29 -14 -57.5 -17.5t-45.5 -3.5q-50 0 -74.5 22t-25.5 63q0 9 1 19.5t3 18.5q2 10 -8 12q-29 7 -51 24.5
t-36 41t-19 52t1 57.5l55 284q15 78 68 121.5t146 43.5q42 0 77 -14t59.5 -38.5t35.5 -58t4 -72.5zM398 442q7 39 -17 68t-72 29t-75 -27.5t-34 -63.5l-52 -271q-8 -40 12.5 -68.5t67.5 -28.5q49 0 79.5 25.5t38.5 66.5z" />
    <glyph glyph-name="R" unicode="R" horiz-adv-x="498" 
d="M343 617q84 0 121.5 -38t37.5 -106q0 -65 -32.5 -117.5t-95.5 -90.5q-8 -5 -6 -10.5t5 -16.5l59 -216q2 -2 2 -4.5v-4.5q0 -8 -6 -10.5t-11 -2.5h-59q-17 0 -23 5.5t-8 14.5l-57 218q-2 7 -12 7h-80q-8 0 -11 -9l-43 -223q-3 -13 -17 -13h-68q-14 0 -14 13
q29 148 57.5 295.5t57.5 295.5q3 13 17 13h186zM236 531q-12 0 -15 -11l-35 -180q0 -10 9 -10h108q5 0 10 2l10 4q23 12 38 29.5t24 35t12.5 33t3.5 23.5q0 34 -19 54t-64 20h-82z" />
    <glyph glyph-name="S" unicode="S" horiz-adv-x="461" 
d="M197 -5q-50 0 -97.5 14t-81.5 46q-5 5 -4.5 10.5t6.5 15.5l32 41q6 7 11.5 9.5t16.5 -7.5q18 -14 53.5 -27.5t78.5 -13.5q23 0 44 6.5t37.5 18.5t26 30t9.5 41q0 19 -9 34t-23.5 27t-33 21t-37.5 18q-24 10 -50.5 23t-48.5 32t-36.5 45t-14.5 62q0 45 16.5 79.5t45 57.5
t67 35t81.5 12q48 0 93.5 -14.5t76.5 -43.5q10 -12 -2 -27l-32 -39q-6 -8 -12 -7.5t-14 6.5q-30 23 -58 31t-51 8q-22 0 -42 -5.5t-35 -16.5t-24 -27.5t-9 -39.5q0 -17 9 -30t23 -23.5t31 -18.5t32 -15q25 -11 54 -26t53 -35t40 -47t16 -62q0 -48 -17.5 -85t-49 -62t-75 -38
t-96.5 -13z" />
    <glyph glyph-name="T" unicode="T" horiz-adv-x="429" 
d="M479 546q-5 -15 -18 -15h-125q-11 0 -14 -10l-99 -507q-3 -14 -16 -14h-69q-17 0 -13 13l98 507q3 11 -9 11h-121q-14 0 -11 15l11 57q3 14 17 14h368q14 0 11 -13l-10 -58v0z" />
    <glyph glyph-name="U" unicode="U" horiz-adv-x="516" 
d="M446 169q-15 -80 -72 -127.5t-149 -47.5q-44 0 -79.5 13.5t-59 38.5t-33 60.5t-0.5 80.5l81 417q1 13 17 13h69q13 0 12 -12l-85 -431q-7 -43 16.5 -68t65.5 -25q52 0 81 25t37 63l84 435q3 13 18 13h68q16 0 13 -12z" />
    <glyph glyph-name="V" unicode="V" horiz-adv-x="462" 
d="M252 12q-5 -12 -21 -12h-76q-17 0 -18 13l-51 585q-1 8 3.5 13.5t16.5 5.5h68q14 0 15 -10l17 -308l8 -153q1 -3 2.5 -3t2.5 3q6 13 15.5 34.5t19.5 45t19.5 44.5t15.5 35l137 302q6 10 19 10h70q15 0 15.5 -7t-2.5 -13z" />
    <glyph glyph-name="W" unicode="W" horiz-adv-x="695" 
d="M510 13q-7 -13 -19 -13h-77q-6 0 -10.5 3t-4.5 9l-6 291l-2 132q0 1 -3 0q-4 -11 -11 -29t-15 -37.5t-15.5 -38t-11.5 -29.5l-116 -290q-6 -11 -19 -11h-76q-15 0 -16 10l-22 589q0 6 3.5 12t14.5 6h67q13 0 13 -14l4 -294l-1 -147q2 -3 5 0q13 36 27.5 72.5t27.5 71.5
l122 301q2 4 5 7t13 3h67q6 0 10.5 -3t4.5 -9l8 -301l1 -142q0 -3 1.5 -2.5t3.5 2.5l54 146l118 297q4 12 18 12h72q14 0 15 -7t-2 -13z" />
    <glyph glyph-name="X" unicode="X" horiz-adv-x="466" 
d="M247 226q0 4 -4 4q-3 0 -7 -4q-44 -63 -78.5 -114.5t-66.5 -98.5q-6 -8 -12 -10.5t-15 -2.5h-76q-12 0 -12 9q0 5 3 10l210 289q7 11 7 15t-2 15l-87 261q-1 2 -1 6q0 12 16 12h72q17 0 20 -14q14 -46 26.5 -92.5t26.5 -92.5q1 -3 4 -3t5 3l125 183q6 9 11.5 12.5
t17.5 3.5h73q11 0 13 -6t-3 -13l-192 -263q-5 -8 -6 -13t1 -13l99 -290q1 -3 1 -8q0 -11 -15 -11h-68q-9 0 -14 1.5t-9 11.5z" />
    <glyph glyph-name="Y" unicode="Y" horiz-adv-x="439" 
d="M280 245q-6 -10 -8.5 -16.5t-4.5 -14.5l-39 -201q-3 -13 -17 -13h-68q-14 0 -13 13l40 205q1 5 1.5 12.5t-1.5 15.5l-86 352q-5 19 15 19h63q10 0 15.5 -2.5t7.5 -11.5l49 -259q2 -5 4.5 -4.5t4.5 4.5l148 257q6 9 10.5 12.5t17.5 3.5h74q14 0 14 -8q0 -3 -4 -11z" />
    <glyph glyph-name="Z" unicode="Z" horiz-adv-x="418" 
d="M355 15q-2 -8 -5.5 -11.5t-11.5 -3.5h-329q-14 0 -17.5 6.5t-1.5 14.5l5 24q2 8 6.5 19t9.5 19l314 437q7 11 -6 11h-202q-14 0 -11 15l11 57q3 14 16 14h308q15 0 19 -5.5t2 -16.5l-6 -31q-2 -11 -9 -22.5t-13 -19.5l-304 -423q-9 -12 4 -12h221q14 0 11 -15l-11 -57v0z
" />
    <glyph glyph-name="bracketleft" unicode="[" horiz-adv-x="339" 
d="M189 675q2 13 15 13h155q13 0 10 -12l-11 -56q-2 -12 -14 -12h-60q-14 0 -17 -14l-125 -647q-3 -14 11 -14h59q13 0 10 -13l-10 -55q-3 -13 -15 -13h-155q-12 0 -11 13z" />
    <glyph glyph-name="backslash" unicode="\" horiz-adv-x="311" 
d="M255 -48q2 -8 -1.5 -13t-12.5 -5h-35q-16 0 -18 14l-95 711q-2 16 15 16h31q21 0 22 -14l94 -709v0z" />
    <glyph glyph-name="bracketright" unicode="]" horiz-adv-x="332" 
d="M164 -136q-3 -12 -15 -12h-156q-11 0 -10 12l11 55q3 12 15 12h59q14 0 17 15l126 646q2 14 -12 14h-59q-12 0 -10 13l11 55q3 14 15 14h155q13 0 10 -13z" />
    <glyph glyph-name="asciicircum" unicode="^" horiz-adv-x="558" 
d="M513 416q9 -15 -11 -29l-25 -16q-7 -5 -14 -1t-13 13l-93 141q-5 8 -10 6.5t-10 -6.5l-164 -147q-10 -8 -17 -11t-14 2l-24 17q-14 10 3 27l191 203q5 5 10.5 8.5t16.5 3.5h43q10 0 14 -2.5t8 -10.5l109 -198v0z" />
    <glyph glyph-name="underscore" unicode="_" horiz-adv-x="500" 
d="M437 -143q-3 -12 -15 -12h-485q-13 0 -11 11l9 47q3 11 15 11h485q13 0 11 -11z" />
    <glyph glyph-name="grave" unicode="`" horiz-adv-x="457" 
d="M227 671q5 3 12 0.5t12 -9.5l92 -147q7 -13 -4 -19l-22 -11q-8 -4 -14 -2t-8 5l-119 130q-4 5 -6 12t6 12z" />
    <glyph glyph-name="a" unicode="a" horiz-adv-x="459" 
d="M246 369q-20 0 -51.5 -6t-59.5 -17q-5 -2 -10.5 -1t-7.5 8l-16 50q-2 8 1.5 12.5t8.5 6.5q31 12 66 19.5t73 7.5q51 0 86 -13.5t55 -38t25.5 -58.5t-2.5 -74l-50 -253q-1 -12 -13 -12h-72q-10 0 -8 9l3 15q2 9 -2.5 9t-9.5 -5q-22 -19 -45.5 -25.5t-52.5 -7.5
q-66 0 -100 33.5t-34 96.5q0 41 13.5 74t38 56t58.5 35t75 12q23 0 47 -5.5t40 -15.5q5 -4 10.5 -2.5t7.5 9.5l2 9q8 32 -10 52t-66 20zM215 229q-38 0 -65.5 -26t-27.5 -68q0 -26 16 -44t51 -18q40 0 68 27t28 67q0 27 -19 44.5t-51 17.5z" />
    <glyph glyph-name="b" unicode="b" horiz-adv-x="460" 
d="M409 163q-7 -35 -21 -66t-37 -53.5t-55.5 -35.5t-77.5 -13q-29 0 -49 6t-43 26q-8 8 -12 -4l-3 -14q-2 -9 -13 -9h-71q-13 0 -11 12l120 612q3 13 16 13h69q13 0 10 -12l-40 -199q-1 -6 3 -8.5t12 3.5q14 9 33.5 17.5t53.5 8.5q37 0 66 -13.5t47 -37t25 -54t0 -64.5z
M337 278q8 36 -10.5 62t-59.5 26q-22 0 -39.5 -8t-31 -20.5t-22.5 -28t-12 -31.5l-22 -115q-7 -36 13.5 -61.5t58.5 -25.5q43 0 68.5 24.5t33.5 62.5z" />
    <glyph glyph-name="c" unicode="c" horiz-adv-x="412" 
d="M409 364q7 -14 -9 -24l-41 -28q-10 -7 -17 -3t-11 10q-13 23 -33.5 35t-45.5 12q-42 0 -67 -24.5t-32 -60.5l-24 -121q-3 -17 -2 -32.5t9 -27t23.5 -18.5t40.5 -7q33 0 58 18t42 33q7 6 14 8t15 -5l32 -30q14 -11 4 -24q-33 -42 -74 -61.5t-97 -19.5q-41 0 -74 12
t-54.5 33.5t-30 52.5t-0.5 70l22 114q15 80 62 126t136 46q51 0 91 -20t63 -64z" />
    <glyph glyph-name="d" unicode="d" horiz-adv-x="460" 
d="M370 12q-2 -12 -15 -12h-72q-13 0 -10 12l2 11q2 5 -2 7t-9 -2q-44 -33 -92 -33q-35 0 -63 12t-47 34t-26 53t0 69l20 115q7 35 22 66t38.5 54t56 36t76.5 13q34 0 57 -10t31 -18q7 -6 11.5 -3.5t6.5 8.5l40 200q3 13 16 13h67q14 0 11 -12zM326 270q3 17 0 34
t-12.5 30.5t-26.5 22t-41 8.5q-40 0 -63 -25.5t-31 -61.5l-22 -115q-8 -37 12.5 -62t64.5 -25q38 0 63.5 25.5t33.5 61.5z" />
    <glyph glyph-name="e" unicode="e" horiz-adv-x="440" 
d="M422 333q0 -52 -26.5 -83t-67 -48t-88.5 -23t-92 -7q-11 0 -14 -11l-4 -22q-8 -32 11.5 -47.5t63.5 -15.5q29 0 55 17t43 32q13 13 23 4l39 -35q6 -6 8.5 -11.5t-5.5 -13.5q-35 -40 -76 -58t-95 -18q-43 0 -76.5 10.5t-54.5 32.5t-28 56.5t2 82.5l18 92q10 51 29.5 86
t47 56t62.5 30t76 9q26 0 52.5 -7t48 -21t35 -35.5t13.5 -51.5zM328 317q0 20 -13.5 35.5t-49.5 15.5q-47 0 -73.5 -23t-33.5 -55l-7 -33q-1 -10 11 -10q28 0 57.5 3.5t53.5 11.5t39.5 21.5t15.5 33.5z" />
    <glyph glyph-name="f" unicode="f" horiz-adv-x="292" 
d="M356 564q-3 -8 -8.5 -9.5t-15.5 0.5q-13 2 -22 3.5t-20 1.5q-28 0 -42 -17.5t-19 -41.5l-9 -50q-1 -10 10 -10h80q13 0 10 -13l-10 -53q-3 -12 -16 -12h-79q-8 0 -10.5 -3.5t-3.5 -8.5l-79 -404q-5 -27 -16.5 -50.5t-29.5 -41t-42.5 -27.5t-55.5 -10q-21 0 -38 2t-28 5
q-7 2 -11 6t0 15l17 53q4 13 24 9q17 -5 36 -5q26 0 37 17.5t16 38.5l76 391q2 13 -13 13h-36q-12 0 -9 13l10 53q3 12 16 12h38q11 0 14 11l11 61q5 27 17 50.5t30.5 41t44.5 28t60 10.5q22 0 41 -2.5t30 -5.5q7 -2 11.5 -6t-0.5 -15z" />
    <glyph glyph-name="g" unicode="g" horiz-adv-x="462" 
d="M370 -17q-17 -89 -60 -129t-132 -40q-19 0 -38.5 2.5t-37.5 7t-32.5 9.5t-23.5 10q-11 6 -14 13.5t3 19.5l19 37q11 20 30 10q25 -12 52 -17.5t41 -5.5q25 0 42 6t28 16.5t17 24.5t9 31l9 37q2 6 -2 8.5t-13 -3.5q-13 -8 -33.5 -17t-52.5 -9q-37 0 -65.5 14t-47 37
t-25.5 54t-1 65l22 114q7 35 20.5 65.5t36.5 53.5t55.5 36.5t77.5 13.5q26 0 53 -9.5t42 -23.5q5 -5 8 -3t4 7l3 14q3 9 14 9h68q12 0 11 -12zM333 278q7 36 -13.5 62t-58.5 26q-42 0 -68 -25t-34 -63l-23 -114q-8 -37 10.5 -63t59.5 -26q22 0 39.5 8t31 20.5t22.5 28.5
t12 32z" />
    <glyph glyph-name="h" unicode="h" horiz-adv-x="473" 
d="M380 13q-1 -13 -14 -13h-70q-13 0 -11 12l52 265q8 38 -9 63.5t-61 25.5q-20 0 -37 -7.5t-31 -20.5t-23.5 -30t-13.5 -36l-50 -259q-1 -13 -15 -13h-69q-14 0 -11 12l121 613q1 13 14 13h68q12 0 11 -12l-40 -208q-3 -16 11 -6q22 18 48 27t49 9q80 0 113.5 -47
t19.5 -123z" />
    <glyph glyph-name="i" unicode="i" horiz-adv-x="213" 
d="M189 626q24 0 38 -16.5t9 -39.5t-25 -39.5t-43 -16.5q-24 0 -37.5 16t-9.5 40q4 23 24 39.5t44 16.5zM117 12q-3 -12 -15 -12h-70q-13 0 -11 12l81 416q3 13 15 13h70q13 0 10 -13z" />
    <glyph glyph-name="j" unicode="j" horiz-adv-x="225" 
d="M-83 -104q4 14 25 9q8 -2 17 -2.5t14 -0.5q38 1 48 55l92 472q1 12 15 12h68q7 0 9.5 -3.5t1.5 -8.5l-94 -484q-11 -58 -44.5 -94t-96.5 -36q-21 0 -37.5 2.5t-19.5 4.5q-8 3 -10.5 6t-0.5 14zM199 626q24 0 38 -16.5t9 -39.5t-25 -39.5t-43 -16.5q-24 0 -37.5 16
t-9.5 40q4 23 24 39.5t44 16.5z" />
    <glyph glyph-name="k" unicode="k" horiz-adv-x="452" 
d="M387 18q-4 -18 -18 -18h-65q-16 0 -14 15l13 91q3 19 2 36t-8.5 29.5t-22 20t-38.5 7.5q-46 0 -71.5 -27.5t-33.5 -64.5l-18 -95q-3 -12 -14 -12h-71q-13 0 -10 12l119 612q2 13 14 13h70q13 0 10 -12l-65 -333q-3 -12 5 -12q3 0 7 4q31 28 54 49.5t41.5 38.5t34 32
t31.5 29q5 5 9 6t12 1h91q9 0 9.5 -5.5t-4.5 -9.5l-156 -142q-3 -2 -5 -6q0 -3 5 -5q36 -4 57.5 -18.5t33 -37t13 -51t-3.5 -60.5z" />
    <glyph glyph-name="l" unicode="l" horiz-adv-x="234" 
d="M139 127q-5 -26 0 -35.5t25 -9.5h11q12 0 13.5 -7t0.5 -14l-6 -49q-2 -17 -18 -18q-8 -1 -16 -1h-16q-34 0 -54 8.5t-29.5 26.5t-9 46.5t8.5 68.5l94 481q2 13 14 13h69q14 0 11 -12l-98 -498v0z" />
    <glyph glyph-name="m" unicode="m" horiz-adv-x="713" 
d="M624 13q-3 -13 -15 -13h-70q-13 0 -10 12l52 267q7 38 -8 62.5t-58 24.5q-37 0 -63 -26t-34 -61l-51 -266q-3 -13 -15 -13h-69q-13 0 -11 12l51 265q3 17 1 33t-10 28.5t-21.5 20t-33.5 7.5q-39 0 -64.5 -27t-31.5 -60l-52 -266q-3 -13 -15 -13h-70q-13 0 -11 12l52 267
q7 36 23 66.5t41 53.5t59 36t77 13q38 0 71 -16t49 -40q6 -7 13 -1q25 23 60 40t75 17q39 0 68.5 -12.5t48 -35t24.5 -53.5t-1 -68z" />
    <glyph glyph-name="n" unicode="n" horiz-adv-x="471" 
d="M380 13q-1 -13 -14 -13h-70q-13 0 -11 12l52 265q8 38 -9 63.5t-61 25.5q-20 0 -37 -7.5t-31 -20.5t-23.5 -30t-13.5 -36l-50 -259q-1 -13 -15 -13h-69q-14 0 -11 12l81 416q3 13 15 13h68q13 0 10 -12l-3 -14q-2 -8 1.5 -9.5t11.5 3.5q22 18 48.5 28.5t49.5 10.5
q80 0 113.5 -47t19.5 -123z" />
    <glyph glyph-name="o" unicode="o" horiz-adv-x="458" 
d="M402 164q-15 -82 -64.5 -126t-139.5 -44q-42 0 -74.5 14t-53 38.5t-28.5 58.5t0 75l19 99q14 76 64 123t137 47q40 0 72.5 -12.5t54.5 -36t31 -56t2 -72.5zM328 272q8 39 -12.5 66.5t-59.5 27.5q-38 0 -65 -25t-35 -63l-22 -114q-3 -16 0 -32t12 -28.5t24 -20t36 -7.5
q39 0 66 24t35 64z" />
    <glyph glyph-name="p" unicode="p" horiz-adv-x="462" 
d="M409 164q-7 -35 -21.5 -66t-38 -54t-56.5 -36.5t-75 -13.5q-34 0 -57 9.5t-31 17.5q-7 6 -11.5 3.5t-5.5 -9.5l-38 -182q-1 -13 -15 -13h-67q-14 0 -11 12l115 597q3 12 15 12h68q11 0 10 -12l-2 -13q0 -11 10 -4q20 15 44 25t53 10q36 0 64.5 -12.5t47 -35t25 -53.5
t-0.5 -68zM337 278q8 37 -9 62t-62 25q-37 0 -66 -25.5t-37 -61.5l-23 -114q-7 -37 14.5 -62.5t63.5 -25.5q39 0 63.5 25t32.5 63z" />
    <glyph glyph-name="q" unicode="q" horiz-adv-x="462" 
d="M341 -167q-3 -13 -16 -13h-69q-12 0 -10 12l36 183q1 6 -2.5 8.5t-12.5 -3.5q-13 -8 -33.5 -17t-52.5 -9q-38 0 -66.5 14t-47 37t-25 54t-0.5 65l22 114q7 35 20.5 65.5t36 53.5t54.5 36.5t77 13.5q29 0 54 -8.5t43 -25.5q8 -8 12 4l4 15q3 9 14 9h67q12 0 11 -12z
M333 278q7 36 -13.5 62t-58.5 26q-42 0 -68 -25t-34 -63l-23 -114q-8 -37 10.5 -63t59.5 -26q22 0 39.5 8t31 20.5t22.5 28.5t12 32z" />
    <glyph glyph-name="r" unicode="r" horiz-adv-x="316" 
d="M324 361q-4 -10 -8.5 -11t-9.5 -1q-36 1 -61.5 -5t-42.5 -19.5t-27 -34t-15 -47.5l-45 -230q-3 -13 -15 -13h-69q-14 0 -12 12l81 416q3 13 15 13h60q14 0 11 -12l-8 -41q-2 -6 1.5 -7.5t8.5 3.5q10 13 25 26t34 22t42.5 12.5t52.5 -0.5q14 -1 7 -18z" />
    <glyph glyph-name="s" unicode="s" horiz-adv-x="402" 
d="M174 -6q-26 0 -50.5 5.5t-46 16.5t-38.5 29t-27 44q-4 9 8 17l50 26q7 4 10.5 2t7.5 -7q13 -25 35 -39.5t57 -14.5q28 0 49 12.5t21 42.5q0 19 -20.5 30t-46.5 22q-19 8 -41 17.5t-40.5 23.5t-31 34.5t-12.5 50.5q0 34 12 60.5t34 44.5t52 27.5t65 9.5q45 0 85 -15.5
t66 -49.5q5 -5 2.5 -10t-8.5 -11l-36 -36q-5 -5 -11.5 -4t-11.5 7q-16 18 -39.5 29.5t-47.5 11.5q-29 0 -48 -13t-19 -41q0 -20 17.5 -30.5t42.5 -21.5q22 -10 46 -20.5t44.5 -25.5t33.5 -35.5t13 -48.5q0 -36 -14 -62t-38 -43.5t-56 -26t-68 -8.5z" />
    <glyph glyph-name="t" unicode="t" horiz-adv-x="344" 
d="M292 25q1 -11 -5 -14.5t-14 -5.5t-19.5 -4t-25 -3.5t-26.5 -2t-22 -0.5q-37 0 -60 9.5t-35 26t-13.5 39.5t3.5 50l45 232q2 11 -10 11h-40q-13 0 -11 12l11 53q2 13 13 13h41q12 0 15 13l15 76q2 13 15 13l71 15q13 0 11 -12l-18 -93q-3 -12 9 -12h86q12 0 11 -12
l-11 -53q-1 -13 -15 -13h-86q-13 0 -14 -11l-42 -216q-6 -32 4 -44t37 -12q8 0 25 2t26 4q12 2 16.5 -1t5.5 -11l7 -49v0z" />
    <glyph glyph-name="u" unicode="u" horiz-adv-x="466" 
d="M373 13q-3 -13 -15 -13h-69q-12 0 -9 12l3 17q2 7 -3 8t-10 -4q-17 -17 -46 -28t-55 -11q-77 0 -110.5 46.5t-19.5 121.5l52 266q3 13 14 13h70q12 0 11 -12l-52 -265q-8 -38 8.5 -63t61.5 -25q19 0 36.5 7.5t31.5 20t23.5 29t12.5 35.5l51 260q1 13 15 13h69
q14 0 11 -12z" />
    <glyph glyph-name="v" unicode="v" horiz-adv-x="418" 
d="M287 315q9 19 14 33t7.5 25.5t3 22t0.5 21.5q0 7 3 15.5t17 8.5h51q15 0 18.5 -6t3.5 -17q0 -36 -6.5 -62t-23.5 -60l-142 -285q-7 -13 -23 -13h-69q-10 0 -13.5 2.5t-5.5 11.5l-90 411q-1 8 2.5 13t12.5 5h64q10 0 15 -4.5t6 -10.5l55 -309q1 -5 4 -5t5 4z" />
    <glyph glyph-name="w" unicode="w" horiz-adv-x="633" 
d="M506 313q9 19 14 33.5t7 26t2.5 22t0.5 21.5q0 7 3 15.5t17 8.5h54q15 0 18.5 -6t3.5 -17q0 -18 -1 -33t-4.5 -29.5t-9 -29t-14.5 -31.5l-142 -282q-7 -13 -23 -13h-67q-11 0 -14.5 2.5t-5.5 11.5l-31 171q-2 6 -5.5 6t-5.5 -5l-85 -173q-8 -13 -24 -13h-66
q-11 0 -14.5 2.5t-5.5 11.5l-72 410q-1 8 2.5 13t12.5 5h68q10 0 12.5 -4.5t3.5 -10.5l43 -300q1 -5 4 -5t5 4l94 192q4 7 4.5 9.5t-1.5 10.5l-14 86q-1 8 2.5 13t12.5 5h69q10 0 12.5 -4.5t3.5 -10.5l42 -293q1 -5 4 -5t5 4z" />
    <glyph glyph-name="x" unicode="x" horiz-adv-x="416" 
d="M354 18q3 -8 0 -13t-14 -5h-62q-8 0 -13.5 2t-10.5 12l-53 134q-3 6 -5 6t-4.5 -2.5l-4.5 -4.5l-103 -133q-8 -10 -15 -12t-15 -2h-69q-13 0 -13 6.5t5 11.5l162 195q6 7 8 11.5t2 8.5t-3 12l-77 178q-2 5 -1 11t14 6h62q11 0 15.5 -1.5t8.5 -11.5q11 -29 22 -58.5
t22 -58.5q2 -5 5 -5t6 4l92 118q8 10 12.5 11.5t15.5 1.5h71q11 0 11 -6t-4 -11q-37 -45 -74 -89t-74 -89q-9 -10 -9 -19q0 -5 3 -11z" />
    <glyph glyph-name="y" unicode="y" horiz-adv-x="420" 
d="M58 -183q-11 0 -15 6t4 20l83 155h-13q-10 0 -13.5 2.5t-5.5 11.5l-48 411q-1 8 2.5 13t12.5 5h61q10 0 15 -4.5t6 -10.5l25 -335q0 -8 8 0l115 224q9 19 14.5 33t7.5 25.5t2.5 22t0.5 21.5q0 7 3 15.5t17 8.5h51q15 0 18.5 -6t3.5 -17q0 -36 -6 -62t-24 -60
q-38 -72 -64 -122t-45 -86.5t-33.5 -64.5t-28.5 -54.5t-30 -57.5t-38 -73q-4 -7 -12 -14t-22 -7h-52v0z" />
    <glyph glyph-name="z" unicode="z" horiz-adv-x="415" 
d="M401 388q-2 -8 -6 -16.5t-9 -14.5l-233 -261q-6 -7 -4.5 -11t9.5 -4h186q13 0 10 -12l-11 -56q-1 -13 -14 -13h-313q-12 0 -16 5.5t-2 13.5l5 28q2 7 5 15t10 15l241 269q5 5 4 9.5t-9 4.5h-167q-14 0 -11 12l11 56q3 13 15 13h285q25 0 20 -20z" />
    <glyph glyph-name="braceleft" unicode="{" horiz-adv-x="351" 
d="M246 -140q-3 -13 -15 -13h-21q-63 2 -94 28t-31 80q0 11 1.5 23t3.5 26l26 132q8 32 -6 57t-42 37q-21 8 -21 18v3l8 44q2 11 9 15t19 9q33 14 56 36t30 59q6 31 11.5 61.5t12.5 61.5q16 76 52.5 113t110.5 37q9 0 18 -0.5t19 -0.5q11 0 11 -9v-3q-3 -14 -6 -27.5
t-5 -27.5q-2 -13 -13 -13h-11q-22 0 -36 -4.5t-23 -13.5t-14.5 -23.5t-9.5 -34.5q-8 -37 -14.5 -75.5t-15.5 -75.5q-8 -35 -31 -62t-57 -44q-6 -3 -6 -8q0 -4 3 -5q16 -8 26.5 -22t15.5 -30.5t5.5 -34.5t-3.5 -34l-26 -138q-3 -17 -3 -31t5 -23.5t17.5 -15t34.5 -5.5h8
q11 -1 11 -9q0 -4 -1 -6l-9 -51v0z" />
    <glyph glyph-name="bar" unicode="|" horiz-adv-x="231" 
d="M172 -103q-2 -12 -13 -12h-43q-13 0 -13 12v767q0 12 13 12h42q14 0 14 -11v-768v0z" />
    <glyph glyph-name="braceright" unicode="}" horiz-adv-x="351" 
d="M320 251q-1 -9 -7.5 -13.5t-20.5 -8.5q-70 -20 -85 -94l-25 -131q-8 -40 -18.5 -69t-28.5 -48.5t-45.5 -29.5t-69.5 -10h-37q-12 2 -12 9q0 1 0.5 1.5t0.5 1.5l10 56q2 6 6 9.5t18 3.5q6 0 11.5 0.5t10.5 0.5q30 1 41 21t18 52l28 135l5 26q7 31 29.5 64t59.5 48q6 3 6 7
q0 2 -4 6q-32 17 -42.5 49t-2.5 65l24 128q2 10 3 18t1 15q0 23 -13 33t-45 10h-8q-11 0 -11 7q0 3 1 5l10 55q2 13 15 13h19q63 -2 94.5 -27t31.5 -80q0 -11 -1.5 -22.5t-3.5 -25.5q-5 -30 -10.5 -59.5t-11.5 -58.5q-5 -32 7 -57.5t42 -37.5q10 -4 15 -7t5 -11q0 -4 -1 -6
l-9 -43v0z" />
    <glyph glyph-name="asciitilde" unicode="~" horiz-adv-x="486" 
d="M158 376q27 0 50 -9t45.5 -20.5t45 -21t46.5 -9.5q20 -1 37 12t29 24q17 15 29 3l28 -26q14 -14 1 -28q-29 -34 -65 -54t-74 -20q-29 0 -55 9.5t-49 21.5t-44.5 21.5t-41.5 9.5q-18 0 -34 -9t-39 -32q-13 -11 -22 -2l-31 33q-7 7 -4 14t10 14q34 39 70.5 54t67.5 15z" />
    <glyph glyph-name="dieresistonos" unicode="&#x385;" horiz-adv-x="463" 
d="M486 559q-5 -23 -23 -38t-41 -15t-36 15t-8 38q5 22 23.5 37.5t41.5 15.5q22 0 35 -15.5t8 -37.5zM207 559q-5 -23 -23 -38t-41 -15t-35.5 15t-7.5 38q4 22 22.5 37.5t41.5 15.5t35.5 -15.5t7.5 -37.5zM388 633q8 -6 5.5 -12.5t-6.5 -10.5l-130 -120q-3 -3 -8.5 -4.5
t-13.5 3.5l-21 13q-12 7 -3 19l105 139q5 6 12 8t12 -2z" />
    <glyph glyph-name="tonos" unicode="&#x384;" horiz-adv-x="446" 
d="M421 633q8 -6 5.5 -12.5t-6.5 -10.5l-130 -120q-3 -3 -8.5 -4.5t-13.5 3.5l-21 13q-12 7 -3 19l105 139q5 6 12 8t12 -2l48 -33v0z" />
    <glyph glyph-name="dieresis" unicode="&#xa8;" horiz-adv-x="463" 
d="M431 550q-5 -23 -22.5 -38t-40.5 -15t-36 15t-8 38q4 22 22.5 37.5t41.5 15.5q22 0 35 -15.5t8 -37.5zM262 550q-5 -23 -23 -38t-41 -15t-35.5 15t-7.5 38q5 22 23 37.5t41 15.5t35.5 -15.5t7.5 -37.5z" />
    <glyph glyph-name="sterling" unicode="&#xa3;" horiz-adv-x="486" 
d="M504 542q5 -11 -9 -22l-39 -31q-8 -6 -14.5 -4.5t-10.5 8.5q-12 22 -36 36t-52 14q-42 0 -71 -23.5t-37 -61.5l-17 -92q-3 -14 11 -14h101q12 0 11 -12l-11 -55q-3 -12 -15 -12h-101q-14 0 -17 -14l-10 -53q-7 -35 -16 -64.5t-26 -49.5q-7 -9 4 -9h234q13 0 11 -13
l-11 -57q-3 -13 -15 -13h-365q-13 0 -11 12l11 55q2 7 6.5 10.5t10.5 5.5q16 4 27 14t18.5 22t12 25t6.5 24l17 90q2 7 0.5 10t-9.5 4h-35q-13 0 -10 12l11 55q1 12 14 12h36q12 0 14 14l14 88q13 80 64.5 126.5t138.5 46.5q24 0 48.5 -4.5t46 -14.5t40 -26t30.5 -39z" />
    <glyph glyph-name="trademark" unicode="&#x2122;" horiz-adv-x="604" 
d="M465 326q-2 -4 -5 -7t-8 -3h-20q-9 0 -13 9l-69 149q-1 1 -2 1l-2 -2v-163q0 -8 -8 -8h-37q-9 0 -9 8v297q0 11 9 11h30q9 0 11 -2t6 -9l91 -206q1 -1 3 -1t2 1q23 51 45.5 102.5t45.5 102.5q4 12 15 12h31q10 0 10 -10v-298q0 -8 -8 -8h-36q-8 0 -8 6v165q0 3 -2 3
q-1 0 -3 -2zM269 575q0 -9 -8 -9h-63q-8 0 -8 -8v-247q0 -9 -9 -9h-40q-10 0 -10 9v247q0 8 -6 8h-64q-8 0 -8 9v33q0 10 7 10h201q8 0 8 -9v-34z" />
    <glyph glyph-name="bullet" unicode="&#x2022;" horiz-adv-x="383" 
d="M193 115q-25 0 -46.5 9.5t-38 25.5t-26 37.5t-9.5 45.5t9.5 46t26 38t38 25.5t46.5 9.5q24 0 45.5 -9.5t37.5 -25.5t25.5 -38t9.5 -46t-9.5 -45.5t-25.5 -37.5t-37.5 -25.5t-45.5 -9.5z" />
    <glyph glyph-name="sfthyphen" unicode="&#xad;" horiz-adv-x="332" 
d="M277 210q-3 -12 -14 -12h-202q-13 0 -11 12l10 51q3 12 14 12h202q13 0 11 -11z" />
    <glyph glyph-name="dagger" unicode="&#x2020;" horiz-adv-x="467" 
d="M475 447q-3 -16 -19 -16h-133q-11 0 -12 -8l-107 -546q-3 -16 -19 -16h-41q-18 0 -13 15l106 545q1 6 -0.5 8t-7.5 2h-131q-16 0 -13 15l7 38q3 17 19 17h131q7 0 8.5 1.5t3.5 6.5l27 143q4 16 20 16h41q16 0 13 -15l-27 -143q-3 -9 8 -9h134q6 0 10 -4.5t2 -11.5z" />
    <glyph glyph-name="Gamma" unicode="&#x393;" horiz-adv-x="427" 
d="M126 14q-3 -14 -17 -14h-69q-16 0 -13 13l114 590q3 14 18 14h323q15 0 12 -14l-11 -58q-3 -14 -17 -14h-229q-12 0 -13 -10l-98 -507v0z" />
    <glyph glyph-name="Delta" unicode="&#x394;" horiz-adv-x="461" 
d="M-11 0q-12 0 -12 10q0 5 1 7q66 144 136.5 294.5t136.5 293.5q7 12 20 12h94q8 0 10.5 -3.5t3.5 -7.5q11 -147 23 -292.5t24 -292.5v-3q0 -7 -3 -12.5t-13 -5.5h-421zM321 94q-4 63 -7.5 126.5t-6.5 127.5q-2 41 -3 76.5t-3 70.5q0 4 -3 4q-2 0 -3 -3q-14 -35 -31 -74.5
t-32 -74.5q-28 -64 -55.5 -127t-54.5 -127q-2 -4 -2 -6q0 -5 8 -5h183q10 0 10 10v2z" />
    <glyph glyph-name="Delta" unicode="&#x2206;" horiz-adv-x="461" 
d="M-11 0q-12 0 -12 10q0 5 1 7q66 144 136.5 294.5t136.5 293.5q7 12 20 12h94q8 0 10.5 -3.5t3.5 -7.5q11 -147 23 -292.5t24 -292.5v-3q0 -7 -3 -12.5t-13 -5.5h-421zM321 94q-4 63 -7.5 126.5t-6.5 127.5q-2 41 -3 76.5t-3 70.5q0 4 -3 4q-2 0 -3 -3q-14 -35 -31 -74.5
t-32 -74.5q-28 -64 -55.5 -127t-54.5 -127q-2 -4 -2 -6q0 -5 8 -5h183q10 0 10 10v2z" />
    <glyph glyph-name="Theta" unicode="&#x398;" horiz-adv-x="528" 
d="M465 173q-8 -40 -24 -73t-43.5 -56.5t-67 -36.5t-93.5 -13q-48 0 -86 14t-62.5 40t-34.5 62.5t-1 82.5l50 256q17 83 77.5 130t151.5 47q45 0 83 -14.5t63 -41t36 -63t2 -81.5zM418 438q8 44 -17 72.5t-76 28.5q-54 0 -85 -26.5t-38 -64.5l-53 -267q-9 -45 15.5 -72
t74.5 -27q58 0 88.5 26t38.5 66zM206 272q-12 0 -10 12l12 60q1 12 15 12h140q12 0 9 -12l-11 -60q-2 -5 -5.5 -8.5t-8.5 -3.5h-141z" />
    <glyph glyph-name="Lambda" unicode="&#x39b;" horiz-adv-x="459" 
d="M221 324q-35 -79 -68 -156.5t-68 -155.5q-5 -12 -18 -12h-77q-15 0 -15 10q0 5 3 10q69 147 137 293t137 293q6 11 19 11h87q14 0 15 -10q12 -147 23 -293t23 -293v-4q0 -6 -3.5 -11.5t-15.5 -5.5h-65q-14 0 -15 11l-8 150t-9 150l-9 172q0 2 -2 2t-3 -2z" />
    <glyph glyph-name="Xi" unicode="&#x39e;" horiz-adv-x="474" 
d="M410 15q-2 -8 -5.5 -11.5t-11.5 -3.5h-379q-14 0 -11 15l11 57q3 15 17 15h123q8 0 10.5 2.5t4.5 9.5l32 161q1 12 -10 12h-80q-13 0 -11 15l12 57q1 15 16 15h80q12 0 15 12l28 150q3 10 -11 10h-120q-13 0 -10 15l10 57q5 14 18 14h355q6 0 10 -3.5t2 -10.5l-10 -57
q-5 -15 -18 -15h-119q-8 0 -10.5 -2.5t-4.5 -7.5l-28 -150q-3 -12 9 -12h85q8 0 10 -3.5t1 -11.5l-11 -57q-3 -15 -16 -15h-86q-13 0 -14 -12l-32 -161q-3 -12 11 -12h137q15 0 12 -15l-11 -57v0z" />
    <glyph glyph-name="Pi" unicode="&#x3a0;" horiz-adv-x="546" 
d="M547 617q16 0 13 -13l-114 -589q-3 -15 -18 -15h-69q-15 0 -12 13l98 506q2 13 -10 13h-196q-8 0 -10.5 -3t-4.5 -10l-98 -504q-3 -15 -18 -15h-69q-15 0 -12 13l113 590q3 14 18 14h389v0z" />
    <glyph glyph-name="germandbls" unicode="&#xdf;" horiz-adv-x="487" 
d="M478 487q-1 -38 -20 -75t-55 -53q-5 -2 -4.5 -5t2.5 -5q23 -13 35.5 -42t5.5 -64l-14 -84q-7 -36 -21 -66.5t-37.5 -53.5t-56.5 -36t-78 -13h-53q-7 0 -12 3t-3 11l10 48q2 10 7.5 12.5t13.5 2.5h23q27 0 46 7t32 19.5t20.5 29t11.5 36.5l16 82q8 37 -9 59t-56 22h-10
q-12 0 -9 11l10 51q2 11 13 11h14q38 0 59 23t22 56q1 30 -17.5 50.5t-49.5 20.5q-42 0 -66.5 -25t-31.5 -61l-87 -446q-3 -13 -15 -13h-70q-13 0 -10 12l86 443q7 37 24 68.5t42.5 54.5t58.5 36t74 13q74 0 117 -38t42 -102z" />
    <glyph glyph-name="registered" unicode="&#xae;" horiz-adv-x="409" 
d="M396 439q0 -32 -12.5 -56.5t-34 -41.5t-51.5 -25.5t-65 -8.5q-71 0 -116 35t-45 97v73q0 62 45 97.5t116 35.5q35 0 65 -9t51.5 -26t34 -41.5t12.5 -56.5v-73zM362 514q0 42 -32.5 71t-96.5 29q-65 0 -96 -30t-31 -70v-76q0 -40 31 -70t96 -30q64 0 96.5 29.5t32.5 70.5
v76zM303 395q6 -13 -7 -13h-21q-4 1 -6.5 2t-4.5 6l-27 63q-1 5 -6 5h-16v-68q0 -8 -7 -8h-21q-8 0 -8 7v172q0 8 8 8h55q30 0 44.5 -17t14.5 -40q0 -14 -7 -26t-18 -19q-5 -2 -2 -8zM266 512q0 25 -24 25h-28v-49h28q11 0 17.5 6.5t6.5 17.5z" />
    <glyph glyph-name="copyright" unicode="&#xa9;" horiz-adv-x="707" 
d="M682 240q0 -58 -22 -102.5t-62 -75t-94.5 -46.5t-118.5 -16q-65 0 -119 16.5t-93 48t-60.5 75.5t-21.5 100v136q0 55 21.5 100t60.5 76t93 48t119 17q64 0 118.5 -16t94.5 -47t62 -75.5t22 -102.5v-136zM631 379q0 40 -16 75.5t-47 61.5t-77 41t-107 15t-106.5 -15.5
t-75.5 -42t-45 -61.5t-15 -74v-141q0 -38 15 -73t45 -61.5t75.5 -42.5t106.5 -16t107 15.5t77 42t47 61.5t16 74v141zM498 182q-20 -30 -48 -43t-60 -13q-53 0 -86 28.5t-33 81.5v132q0 51 33.5 80.5t86.5 29.5q35 0 62.5 -13.5t42.5 -41.5q4 -9 -4 -13l-30 -21q-9 -6 -14 4
q-20 33 -57 33q-26 0 -43 -16t-17 -42v-132q0 -25 16.5 -41t42.5 -16q19 0 33 8.5t24 22.5q3 4 6.5 6t9.5 -2l33 -21q3 -2 3.5 -5.5t-1.5 -5.5z" />
    <glyph glyph-name="Sigma" unicode="&#x3a3;" horiz-adv-x="424" 
d="M378 87q13 0 12 -15l-12 -57q-3 -15 -16 -15h-345q-13 0 -17 6.5t-2 14.5l6 33q2 8 6 15.5t9 15.5l152 216q5 8 8.5 15.5t-1.5 18.5l-69 192q-2 6 -4 14.5t0 16.5l8 37q2 11 8 16.5t21 5.5h308q15 0 12 -13l-11 -58q-3 -15 -17 -15h-206q-8 0 -10.5 -3.5t-0.5 -8.5
l67 -174q6 -16 4 -26t-10 -22q-14 -19 -32 -45t-37 -53.5t-37 -53.5t-32 -45q-10 -13 6 -13h232z" />
    <glyph glyph-name="section" unicode="&#xa7;" horiz-adv-x="461" 
d="M315 587q-41 0 -62.5 -15.5t-21.5 -40.5q0 -16 16 -28t53 -27q28 -11 52.5 -23.5t42 -27t27.5 -33t10 -41.5q0 -48 -30 -80t-75 -50q-5 -2 -10 -2t-8 7l-17 41q-6 15 7 21q18 8 28.5 20.5t10.5 29.5q0 22 -22 36t-57 28q-54 21 -86 48t-32 72q0 33 13.5 59t37 44t55.5 27
t70 9q19 0 39.5 -4t40 -12t36.5 -20.5t29 -28.5q6 -11 -5 -22l-26 -30q-7 -7 -12.5 -5.5t-13.5 9.5q-17 17 -42 28t-48 11zM208 124q-25 9 -47 20.5t-38 26t-25 32t-9 38.5q0 42 29.5 77t79.5 52q6 2 8 2q5 0 10 -9l19 -39q5 -9 0 -14.5t-13 -10.5q-14 -8 -27.5 -18
t-13.5 -27q0 -16 16.5 -27.5t51.5 -25.5q29 -11 54.5 -23t45 -27t31 -34.5t11.5 -46.5q0 -32 -14 -58t-39 -44.5t-59 -29t-73 -10.5q-50 0 -95 17t-72 52q-5 6 -2.5 12.5t8.5 12.5l34 31q7 8 12 6t12 -10q16 -18 42 -32.5t55 -14.5q15 0 32 3t31 10t23 18t9 28
q0 22 -24.5 35.5t-62.5 27.5z" />
    <glyph glyph-name="degree" unicode="&#xb0;" horiz-adv-x="312" 
d="M276 522q0 -24 -10 -45t-27 -36.5t-40 -24.5t-48 -9q-26 0 -47.5 9t-38 24.5t-25.5 36.5t-9 45t9 45t25.5 36t38 24t47.5 9q58 0 91.5 -33t33.5 -81zM151 582q-23 0 -41 -17t-18 -43t17 -44t42 -18t43.5 18t18.5 44q0 25 -17 42.5t-45 17.5z" />
    <glyph glyph-name="periodcentered" unicode="&#xb7;" horiz-adv-x="221" 
d="M110 175q-24 0 -41.5 17t-17.5 42q0 24 17.5 41.5t41.5 17.5q25 0 43 -17.5t18 -40.5q0 -25 -17.5 -42.5t-43.5 -17.5z" />
    <glyph glyph-name="plusminus" unicode="&#xb1;" horiz-adv-x="486" 
d="M476 336q-5 -17 -21 -17h-147q-9 0 -10 -8l-28 -145q-3 -16 -21 -16h-39q-18 0 -15 16l29 145q0 8 -8 8h-143q-17 0 -14 16l7 35q3 18 21 18h143q5 0 7 1t3 6l28 145q3 17 20 17h40q19 0 14 -17l-27 -143q-2 -6 -0.5 -7.5t7.5 -1.5h146q8 0 12 -5t2 -13zM420 53
q-3 -18 -21 -18h-382q-16 0 -13 17l7 34q3 18 21 18h381q17 0 14 -18z" />
    <glyph glyph-name="yen" unicode="&#xa5;" horiz-adv-x="486" 
d="M78 303q-11 0 -11 9v3l8 40q1 12 15 12h64q9 0 9 10q0 2 -1 3l-52 218q-2 8 0.5 13.5t13.5 5.5h63q10 0 14 -2t6 -12l52 -246q2 -8 6 -8q3 0 8 7l147 245q5 9 10.5 12.5t16.5 3.5h70q12 0 12 -9q0 -5 -3 -9l-140 -221q-3 -3 -3 -6q0 -5 7 -5h74q8 0 9.5 -3t0.5 -9l-7 -39
q-3 -13 -15 -13h-374zM443 258q10 0 10 -10v-2l-8 -40q-3 -12 -14 -12h-132q-9 0 -11.5 -4.5t-4.5 -11.5l-33 -166q-2 -12 -14 -12h-69q-11 0 -11 8v4l32 165q4 16 -12 16h-120q-10 0 -10 9v4l8 40q2 12 15 12h374z" />
    <glyph glyph-name="Phi" unicode="&#x3a6;" horiz-adv-x="584" 
d="M536 237q-6 -36 -21 -67t-40.5 -55t-63.5 -38t-91 -15q-10 0 -11 -9l-7 -38q-3 -15 -17 -15h-67q-14 0 -12 14l8 39q2 9 -8 11q-77 17 -112.5 52.5t-35.5 100.5q0 19 4 35l30 150q7 36 25 67t45.5 54t63.5 37.5t80 16.5q8 0 10 6l5 20q3 14 17 14h65q14 0 13 -13l-4 -22
q-1 -4 5 -6q33 -5 61 -17t48.5 -30t32 -42.5t11.5 -52.5q0 -15 -3 -33zM471 405q5 32 -13.5 56t-56.5 28q-7 0 -7 -5l-65 -329q0 -7 7 -6q48 1 71 23.5t31 61.5zM297 483q1 7 -6 7q-48 -6 -71.5 -29.5t-30.5 -58.5l-34 -168q-6 -31 9.5 -54t59.5 -31q2 0 4.5 0.5t3.5 5.5z
" />
    <glyph glyph-name="Psi" unicode="&#x3a8;" horiz-adv-x="583" 
d="M506 604q2 14 18 14h69q14 0 12 -13l-60 -307q-7 -35 -22.5 -66.5t-41 -55.5t-63 -39t-87.5 -17q-7 0 -9.5 -3.5t-4.5 -8.5l-19 -94q-1 -14 -16 -14h-68q-15 0 -12 13l18 95q2 12 -8 12q-35 3 -64.5 18t-50 39t-29 55t-1.5 66l60 306q3 14 17 14h69q5 0 9 -3.5t3 -9.5
l-61 -314q-7 -32 11 -54.5t53 -27.5q7 -1 9 1.5t4 7.5q7 38 17 90t20.5 107.5t20.5 107.5t18 90q3 14 18 14h68q15 0 12 -14l-77 -395q-2 -7 1 -9.5t8 -1.5q35 5 62.5 25.5t35.5 58.5q6 29 14 70.5t17 86t17 86t13 70.5z" />
    <glyph glyph-name="Omega" unicode="&#x3a9;" horiz-adv-x="516" 
d="M453 13q-1 -13 -15 -13h-163q-10 0 -12.5 3t-1.5 10q3 18 6.5 37t7.5 37q3 11 14 15q32 7 52 31t26 55l45 243q5 21 2 40.5t-14.5 34.5t-31 24t-46.5 9q-34 0 -56.5 -11t-37 -28t-22 -37t-11.5 -37l-44 -237q-5 -28 2.5 -52t39.5 -35q8 -3 9.5 -7.5t-0.5 -11.5l-13 -69
q-3 -9 -6 -11.5t-12 -2.5h-152q-12 0 -12 11v2l12 60q3 12 16 12h42q2 0 2 2q0 3 -3 6q-10 10 -15 23.5t-7 28.5t-1 31t3 30l45 234q17 89 77.5 137.5t153.5 48.5q39 0 72.5 -11.5t57.5 -32.5t37.5 -50.5t13.5 -65.5q0 -18 -3 -36l-37 -200q-3 -18 -7.5 -38.5t-11.5 -40
t-19 -36.5t-30 -27l-1 -2q0 -1 1 -1h47q14 0 13 -13l-12 -59v0z" />
    <glyph glyph-name="guillemotleft" unicode="&#xab;" horiz-adv-x="513" 
d="M347 205q-7 -8 -7 -11.5t3 -8.5l88 -141q6 -8 0.5 -16t-14.5 -8h-52q-12 0 -18.5 4.5t-13.5 15.5l-86 139q-8 14 -5.5 24t13.5 21l144 144q7 7 14.5 11.5t21.5 4.5h62q12 0 14 -6.5t-6 -14.5zM160 205q-8 -8 -8 -11.5t3 -8.5l89 -141q5 -8 -0.5 -16t-13.5 -8h-53
q-12 0 -18 4.5t-14 15.5l-86 139q-8 14 -5.5 24t13.5 21l144 144q7 7 14.5 11.5t21.5 4.5h62q13 0 14.5 -6.5t-6.5 -14.5z" />
    <glyph glyph-name="guillemotright" unicode="&#xbb;" horiz-adv-x="513" 
d="M460 224q8 -14 5.5 -24t-13.5 -21l-144 -144q-7 -7 -14.5 -11.5t-21.5 -4.5h-61q-12 0 -14 6.5t7 14.5l156 157q7 8 7 11.5t-3 8.5l-89 142q-5 8 0.5 16t13.5 8h53q12 0 18.5 -4.5t13.5 -15.5zM273 224q8 -14 5.5 -24t-13.5 -21l-144 -144q-7 -7 -14.5 -11.5t-21.5 -4.5
h-62q-12 0 -14 6.5t7 14.5l156 157q8 8 7.5 11.5t-3.5 8.5l-89 142q-5 8 0.5 16t14.5 8h52q13 0 19 -4.5t14 -15.5z" />
    <glyph glyph-name="ellipsis" unicode="&#x2026;" horiz-adv-x="709" 
d="M568 109q25 0 40 -17t10 -42t-26 -42t-47 -17q-24 0 -38.5 17.5t-9.5 41.5t26 41.5t45 17.5zM336 109q26 0 40 -17t9 -42t-25 -42t-46 -17q-25 0 -39 17.5t-9 41.5t25.5 41.5t44.5 17.5zM100 109q26 0 40 -17t9 -42t-25 -42t-46 -17q-25 0 -39 17.5t-9 41.5t25.5 41.5
t44.5 17.5z" />
    <glyph glyph-name="oe" unicode="&#x153;" horiz-adv-x="708" 
d="M330 278q8 39 -13.5 63.5t-60.5 24.5q-38 0 -65 -25t-35 -63l-22 -114q-8 -38 11 -63t61 -25q39 0 66 24t35 64zM688 333q0 -52 -26.5 -83.5t-66.5 -48.5t-87 -23t-88 -7q-12 0 -13 -11q-1 -6 -2.5 -13.5t-1.5 -14.5q0 -23 15.5 -39.5t59.5 -16.5q29 0 55 17t42 32
q14 13 24 4l38 -34q6 -6 8.5 -11.5t-5.5 -13.5q-36 -41 -76.5 -59t-94.5 -18q-38 0 -67.5 11t-50.5 29q-8 7 -12 8t-12 -6q-27 -21 -58 -31t-73 -10t-73.5 14t-51.5 38t-27.5 57t0.5 72l18 104q15 76 64.5 123t136.5 47q37 0 68 -11.5t54 -31.5q7 -5 10.5 -5.5t11.5 5.5
q55 42 139 42q26 0 51.5 -7t45.5 -21t32.5 -35.5t12.5 -51.5zM602 317q0 20 -13 35.5t-44 15.5q-49 0 -77 -22t-36 -55l-8 -34q-3 -12 11 -10q28 0 57.5 3.5t54 12t40 21.5t15.5 33z" />
    <glyph glyph-name="endash" unicode="&#x2013;" horiz-adv-x="500" 
d="M481 213q-2 -12 -14 -12h-435q-13 0 -11 12l9 42q1 12 14 12h435q13 0 11 -11z" />
    <glyph glyph-name="afii00208" unicode="&#x2015;" horiz-adv-x="1000" 
d="M981 213q-2 -12 -15 -12h-934q-13 0 -11 12l9 42q1 12 14 12h935q13 0 11 -11z" />
    <glyph glyph-name="quotedblleft" unicode="&#x201c;" horiz-adv-x="332" 
d="M326 448q-3 -9 -10 -16.5t-18 -7.5h-66q-16 0 -18.5 7.5t3.5 20.5l87 180q5 11 12 14.5t15 3.5h29q11 0 12 -8t-1 -18zM185 448q-2 -9 -9 -16.5t-19 -7.5h-66q-16 0 -18.5 7.5t4.5 20.5l86 180q5 11 12 14.5t16 3.5h29q11 0 12 -8t-2 -18z" />
    <glyph glyph-name="quotedblright" unicode="&#x201d;" horiz-adv-x="332" 
d="M295 442q-5 -11 -12 -14.5t-16 -3.5h-28q-11 0 -12.5 8t0.5 18l46 176q2 10 9 17t19 7h66q16 0 18.5 -7.5t-3.5 -21.5zM154 442q-5 -11 -12 -14.5t-15 -3.5h-29q-11 0 -12 8.5t1 17.5l46 176q2 10 9 17t19 7h66q15 0 17.5 -7.5t-4.5 -21.5z" />
    <glyph glyph-name="quoteleft" unicode="&#x2018;" horiz-adv-x="204" 
d="M189 448q-3 -9 -10 -16.5t-18 -7.5h-67q-16 0 -18.5 7.5t4.5 20.5l86 180q5 11 12 14.5t16 3.5h29q11 0 12 -8t-1 -18z" />
    <glyph glyph-name="quoteright" unicode="&#x2019;" horiz-adv-x="207" 
d="M163 442q-5 -11 -12 -14.5t-16 -3.5h-28q-12 0 -13.5 8.5t0.5 17.5l46 176q3 10 10 17t19 7h65q17 0 19.5 -7.5t-4.5 -21.5z" />
    <glyph glyph-name="divide" unicode="&#xf7;" horiz-adv-x="486" 
d="M342 414q-5 -26 -27 -44.5t-50 -18.5t-43 18.5t-10 44.5t28 45t49 19q27 0 42.5 -18.5t10.5 -45.5zM273 62q-5 -25 -27 -44t-50 -19q-27 0 -42.5 18t-10.5 45q5 26 28 44.5t49 18.5q27 0 42 -18.5t10 -44.5h1zM444 226q-4 -22 -28 -22h-359q-25 0 -20 21l5 28q5 20 28 20
h359q25 0 20 -20z" />
    <glyph glyph-name="alpha" unicode="&#x3b1;" horiz-adv-x="463" 
d="M363 14q-1 -5 -3.5 -9.5t-12.5 -4.5h-69q-13 0 -9 11l3 12q1 6 -3 8.5t-11 -4.5q-17 -17 -42 -24t-48 -7q-37 0 -65.5 11.5t-47 33t-25.5 51.5t0 67l21 122q7 35 21 65.5t37 53t55.5 35t75.5 12.5q28 0 54 -7.5t44 -27.5q4 -4 8 -3t6 7l3 16q4 9 12 9h66q14 0 11 -12z
M320 280q3 16 -1 31.5t-14.5 27t-25.5 18.5t-34 7q-42 0 -66.5 -24.5t-32.5 -59.5l-23 -121q-8 -40 12.5 -63t58.5 -23q40 0 67.5 25.5t34.5 60.5z" />
    <glyph glyph-name="beta" unicode="&#x3b2;" horiz-adv-x="469" 
d="M459 502q0 -42 -19 -83t-59 -61q-8 -4 -1 -7q16 -9 26 -22.5t15 -29t5.5 -31.5t-2.5 -31l-12 -83q-15 -82 -64.5 -121t-126.5 -39q-30 0 -54 8.5t-40 20.5q-10 7 -12 -1l-30 -155q-2 -13 -14 -13h-70q-13 0 -11 12l112 597q7 37 24 69t42.5 56t60 37.5t76.5 13.5
q76 0 115 -37t39 -100zM364 483q1 30 -16 51t-51 21q-41 0 -66 -24.5t-33 -60.5l-55 -309q-3 -18 0.5 -33.5t13 -27t24 -18.5t32.5 -7q86 0 104 86l13 81q8 37 -13 58t-59 21h-35q-12 0 -9 12l10 51q1 12 13 12h39q18 0 34 7t28 19t19 27.5t7 33.5z" />
    <glyph glyph-name="psi" unicode="&#x3c8;" horiz-adv-x="561" 
d="M508 162q-7 -35 -23 -65.5t-42.5 -53.5t-62 -37.5t-81.5 -15.5q-13 -1 -14 -13l-28 -145q-3 -13 -16 -13h-69q-12 0 -10 12l29 146q2 12 -11 13q-37 2 -66 17.5t-48 40t-26.5 56t-0.5 67.5l51 257q2 13 14 13h70q12 0 11 -12l-52 -267q-8 -36 10.5 -61t53.5 -28
q11 0 14 11l71 369q3 13 16 13h69q13 0 10 -13l-72 -368q-1 -12 10 -12q35 5 63 30t35 58l52 267q2 13 15 13h69q12 0 11 -12z" />
    <glyph glyph-name="delta" unicode="&#x3b4;" horiz-adv-x="458" 
d="M327 269q6 31 -7.5 58t-46.5 39q-9 3 -13 3t-15 -3q-42 -11 -63.5 -40t-28.5 -62l-19 -103q-4 -19 0.5 -34.5t14.5 -27t25.5 -17.5t33.5 -6q36 0 63 23t35 63zM304 639q36 0 74.5 -8t64.5 -22q8 -4 10.5 -8t-2.5 -15l-18 -41q-5 -12 -12.5 -12t-16.5 3q-21 8 -51 15
t-50 7q-13 0 -25.5 -2t-23 -7.5t-17.5 -14.5t-7 -23q0 -11 10.5 -22t25 -20.5t30 -17.5t24.5 -12q22 -11 43 -26.5t35.5 -37t20.5 -50.5t-2 -66l-16 -97q-17 -83 -67.5 -126t-134.5 -43q-41 0 -74 13.5t-54.5 37.5t-30 56t-0.5 69l19 96q11 54 37 91t71 54q8 3 8.5 6t-4.5 8
q-23 17 -31 39t-8 38q0 38 15 64t39.5 42.5t55.5 24t62 7.5z" />
    <glyph glyph-name="epsilon" unicode="&#x3b5;" horiz-adv-x="412" 
d="M409 367q8 -12 -8 -25l-40 -28q-9 -7 -16.5 -3t-11.5 9q-13 23 -33.5 34.5t-45.5 11.5q-41 0 -66 -23.5t-33 -59.5l-2 -9q-2 -9 7 -9h123q5 0 8 -2.5t1 -8.5l-10 -51q-3 -11 -15 -11h-120q-9 0 -11 -7l-6 -27q-4 -16 -2.5 -31t10 -26.5t24 -18.5t40.5 -7q32 0 58 17
t45 34q14 12 27 2l34 -26q8 -7 8.5 -12.5t-4.5 -12.5q-36 -45 -77 -64t-97 -19q-41 0 -74 12t-54.5 33.5t-30 52.5t-0.5 70l22 114q15 79 61.5 125.5t136.5 46.5q48 0 88 -19.5t64 -61.5z" />
    <glyph glyph-name="phi" unicode="&#x3c6;" horiz-adv-x="559" 
d="M508 159q-6 -35 -21.5 -65t-41.5 -52.5t-63 -36t-85 -15.5q-8 0 -10 -3.5t-3 -8.5l-29 -146q-1 -13 -15 -13h-69q-13 0 -10 12l28 146q2 13 -9 13q-33 2 -62.5 15.5t-50 37t-30 55.5t-1.5 71l23 113q10 51 42.5 92.5t84.5 59.5q9 3 14.5 2.5t10.5 -12.5l20 -48
q5 -12 -14 -19q-23 -11 -40.5 -30.5t-22.5 -42.5l-24 -123q-3 -16 0.5 -31.5t12.5 -27.5t23 -20t31 -9q10 0 12 11l68 351q3 13 16 13h72q40 0 73.5 -11.5t56.5 -33.5t32.5 -54t2.5 -72zM435 276q7 32 -6.5 56t-49.5 29q-3 1 -5.5 1.5t-5.5 0.5q-11 0 -12 -10l-52 -268
q-3 -13 10 -11q42 6 66.5 28t32.5 57z" />
    <glyph glyph-name="gamma" unicode="&#x3b3;" horiz-adv-x="402" 
d="M209 35q-8 -13 -12 -27.5t-6 -24.5l-29 -150q-2 -14 -18 -14h-68q-8 0 -10 4.5t-1 9.5l36 180q5 26 1 43l-67 366q-1 8 2.5 13t12.5 5h70q10 0 12.5 -4.5t3.5 -10.5l39 -270q1 -7 4.5 -7t6.5 7l91 158q10 18 15.5 32.5t7 26.5t1.5 22.5v21.5q0 7 3 15.5t17 8.5h56
q15 0 18.5 -6t3.5 -17q0 -18 -1 -33.5t-4 -29.5t-8.5 -28.5t-15.5 -31.5z" />
    <glyph glyph-name="eta" unicode="&#x3b7;" horiz-adv-x="471" 
d="M351 -133q-3 -13 -15 -13h-70q-13 0 -10 12l81 411q8 38 -8.5 63t-61.5 25q-20 0 -37 -7.5t-31 -20t-23.5 -29t-13.5 -35.5l-50 -260q-1 -13 -15 -13h-69q-14 0 -11 12l81 416q1 13 14 13h69q12 0 9 -12l-3 -17q-2 -7 2.5 -8t9.5 4q18 17 47.5 28t55.5 11
q77 0 110.5 -46.5t19.5 -121.5z" />
    <glyph glyph-name="iota" unicode="&#x3b9;" horiz-adv-x="234" 
d="M144 150q-5 -29 0 -47t38 -23q7 -1 8 -5t0 -11l-12 -60q-2 -8 -7.5 -9.5t-10.5 -1.5q-41 3 -65.5 16t-36.5 34t-13 49t5 61l54 275q2 13 14 13h69q14 0 11 -12z" />
    <glyph glyph-name="xi" unicode="&#x3be;" horiz-adv-x="373" 
d="M439 627q12 0 18 -4t4 -16l-6 -32q-2 -11 -5.5 -17.5t-14.5 -8.5q-51 -12 -96 -27t-78.5 -33t-52.5 -38t-19 -42q0 -28 23 -44t58 -16h83q19 0 16 -15l-8 -43q-3 -18 -23 -18h-83q-22 0 -46 -9t-44 -25.5t-33 -39t-13 -49.5q0 -21 12 -34.5t30 -22t39 -14t40 -10.5
t38 -11.5t33 -15.5t23 -21.5t9 -30.5q0 -17 -15.5 -52.5t-62.5 -95.5q-5 -7 -11.5 -10.5t-16.5 1.5l-41 22q-17 6 -5 26q12 18 19.5 29.5t12 19t6 11.5t2.5 6q1 6 1 11.5t-5 11.5t-15.5 11t-28.5 9q-32 7 -61.5 18.5t-52.5 29t-37 42t-14 56.5q0 28 9 54.5t25.5 49t39.5 40
t51 27.5q7 2 1 5q-34 13 -47 36t-12 50q0 24 11 45t28.5 38t39.5 31t44 23q5 2 4 4.5t-7 2.5h-97q-19 0 -16 19l10 50q3 16 22 16h315z" />
    <glyph glyph-name="kappa" unicode="&#x3ba;" horiz-adv-x="452" 
d="M387 18q-4 -18 -18 -18h-65q-16 0 -14 15l13 91q3 19 2 36t-8.5 29.5t-22 20t-38.5 7.5q-46 0 -71.5 -27.5t-33.5 -64.5l-18 -95q-3 -12 -14 -12h-71q-13 0 -10 12l81 416q2 13 14 13h70q13 0 10 -12l-27 -137q-3 -12 5 -12q3 0 7 4q31 28 54 49.5t41.5 38.5t34 32
t31.5 29q5 5 9 6t12 1h91q9 0 9.5 -5.5t-4.5 -9.5l-156 -142q-3 -2 -5 -6q0 -3 5 -5q36 -4 57.5 -18.5t33 -37t13 -51t-3.5 -60.5z" />
    <glyph glyph-name="lambda" unicode="&#x3bb;" horiz-adv-x="478" 
d="M378 13q-3 -13 -15 -13h-69q-12 0 -10 12l44 261q3 16 0.5 31.5t-11 27.5t-23 19t-36.5 7q-26 0 -44 -8.5t-29.5 -22t-18.5 -30.5t-10 -34l-46 -250q-1 -13 -15 -13h-69q-14 0 -11 12l46 251q7 36 20 68t35 56t52.5 38t71.5 14q23 0 52.5 -7.5t47.5 -24.5q8 -8 12 -5t5 5
l13 64q7 35 -10 59.5t-66 24.5q-18 0 -39 -4t-49 -15q-11 -5 -20 -3t-11 10l-12 43q-3 11 1 16t14 10q33 15 69.5 21t68.5 6q39 0 70 -12.5t51 -34.5t27.5 -53t0.5 -67z" />
    <glyph glyph-name="mu" unicode="&#xb5;" horiz-adv-x="478" 
d="M377 12q-2 -12 -14 -12h-68q-12 0 -9 12l2 11q1 7 -3.5 7.5t-9.5 -3.5q-20 -15 -41.5 -24t-53.5 -9q-31 0 -54 18q-14 12 -16 -1l-36 -179q-1 -13 -15 -13h-69q-13 0 -11 12q6 32 15.5 80t20.5 104t22.5 116t22.5 116t20 103t15 78q1 12 15 12h69q12 0 11 -12l-52 -268
q-7 -35 12.5 -59.5t57.5 -24.5q40 0 67.5 24.5t35.5 59.5l52 268q1 12 15 12h69q12 0 11 -12z" />
    <glyph glyph-name="mu" unicode="&#x3bc;" horiz-adv-x="478" 
d="M377 12q-2 -12 -14 -12h-68q-12 0 -9 12l2 11q1 7 -3.5 7.5t-9.5 -3.5q-20 -15 -41.5 -24t-53.5 -9q-31 0 -54 18q-14 12 -16 -1l-36 -179q-1 -13 -15 -13h-69q-13 0 -11 12q6 32 15.5 80t20.5 104t22.5 116t22.5 116t20 103t15 78q1 12 15 12h69q12 0 11 -12l-52 -268
q-7 -35 12.5 -59.5t57.5 -24.5q40 0 67.5 24.5t35.5 59.5l52 268q1 12 15 12h69q12 0 11 -12z" />
    <glyph glyph-name="nu" unicode="&#x3bd;" horiz-adv-x="415" 
d="M286 313q9 19 13.5 33.5t7 26t3 22t0.5 21.5q0 7 3 15.5t17 8.5h53q16 0 19.5 -6t3.5 -17q0 -18 -1.5 -33t-4.5 -29.5t-8.5 -29t-14.5 -31.5l-147 -282q-7 -13 -23 -13h-67q-11 0 -14.5 2.5t-5.5 11.5l-86 410q-1 8 2.5 13t12.5 5h69q10 0 12.5 -4.5t3.5 -10.5l53 -293
q1 -5 4 -5t5 4z" />
    <glyph glyph-name="omicron" unicode="&#x3bf;" horiz-adv-x="458" 
d="M402 164q-15 -82 -64.5 -126t-139.5 -44q-42 0 -74.5 14t-53 38.5t-28.5 58.5t0 75l19 99q14 76 64 123t137 47q40 0 72.5 -12.5t54.5 -36t31 -56t2 -72.5zM328 272q8 39 -12.5 66.5t-59.5 27.5q-38 0 -65 -25t-35 -63l-22 -114q-3 -16 0 -32t12 -28.5t24 -20t36 -7.5
q39 0 66 24t35 64z" />
    <glyph glyph-name="pi" unicode="&#x3c0;" horiz-adv-x="469" 
d="M377 13q-1 -13 -15 -13h-68q-13 0 -10 12l64 333q3 14 -11 14h-146q-14 0 -15 -12l-65 -334q-3 -13 -16 -13h-69q-13 0 -11 12l81 416q3 13 16 13h335q14 0 11 -12z" />
    <glyph glyph-name="rho" unicode="&#x3c1;" horiz-adv-x="455" 
d="M404 170q-16 -86 -67.5 -131.5t-134.5 -45.5q-25 0 -44.5 6t-36.5 21q-12 10 -15 0l-36 -188q-3 -13 -16 -13h-69q-11 0 -11 12l87 446q16 80 67.5 126t139.5 46q37 0 69 -11.5t54 -33t31.5 -52t2.5 -69.5zM329 278q8 38 -12 63t-61 25q-38 0 -65 -25t-35 -64l-22 -113
q-8 -37 11 -62.5t58 -25.5t68 25t36 62z" />
    <glyph glyph-name="sigma" unicode="&#x3c3;" horiz-adv-x="461" 
d="M479 372q-3 -12 -15 -12h-53q-8 0 -10 -3.5t2 -8.5q14 -16 17 -35.5t-1 -39.5l-22 -110q-15 -78 -66 -123.5t-136 -45.5q-41 0 -74 13t-54.5 35.5t-30 53.5t-1.5 67l21 108q7 37 23.5 68.5t41.5 54t57.5 35t72.5 12.5h228q13 0 11 -12zM323 271q7 37 -12.5 62.5
t-59.5 25.5q-38 0 -65.5 -25.5t-35.5 -61.5l-21 -109q-7 -36 12.5 -61.5t57.5 -25.5q40 0 67.5 25t35.5 62z" />
    <glyph glyph-name="tau" unicode="&#x3c4;" horiz-adv-x="330" 
d="M332 376q-3 -13 -16 -13h-85q-11 0 -14 -11l-42 -216q-5 -23 3 -39t35 -16q9 0 20.5 1.5t19.5 3.5q13 4 17 2t4 -10l1 -54q0 -11 -5.5 -15t-13.5 -6q-14 -4 -34.5 -6t-42.5 -2q-62 0 -86.5 35.5t-13.5 89.5l45 232q2 11 -10 11h-57q-13 0 -11 12l10 53q3 13 15 13h260
q14 0 11 -12z" />
    <glyph glyph-name="theta" unicode="&#x3b8;" horiz-adv-x="459" 
d="M405 163q-15 -76 -64 -122.5t-140 -46.5q-43 0 -76 13.5t-53.5 37.5t-28 58.5t0.5 76.5l56 292q14 76 66.5 122t137.5 46q42 0 75 -12t54.5 -34.5t29.5 -53.5t1 -68zM369 472q4 17 0 32.5t-14 27t-25 18.5t-33 7q-38 0 -66 -25t-35 -60q-1 -4 -4 -18.5t-6 -31.5
q-4 -19 -8 -43q-3 -15 11 -15h147q8 0 10 2.5t4 9.5zM331 274q3 12 -10 12h-150q-11 0 -14 -12q-2 -8 -5.5 -26.5t-6.5 -37.5q-4 -23 -8 -48q-7 -37 10.5 -61.5t58.5 -24.5q47 0 71.5 26t31.5 60z" />
    <glyph glyph-name="omega" unicode="&#x3c9;" horiz-adv-x="642" 
d="M589 162q-14 -78 -57.5 -123t-121.5 -45q-42 0 -70.5 15t-40.5 37q-4 8 -9 5t-9 -7q-21 -21 -50.5 -35.5t-63.5 -14.5q-37 0 -64 14t-43.5 37.5t-22 55t1.5 66.5l23 116q7 37 24 67.5t43 52.5t59.5 34t73.5 11q10 0 15 -2.5t3 -13.5l-11 -55q-2 -8 -8 -8q-38 -3 -60 -20
t-34 -38.5t-16 -43.5t-6 -34l-13 -67q-8 -43 5 -66t46 -23q16 0 30.5 8t25 20t17.5 27t10 29l28 143q1 12 14 12h67q13 0 11 -11l-28 -144q-3 -14 -1.5 -29t7.5 -27.5t17.5 -20.5t28.5 -8q37 0 56.5 24t27.5 66l22 114q7 34 -11 59t-55 28q-14 0 -11 11l11 57q3 13 18 13
q35 -1 64 -13t48.5 -34t28 -52.5t1.5 -67.5z" />
    <glyph glyph-name="sigma1" unicode="&#x3c2;" horiz-adv-x="389" 
d="M344 355q-5 -10 -12.5 -10.5t-14.5 1.5q-19 9 -46.5 16t-50.5 7q-29 0 -51.5 -11.5t-22.5 -41.5q0 -19 17.5 -30t42.5 -22q24 -10 49 -21.5t46 -26.5t34 -35t13 -48q0 -35 -14 -61.5t-37.5 -43.5t-55 -25.5t-66.5 -8.5q-26 0 -51.5 5t-49 16.5t-42 30t-28.5 44.5
q-2 6 -0.5 9.5t9.5 7.5l51 25q7 4 10.5 2t7.5 -7q13 -26 38 -40t54 -14q14 0 27.5 3t24.5 9.5t18 17t7 25.5q0 19 -22 30.5t-49 22.5q-18 7 -40.5 17t-42.5 24t-33.5 34.5t-13.5 48.5q0 40 15.5 67.5t39.5 44.5t53.5 24.5t58.5 7.5q42 0 77 -8.5t58 -20.5q6 -3 10.5 -8
t-0.5 -16z" />
    <glyph glyph-name="chi" unicode="&#x3c7;" horiz-adv-x="416" 
d="M354 18q3 -8 0 -13t-14 -5h-62q-8 0 -13.5 2t-10.5 12l-53 134q-3 6 -5 6t-4.5 -2.5l-4.5 -4.5l-103 -133q-8 -10 -15 -12t-15 -2h-69q-13 0 -13 6.5t5 11.5l162 195q6 7 8 11.5t2 8.5t-3 12l-77 178q-2 5 -1 11t14 6h62q11 0 15.5 -1.5t8.5 -11.5q11 -29 22 -58.5
t22 -58.5q2 -5 5 -5t6 4l92 118q8 10 12.5 11.5t15.5 1.5h71q11 0 11 -6t-4 -11q-37 -45 -74 -89t-74 -89q-9 -10 -9 -19q0 -5 3 -11z" />
    <glyph glyph-name="upsilon" unicode="&#x3c5;" horiz-adv-x="458" 
d="M404 160q-15 -76 -66.5 -122.5t-137.5 -46.5q-41 0 -74 12t-54.5 34t-30 53t-0.5 69l52 269q3 13 15 13h69q12 0 11 -13l-52 -268q-8 -35 10 -61t59 -26t68.5 25.5t35.5 60.5l52 269q2 13 15 13h70q13 0 10 -13z" />
    <glyph glyph-name="zeta" unicode="&#x3b6;" horiz-adv-x="439" 
d="M158 531q-20 0 -15 20l9 47q3 16 22 16h314q22 0 18 -21l-5 -28q-5 -22 -20 -30q-25 -14 -61 -37t-75 -53t-77.5 -64t-69.5 -70t-50 -71.5t-19 -67.5q0 -25 14.5 -44t37.5 -33t52 -25.5t58 -21.5q37 -14 51 -32.5t12 -41.5q-1 -9 -3.5 -21.5t-10 -29t-21.5 -39t-38 -51.5
q-5 -7 -11.5 -10.5t-14.5 0.5l-46 24q-14 8 -3 24l29 47q14 22 10.5 34t-37.5 25q-25 10 -56 23t-58.5 33t-46 49t-18.5 71q0 57 30 111.5t74.5 103.5t96.5 89.5t96 67.5q4 2 4.5 5t-5.5 3z" />
    <glyph glyph-name="AE" unicode="&#xc6;" horiz-adv-x="716" 
d="M691 15q-3 -15 -14 -15h-347q-15 0 -15 14l17 117v9t-10 4h-168q-10 0 -13 -8l-62 -124q-5 -12 -19 -12h-67q-12 0 -12 11q0 5 3 11q73 141 148.5 289t148.5 290q2 5 7.5 10.5t16.5 5.5h427q6 0 10 -4t3 -11l-8 -56q0 -15 -15 -15h-222q-13 0 -15 -11l-19 -151
q-5 -10 9 -10h192q9 0 11 -4t1 -11l-9 -58q0 -14 -14 -14h-193q-11 0 -14 -12l-23 -161q-1 -13 11 -13h250q15 0 13 -14zM342 531q-5 0 -8.5 -3t-5.5 -6l-137 -285q-2 -3 -2 -5.5t5 -2.5h138q14 0 15 13l41 280q0 4 -0.5 6.5t-6.5 2.5h-39z" />
    <glyph glyph-name="Eth" unicode="&#xd0;" horiz-adv-x="502" 
d="M41 0q-16 0 -14 15l51 258q2 8 -8 8h-28q-14 0 -11 15l7 40q3 12 15 12h29q11 0 12 12l47 245q5 12 18 12h182q78 0 116.5 -37.5t38.5 -103.5q0 -11 -1.5 -23.5t-3.5 -24.5q-1 -5 -4.5 -24t-8 -44.5t-10.5 -55.5t-10.5 -55.5t-8 -44.5t-4.5 -24q-17 -91 -64 -135.5
t-138 -44.5h-202zM187 281q-5 0 -7 -3t-4 -8q-1 -2 -3.5 -15t-6 -31t-7.5 -39t-7.5 -39t-6 -31t-2.5 -15q-2 -13 11 -13h85q43 0 70.5 24t35.5 64l53 269q8 45 -14 66t-62 21h-82q-15 0 -16 -12l-32 -161q-3 -10 7 -10h68q14 0 11 -14l-8 -39q-2 -14 -15 -14h-68z" />
    <glyph glyph-name="Oslash" unicode="&#xd8;" horiz-adv-x="498" 
d="M444 173q-8 -40 -24 -73t-42 -56.5t-63.5 -36.5t-88.5 -13q-35 0 -64 8.5t-52 23.5q-6 5 -10.5 5.5t-10.5 -7.5l-18 -24q-8 -12 -17 -4l-23 18q-5 3 -5 6.5t6 11.5l23 30q11 14 5 24q-20 44 -8 101l51 262q16 83 70.5 130t144.5 47q62 0 109 -28q7 -5 11 -5t10 8l15 21
q5 7 8.5 9.5t11.5 -2.5l22 -17q9 -5 4 -14l-24 -33q-8 -11 -5.5 -16l4.5 -9q11 -21 14 -46.5t-3 -54.5zM393 422q2 6 0.5 10t-8.5 -5l-220 -300q-5 -7 -6.5 -10.5t2.5 -8.5q11 -14 29 -20.5t40 -6.5q51 0 79 24.5t36 66.5zM154 212q-2 -8 1 -8.5t6 3.5l212 292q8 11 5.5 16
t-5.5 7q-22 17 -60 17q-47 0 -76 -26.5t-37 -64.5z" />
    <glyph glyph-name="ae" unicode="&#xe6;" horiz-adv-x="713" 
d="M688 334q0 -53 -24.5 -85t-63 -48t-86.5 -18t-94 4q-10 2 -11 -1.5t-3 -5.5q-1 -2 -1.5 -8t-1 -12.5t-0.5 -12.5v-9q0 -11 3 -22t11 -20t22.5 -14.5t38.5 -5.5q25 0 53 16t45 33q8 8 13 8t11 -5l36 -35q7 -7 9 -11.5t-6 -13.5q-67 -75 -169 -75q-50 0 -83 16t-51 39
q-6 6 -11 1q-25 -24 -61.5 -39t-77.5 -15q-63 0 -102.5 35.5t-39.5 102.5q0 73 45.5 119.5t135.5 46.5q30 0 54.5 -6t39.5 -11q10 -3 12 6q10 39 -12 59t-63 20q-9 0 -20.5 -2t-24.5 -5t-25 -7.5t-22 -8.5q-22 -10 -27 9l-14 49q-2 17 12 22q30 13 66 20t72 7t68 -11.5
t54 -31.5q3 -3 6 -2.5t5 2.5q29 23 63.5 31.5t76.5 8.5q27 0 53 -7.5t45.5 -22t31.5 -36t12 -48.5zM220 223q-39 0 -62.5 -22.5t-23.5 -60.5q0 -25 17 -44.5t47 -19.5q49 0 80 30.5t36 78.5q1 10 -4 13q-6 5 -16.5 9.5t-23 8t-26 5.5t-24.5 2zM601 321q0 18 -16 32.5
t-41 14.5q-50 0 -78 -24t-36 -56l-3 -14q-3 -12 10 -15q31 -6 60.5 -5t52.5 9t37 22.5t14 35.5z" />
    <glyph glyph-name="ydieresis" unicode="&#xff;" horiz-adv-x="412" 
d="M58 -183q-11 0 -15 6t4 20l83 155h-13q-10 0 -13.5 2.5t-5.5 11.5l-48 411q-1 8 2.5 13t12.5 5h61q10 0 15 -4.5t6 -10.5l25 -335q0 -8 8 0l115 224q9 19 14.5 33t7.5 25.5t2.5 22t0.5 21.5q0 7 3 15.5t17 8.5h51q15 0 18.5 -6t3.5 -17q0 -36 -6 -62t-24 -60
q-38 -72 -64 -122t-45 -86.5t-33.5 -64.5t-28.5 -54.5t-30 -57.5t-38 -73q-4 -7 -12 -14t-22 -7h-52zM395 550q-5 -23 -22.5 -38t-40.5 -15t-36 15t-8 38q4 22 22.5 37.5t41.5 15.5q22 0 35 -15.5t8 -37.5zM226 550q-5 -23 -23 -38t-41 -15t-35.5 15t-7.5 38q5 22 23 37.5
t41 15.5t35.5 -15.5t7.5 -37.5z" />
    <glyph glyph-name="thorn" unicode="&#xfe;" horiz-adv-x="462" 
d="M409 164q-7 -35 -21 -66t-37.5 -54t-56 -36.5t-76.5 -13.5q-33 0 -56 9.5t-31 17.5q-8 6 -12.5 3.5t-6.5 -9.5l-36 -182q-3 -13 -16 -13h-67q-14 0 -11 13l154 792q3 12 16 12h66q10 0 10 -11l-2.5 -15t-7 -37t-9.5 -48t-9.5 -49t-8 -39t-3.5 -18q-1 -14 14 -4
q15 11 40.5 21t53.5 10q35 0 63.5 -12.5t47 -34.5t25 -53.5t-0.5 -68.5zM337 278q8 37 -9 62t-61 25q-38 0 -67 -25.5t-36 -61.5l-24 -114q-7 -37 14.5 -62.5t63.5 -25.5q38 0 63 25t33 63z" />
    <glyph glyph-name="oslash" unicode="&#xf8;" horiz-adv-x="458" 
d="M86 31q-4 2 -8 -2l-22 -22q-5 -5 -8 -7t-10 4l-16 17q-10 9 -2 18l30 29q4 4 2.5 6t-1.5 4q-6 18 -10.5 39.5t0.5 47.5l21 113q7 37 22 69t40.5 55t61.5 35.5t85 11.5q30 -1 54 -8.5t44 -20.5q5 -2 6.5 -2.5t6.5 4.5l19 19q7 7 11.5 6t9.5 -6l19 -18q9 -7 -2 -18l-20 -22
q-6 -6 -5.5 -9.5t0.5 -4.5q9 -20 11 -41t-3 -49l-20 -115q-18 -90 -70.5 -130t-133.5 -40q-33 0 -62 9.5t-50 27.5zM331 282q2 8 0 7.5t-5 -2.5l-177 -180q-3 -5 -1 -8q7 -11 23.5 -17t30.5 -6q43 0 69 23t36 65zM134 165q-2 -6 1.5 -4.5t6.5 4.5l168 175q3 3 2 5t-2 3
q-10 8 -23.5 13t-30.5 5q-38 0 -65 -24t-35 -64z" />
    <glyph glyph-name="cent" unicode="&#xa2;" horiz-adv-x="486" 
d="M391 77q-29 -35 -61.5 -55t-70.5 -24q-5 0 -12 -1.5t-10 -15.5l-7 -41q-2 -12 -14 -12h-37q-12 0 -10 11l8 44q2 11 -3 13.5t-10 3.5q-60 12 -89.5 55.5t-17.5 106.5l21 114q14 70 52.5 115t116.5 55q4 1 9 2.5t7 13.5l9 42q2 11 15 11h36q11 0 10 -11l-9 -46
q-3 -11 2 -13t9 -3q27 -9 53 -28t43 -51q8 -12 -9 -24l-39 -26q-11 -8 -19 -5t-11 10q-12 21 -33 34.5t-45 13.5q-40 0 -66.5 -24.5t-34.5 -60.5l-23 -121q-7 -37 9 -61t58 -24q41 0 65 18t44 39q8 9 19 1l41 -32q16 -11 4 -24z" />
    <glyph glyph-name="daggerdbl" unicode="&#x2021;" horiz-adv-x="467" 
d="M414 136q-3 -16 -19 -16h-133q-5 0 -8 -0.5t-5 -8.5l-44 -234q-2 -8 -5.5 -12t-14.5 -4h-40q-16 0 -13 15l45 236q2 6 -1 7t-8 1h-131q-16 0 -13 15l7 38q3 17 19 17h131q7 0 8.5 1.5t3.5 6.5l42 223q1 6 -0.5 8t-7.5 2h-131q-16 0 -13 15l7 38q3 17 19 17h131
q7 0 8.5 1.5t3.5 6.5l27 143q4 16 20 16h41q16 0 13 -15l-27 -143q-3 -9 8 -9h134q6 0 10 -4.5t2 -11.5l-7 -38q-3 -16 -19 -16h-133q-11 0 -12 -8l-43 -224q-1 -6 1.5 -7.5t7.5 -1.5h134q6 0 10 -4.5t2 -11.5z" />
    <glyph glyph-name="OE" unicode="&#x152;" horiz-adv-x="686" 
d="M636 14q-3 -14 -17 -14h-334q-14 -3 -30 -4.5t-32 -1.5q-45 0 -80.5 13t-58 37.5t-31 59.5t0.5 79l52 269q8 40 24 72t41 54.5t60 34.5t82 12q42 0 76 -8h309q6 0 10.5 -3.5t2.5 -11.5l-12 -56q-3 -15 -16 -15h-216q-13 0 -16 -11l-29 -152q0 -9 9 -9h193q16 0 11 -16v1
l-11 -59q-3 -13 -15 -13h-194q-13 0 -14 -12l-33 -166q0 -8 11 -8h256q6 0 10 -4t2 -10zM227 80q11 0 21 2l20 4q22 112 43.5 223t42.5 223q-8 4 -23.5 5.5t-25.5 1.5q-27 0 -44.5 -8t-29.5 -21.5t-19 -31.5t-11 -38l-53 -271q-8 -38 11.5 -63.5t67.5 -25.5z" />
    <glyph glyph-name="circumflex" unicode="&#x2c6;" horiz-adv-x="454" 
d="M427 526q3 -5 3 -10.5t-8 -10.5l-26 -14q-14 -8 -21 2l-68 85q-6 7 -14 1l-116 -87q-7 -5 -11 -5.5t-11 4.5l-20 14q-7 5 -4 10.5t8 10.5l122 124q5 5 10 8t13 3h50q13 0 19 -11l74 -124v0z" />
    <glyph glyph-name="Euro" unicode="&#x20ac;" horiz-adv-x="486" 
d="M338 287q13 0 11 -12l-8 -38q-1 -7 -6 -10t-10 -3h-137q-3 0 -8 -1.5t-7 -8.5l-10 -48q-8 -38 9 -64t65 -26q35 0 59.5 13t45.5 35q5 6 11 10t14 -2l42 -37q6 -5 6 -12.5t-5 -12.5q-22 -25 -43.5 -40t-43 -23t-43.5 -10.5t-44 -2.5q-45 0 -79.5 12t-57 35t-30.5 56.5
t1 77.5l8 40q2 10 -6 10h-28q-13 0 -10 12l7 39q3 12 16 12zM66 341q-11 0 -10 12l8 38q1 13 15 13h29q6 0 7.5 4.5l2.5 7.5l7 36q17 85 67 129.5t130 44.5q52 0 97.5 -19t71.5 -70q5 -10 -11 -20l-44 -29q-13 -9 -21 4q-14 20 -35 35.5t-54 15.5q-45 0 -72 -24t-35 -65
l-8 -40q-1 -5 1 -7.5t11 -2.5h138q13 0 10 -12l-7 -38q-3 -13 -16 -13h-282z" />
    <glyph glyph-name="guilsinglright" unicode="&#x203a;" horiz-adv-x="354" 
d="M293 224q8 -14 5.5 -24t-13.5 -21l-144 -144q-7 -7 -14.5 -11.5t-21.5 -4.5h-62q-12 0 -14 6.5t7 14.5l156 157q8 8 7.5 11.5t-3.5 8.5l-89 142q-5 8 0.5 16t14.5 8h52q13 0 19 -4.5t14 -15.5l86 -139v0z" />
    <glyph glyph-name="guilsinglleft" unicode="&#x2039;" horiz-adv-x="354" 
d="M56 178q-8 14 -5.5 24t13.5 21l144 144q7 7 14.5 11.5t21.5 4.5h62q12 0 14 -6.5t-7 -14.5l-156 -157q-8 -8 -7.5 -11.5t3.5 -8.5l89 -142q5 -8 1.5 -16t-16.5 -8h-52q-13 0 -19 4.5t-14 15.5l-86 139v0z" />
    <glyph glyph-name="quotesinglbase" unicode="&#x201a;" horiz-adv-x="221" 
d="M61 -97q-5 -11 -12 -14.5t-15 -3.5h-29q-11 0 -12 8t1 17l45 176q3 11 10 17.5t18 6.5h67q16 0 18.5 -7.5t-4.5 -20.5z" />
    <glyph glyph-name="quotedblbase" unicode="&#x201e;" horiz-adv-x="369" 
d="M61 -97q-5 -11 -12 -14.5t-15 -3.5h-29q-12 0 -13 8.5t1 16.5l46 177q3 10 9.5 16.5t18.5 6.5h66q17 0 19.5 -7t-4.5 -21zM216 -97q-5 -11 -12 -14.5t-15 -3.5h-30q-11 0 -12 8.5t1 16.5l46 177q3 10 9.5 16.5t18.5 6.5h66q17 0 19.5 -7t-4.5 -21z" />
    <glyph glyph-name="exclamdown" unicode="&#xa1;" horiz-adv-x="270" 
d="M121 260q1 3 4 6.5t8 3.5h44q5 0 6.5 -3.5t1.5 -5.5l-64 -429q-2 -12 -14 -12h-76q-12 0 -9 11zM119 387q5 24 25 41.5t46 17.5t40.5 -17.5t9.5 -40.5q-5 -25 -26 -42t-45 -17q-26 0 -40.5 17t-9.5 42v-1z" />
    <glyph glyph-name="questiondown" unicode="&#xbf;" horiz-adv-x="395" 
d="M-22 -64q0 32 11 60.5t29.5 53.5t43 45.5t51.5 35.5q43 23 71 47.5t37 62.5l5 20q4 11 13 11h66q10 0 12.5 -3t0.5 -14l-6 -31q-8 -38 -36.5 -76t-73.5 -64q-18 -11 -40.5 -23.5t-43 -29t-34.5 -36.5t-14 -45q0 -13 3 -24.5t11 -20.5t22 -14.5t36 -5.5q12 0 26 4.5
t27.5 13t25 19.5t18.5 23q5 10 15.5 12t20.5 -5l37 -28q9 -6 6 -16t-8 -16q-38 -45 -79 -64t-93 -19q-70 0 -115 33t-45 94zM238 387q5 24 25.5 41.5t46.5 17.5q24 0 39 -17.5t10 -40.5q-5 -25 -26 -42t-46 -17q-26 0 -40 16.5t-9 42.5v-1z" />
    <glyph glyph-name="Dcroat" unicode="&#x110;" horiz-adv-x="502" 
d="M41 0q-16 0 -14 15l51 258q2 8 -8 8h-28q-14 0 -11 15l7 40q3 12 15 12h29q11 0 12 12l47 245q5 12 18 12h182q78 0 116.5 -37.5t38.5 -103.5q0 -11 -1.5 -23.5t-3.5 -24.5q-1 -5 -4.5 -24t-8 -44.5t-10.5 -55.5t-10.5 -55.5t-8 -44.5t-4.5 -24q-17 -91 -64 -135.5
t-138 -44.5h-202zM187 281q-5 0 -7 -3t-4 -8q-1 -2 -3.5 -15t-6 -31t-7.5 -39t-7.5 -39t-6 -31t-2.5 -15q-2 -13 11 -13h85q43 0 70.5 24t35.5 64l53 269q8 45 -14 66t-62 21h-82q-15 0 -16 -12l-32 -161q-3 -10 7 -10h68q14 0 11 -14l-8 -39q-2 -14 -15 -14h-68z" />
    <glyph glyph-name="Nacute" unicode="&#x143;" horiz-adv-x="539" 
d="M208 617q13 0 18 -4.5t9 -12.5q35 -103 69 -209.5t69 -208.5q0 -1 1 -2q2 0 2 2l83 421q3 14 17 14h64q17 0 12 -13q-28 -147 -56 -292t-57 -292q-2 -12 -9 -16t-15 -4h-44q-11 0 -17.5 3t-9.5 12q-17 47 -35 99.5t-36 106t-36 106t-35 99.5q0 2 -2 2l-1 -2l-78 -413
q-4 -13 -17 -13h-65q-14 0 -13 13l113 580q2 12 7 18t19 6h43zM498 735q6 -8 0.5 -14t-10.5 -8l-162 -67q-5 -2 -12 -1t-10 7l-14 21q-7 11 7 19l139 89q23 15 37 -7z" />
    <glyph glyph-name="Lslash" unicode="&#x141;" horiz-adv-x="434" 
d="M149 604q3 13 17 13h69q13 0 13 -10v-2l-51 -262v-2q0 -3 2 -3h1l89 47q5 2 9.5 1.5t6.5 -6.5l13 -33q6 -10 -5 -18l-123 -63q-9 -4 -10 -15q-8 -38 -15.5 -77t-15.5 -78v-3q0 -7 10 -7h229q14 0 14 -10q0 -1 -0.5 -2t-0.5 -2q-2 -15 -5 -29t-6 -29q-2 -14 -16 -14h-326
q-13 0 -13 12v2l36 182q0 4 -2 4t-4 -1l-48 -26q-11 -6 -16 6l-13 34q-2 5 -1.5 9t7.5 8l83 43q8 4 12 14z" />
    <glyph glyph-name="dcroat" unicode="&#x111;" horiz-adv-x="460" 
d="M476 559q-1 -6 -0.5 -9.5t10.5 -3.5h26q13 0 10 -12l-8 -45q-2 -12 -14 -12h-30q-10 0 -11 -12l-89 -453q-3 -12 -15 -12h-72q-13 0 -10 12l2 11q2 5 -2 7t-9 -2q-44 -33 -92 -33q-35 0 -63 12t-47 34t-26 53t0 69l19 100q7 35 22 66t38.5 54t56 36t76.5 13q34 0 56 -10
t30 -18q7 -6 11.5 -3.5t6.5 8.5l12 57q1 11 -9 11h-106q-13 0 -11 11l8 46q3 12 15 12h109q9 0 12 11l9 47q3 13 16 13h67q14 0 11 -12zM324 262q7 35 -14 61.5t-64 26.5q-40 0 -64 -25.5t-32 -61.5l-20 -100q-8 -37 9.5 -62t61.5 -25q19 0 36.5 7t31 18.5t23 27.5t12.5 34z
" />
    <glyph glyph-name="lslash" unicode="&#x142;" horiz-adv-x="314" 
d="M171 133q-6 -32 1 -42t31 -10h12q8 0 8.5 -6t-0.5 -11l-10 -54q-2 -9 -6 -12t-11 -4q-8 -2 -17.5 -2h-13.5q-34 0 -54.5 10t-30 28.5t-9.5 45.5t7 61l15 81q1 5 -0.5 8t-9.5 -2l-51 -25q-11 -6 -14 4l-14 33q-3 9 8 15l87 44q6 3 8.5 6.5t3.5 11.5l61 311q3 13 14 13h69
q13 0 12 -12l-50 -257q-2 -12 7 -8l64 34q11 6 13 -4l13 -33q4 -11 -6 -15l-95 -50q-9 -5 -11 -9.5t-4 -13.5z" />
    <glyph glyph-name="dotaccent" unicode="&#x2d9;" horiz-adv-x="463" 
d="M358 550q-5 -23 -23 -38t-41 -15t-35.5 15t-8.5 38q5 22 23 37.5t41 15.5t35.5 -15.5t8.5 -37.5z" />
    <glyph glyph-name="emdash" unicode="&#x2014;" horiz-adv-x="1000" 
d="M981 213q-2 -12 -15 -12h-934q-13 0 -11 12l9 42q1 12 14 12h935q13 0 11 -11z" />
    <glyph glyph-name="florin" unicode="&#x192;" horiz-adv-x="486" 
d="M314 289q-8 0 -12 -3.5t-4 -8.5l-49 -209q-22 -93 -63 -132.5t-109 -39.5q-19 0 -33.5 2.5t-25.5 6.5q-8 2 -12.5 6.5t0.5 15.5l19 55q5 10 9.5 11t17.5 -2q37 -10 61 2.5t37 64.5l54 218q3 13 -7 13h-52q-17 0 -16 14l5 52q2 14 19 14h62q11 0 13 10l23 94q11 46 27 76
t37.5 47.5t47.5 24.5t56 7q20 0 34 -3.5t25 -6.5q8 -3 12.5 -6.5t-0.5 -14.5l-19 -56q-4 -11 -9.5 -11.5t-18.5 2.5q-36 9 -61 -3.5t-36 -57.5l-23 -92q-1 -5 0.5 -7.5t7.5 -2.5h61q17 0 16 -14l-4 -52q-1 -14 -18 -14h-72z" />
    <glyph glyph-name="currency" unicode="&#xa4;" horiz-adv-x="492" 
d="M93 434q10 10 20 1l43 -47q20 14 42.5 20t45.5 6t45.5 -6.5t42.5 -19.5l49 47q4 5 11 6t12 -6l31 -31q12 -12 1 -22l-48 -46q27 -39 27 -91q0 -23 -6 -46.5t-20 -44.5l45 -43q5 -5 6 -10t-5 -11l-34 -33q-9 -9 -20 0q-12 11 -23.5 22t-23.5 22q-20 -12 -43.5 -19.5
t-44.5 -7.5q-50 0 -90 30l-48 -48h1q-9 -13 -21 -1l-34 33q-5 4 -5 9.5t5 10.5l48 51q-12 20 -19 43.5t-7 44.5q0 47 26 87q-10 11 -21 23.5t-22 23.5q-5 6 -6 9.5t7 11.5zM152 245q0 -39 27.5 -66.5t66.5 -27.5t66 27.5t27 66.5t-27 66.5t-66 27.5q-20 0 -37 -7.5
t-29.5 -20t-20 -30t-7.5 -36.5z" />
    <glyph glyph-name="brokenbar" unicode="&#xa6;" horiz-adv-x="231" 
d="M172 311q-1 -12 -13 -12h-43q-13 0 -13 12v353q0 12 13 12h42q14 0 14 -12v-353zM172 -102q0 -13 -13 -13h-43q-13 0 -13 12l1 350q0 12 13 12h42q13 0 13 -11v-350z" />
    <glyph glyph-name="logicalnot" unicode="&#xac;" horiz-adv-x="486" 
d="M411 54q-4 -13 -14 -13h-43q-12 0 -10 12l30 144q1 5 -1.5 6t-7.5 1h-314q-7 0 -12.5 3t-3.5 9l8 45q2 6 7 9t11 3h373q5 0 11.5 -3.5t4.5 -11.5z" />
    <glyph glyph-name="macron" unicode="&#xaf;" horiz-adv-x="463" 
d="M432 540q-2 -12 -14 -12h-242q-13 0 -11 12l10 51q3 12 15 12h242q13 0 10 -11l-10 -52v0z" />
    <glyph glyph-name="paragraph" unicode="&#xb6;" horiz-adv-x="483" 
d="M221 305q-34 0 -59.5 11t-43 30t-26 45.5t-8.5 57.5q0 4 0.5 8t0.5 9q7 79 57 125t126 46h100q10 0 10 -9v-3l-61 -308q-2 -12 -13 -12h-83zM509 626q-24 -128 -48 -253.5t-49 -253.5l-14 -58q-10 -38 -24.5 -67.5t-38 -49.5t-57.5 -30t-83 -10q-7 0 -11 1t-4 10l3 49
q0 5 3.5 10t10.5 6q36 3 58 11.5t35 21.5t18.5 31t10.5 42l106 540q2 11 14 11h59q11 0 11 -9v-2z" />
    <glyph glyph-name="multiply" unicode="&#xd7;" horiz-adv-x="486" 
d="M60 106q-9 14 5 25l120 101q5 4 5.5 6t-1.5 5l-83 101q-10 12 5 23l28 23q16 13 24 1l83 -101q4 -5 11 2l119 99q15 12 26 1l24 -28q9 -12 -5 -25l-119 -99q-5 -4 -6 -6t2 -6l81 -101q8 -13 -5 -24l-28 -23q-15 -14 -26 -1l-78 100q-3 5 -5.5 5.5t-7.5 -4.5l-120 -101
q-14 -11 -25 0l-24 27v0z" />
    <glyph glyph-name="eth" unicode="&#xf0;" horiz-adv-x="453" 
d="M402 165q-16 -81 -66 -126t-141 -45q-36 0 -65.5 11t-50 30.5t-31.5 46t-11 58.5q0 10 1 19.5t3 19.5q3 18 7 36.5t8 37.5q16 80 64 124t132 44q18 0 48 -8t52 -31q1 0 1 0.5t1 0.5q9 36 9 67q0 12 -0.5 21t-5.5 19q-4 4 -5.5 4t-6.5 -3l-43 -34q-9 -6 -13 -1l-19 23
q-6 8 2 14q11 8 22 17l22 18q4 3 4 6t-3 6t-7 5t-7 4q-18 8 -37 12t-41 6q-9 0 -13 3t-2 12l9 49q2 10 7.5 12t16.5 2q40 0 80 -13t69 -36q7 -4 14 2l41 33q9 9 15 1l18 -22q6 -7 -3 -14l-43 -35q-5 -4 -5.5 -6.5t1.5 -7.5q12 -20 15 -47t3 -50q0 -32 -5 -65t-10 -64z
M323 250q1 5 1.5 9.5t0.5 9.5q0 32 -22 51.5t-57 19.5q-40 0 -64 -25t-32 -64q-5 -22 -9 -43.5t-8 -43.5q-1 -5 -1.5 -10t-0.5 -10q0 -30 20 -49t55 -19q39 0 65 24t34 63z" />
    <glyph glyph-name="Thorn" unicode="&#xde;" horiz-adv-x="474" 
d="M157 123q-10 0 -13 -11q-5 -24 -10 -49t-10 -49q-2 -14 -17 -14h-68q-16 0 -13 13l114 591q3 12 17 12h68q15 0 13 -13l-21 -105q0 -9 8 -9h70q85 0 127.5 -44.5t42.5 -119.5q0 -42 -14.5 -79t-42.5 -64t-69 -43t-93 -16h-89zM211 402q-13 0 -15 -9l-32 -173
q-2 -10 7 -10h84q52 0 82.5 30.5t30.5 82.5q0 31 -21 55t-57 24h-79z" />
    <glyph glyph-name="ordfeminine" unicode="&#xaa;" horiz-adv-x="309" 
d="M187 469q-12 0 -30.5 -3t-35.5 -8q-7 -2 -13 -1.5t-8 8.5l-9 30q-3 12 10 18q16 8 41 13t51 5q40 0 65.5 -9.5t38.5 -26.5t15.5 -40t-3.5 -51l-30 -152q-2 -6 -4 -9t-9 -3h-48q-11 0 -11 8q0 3 0.5 5t0.5 3q1 2 -0.5 2.5t-3.5 -1.5q-12 -8 -30 -14.5t-35 -6.5
q-47 0 -71 23.5t-24 61.5q0 54 36.5 85t92.5 31q17 -1 31 -3.5t30 -10.5q6 -3 7 3q5 24 -8.5 33.5t-45.5 9.5zM174 383q-26 0 -41.5 -15.5t-15.5 -39.5q0 -14 8.5 -24t30.5 -10q25 0 41.5 16t16.5 38q0 15 -10 25t-30 10z" />
    <glyph glyph-name="ordmasculine" unicode="&#xba;" horiz-adv-x="308" 
d="M307 347q-8 -51 -37 -81.5t-93 -30.5t-97 34.5t-21 96.5l10 52q9 51 41.5 80t93.5 29q28 0 50.5 -9t37.5 -26t21.5 -41t2.5 -54zM242 408q5 25 -8.5 40.5t-36.5 15.5q-26 0 -38 -13.5t-17 -33.5l-12 -63q-5 -26 7.5 -41t37.5 -15q29 0 41.5 14t17.5 39z" />
    <glyph glyph-name="tilde" unicode="&#x2dc;" horiz-adv-x="471" 
d="M439 586q5 -5 6 -9t-5 -12q-21 -31 -48 -43.5t-49 -12.5q-17 0 -30.5 5.5t-25.5 12t-24.5 12t-26.5 5.5q-8 0 -20 -7t-23 -18q-8 -9 -14.5 -8.5t-11.5 5.5l-17 17q-7 8 -7.5 14t5.5 14q19 23 44.5 37.5t51.5 14.5q16 0 30 -6t27.5 -13t26 -13t24.5 -6q11 0 21.5 9.5
t19.5 20.5t20 2l26 -21v0z" />
    <glyph glyph-name="cedilla" unicode="&#xb8;" horiz-adv-x="416" 
d="M147 -93q-27 0 -27 21q0 8 4 16l31 68q2 4 5.5 9t9.5 5h32q5 0 5 -5.5t-2 -10.5l-22 -50q-1 -4 6 -4h10q32 0 49.5 -19t17.5 -50q0 -38 -27.5 -65.5t-79.5 -27.5q-23 0 -43.5 6.5t-34.5 17.5q-4 3 -4.5 6t4.5 9l15 21q7 10 11 7.5t13 -7.5q8 -4 18 -7.5t20 -3.5
q25 0 37 11t12 28q0 9 -6 17t-25 8h-29v0z" />
    <glyph glyph-name="acute" unicode="&#xb4;" horiz-adv-x="446" 
d="M421 633q8 -6 5.5 -12.5t-6.5 -10.5l-130 -120q-3 -3 -8.5 -4.5t-13.5 3.5l-21 13q-12 7 -3 19l105 139q5 6 12 8t12 -2l48 -33v0z" />
    <glyph glyph-name="hungarumlaut" unicode="&#x2dd;" horiz-adv-x="458" 
d="M485 633q8 -6 5.5 -12.5t-6.5 -10.5l-130 -120q-3 -3 -8.5 -4.5t-13.5 3.5l-21 13q-12 7 -3 19l105 139q5 6 12 8t12 -2zM348 633q8 -6 5.5 -12.5t-6.5 -10.5l-130 -120q-3 -3 -8.5 -4.5t-13.5 3.5l-21 13q-12 7 -3 19l105 139q5 6 12 8t12 -2z" />
    <glyph glyph-name="caron" unicode="&#x2c7;" horiz-adv-x="463" 
d="M169 618q-3 5 -3 10.5t8 10.5l26 14q14 8 21 -2l68 -85q6 -7 14 -1l116 87q7 5 11 5.5t11 -4.5l20 -14q7 -5 4 -10.5t-8 -10.5l-122 -124q-5 -5 -10 -8t-13 -3h-50q-13 0 -19 11l-74 124v0z" />
    <glyph glyph-name="breve" unicode="&#x2d8;" horiz-adv-x="462" 
d="M296 565q27 0 43.5 16t28.5 42q3 7 6 9.5t11 2.5h34q10 0 11.5 -5t-0.5 -12q-15 -61 -50 -93t-92 -32q-25 0 -45.5 10.5t-34.5 27.5t-21 40t-5 48q1 7 4 11.5t13 4.5h32q8 0 11 -3t4 -9q4 -26 16 -42t34 -16z" />
    <glyph glyph-name="Hbar" unicode="&#x126;" horiz-adv-x="540" 
d="M438 13q-3 -13 -17 -13h-68q-14 0 -13 13l48 249q2 7 -1 9.5t-8 2.5h-191q-7 0 -10 -2.5t-5 -13.5l-49 -245q-1 -13 -16 -13h-68q-17 0 -14 13l88 456q2 5 0.5 8.5t-9.5 3.5h-26q-15 0 -11 16l6 31q2 6 4.5 9t10.5 3h27q4 0 8.5 2t6.5 11l9 52q2 6 5.5 9t11.5 3h68
q14 0 14 -13l-10 -50q-1 -5 -1 -9.5t8 -4.5h195q10 0 14 14l11 51q1 12 17 12h65q16 0 14 -13l-9 -52q0 -12 9 -12h26q13 0 11 -9l-7 -37q-3 -13 -14 -13h-26q-13 0 -16 -13zM428 468q2 13 -6 13h-196q-6 0 -8.5 -4t-4.5 -9l-19 -95q0 -5 1 -9t8 -4h192q11 0 14 14z" />
    <glyph glyph-name="hbar" unicode="&#x127;" horiz-adv-x="473" 
d="M218 558q-3 -11 9 -11h149q13 0 11 -11l-7 -34q-2 -12 -14 -12h-151q-12 0 -13 -11l-14 -73q-3 -16 11 -6q22 18 48 27t49 9q80 0 113.5 -47t19.5 -123l-49 -253q-1 -13 -14 -13h-70q-13 0 -11 12l49 253q8 38 -9 63.5t-61 25.5q-20 0 -37 -7.5t-31 -20.5t-23.5 -30
t-13.5 -36l-47 -247q-1 -13 -15 -13h-69q-14 0 -11 12l92 465q2 8 1.5 10.5t-10.5 2.5h-25q-13 0 -11 12l6 33q3 12 15 12h29q8 0 11 12l14 66q1 13 14 13h68q12 0 11 -12z" />
    <glyph glyph-name="Eng" unicode="&#x14a;" horiz-adv-x="537" 
d="M208 617q13 0 17.5 -5t8.5 -13q35 -102 69.5 -202.5t69.5 -202.5q1 -1 2 -1q2 0 2 1l79 410q3 13 17 13h64q14 0 14 -10q0 -1 -0.5 -1.5t-0.5 -1.5l-116 -593l-13 -65q-5 -27 -14.5 -51t-26 -42t-42 -28.5t-63.5 -10.5q-5 0 -14 1t-19 2.5t-19.5 3.5t-15.5 5q-7 3 -7 7.5
t2 11.5l11 37q4 11 8.5 12t11.5 0q10 -1 16 -1.5t13 -0.5q32 0 45.5 14.5t19.5 46.5l10 55q1 7 1.5 13.5t-1.5 13.5l-136 385q0 2 -2 2l-1 -2q-3 -15 -8.5 -46t-13 -70.5t-15.5 -83t-16 -84t-14.5 -73t-9.5 -49.5q-3 -14 -17 -14h-65q-13 0 -13 10v3l113 579q2 13 7 19t19 6
h43z" />
    <glyph glyph-name="eng" unicode="&#x14b;" horiz-adv-x="471" 
d="M367 -54q-5 -27 -14.5 -51t-26 -42t-42 -28.5t-63.5 -10.5q-5 0 -14 1t-19 2.5t-19.5 3.5t-15.5 5q-7 3 -7 7.5t2 11.5l11 37q4 11 8.5 12t11.5 0q10 -1 16 -1.5t13 -0.5q32 0 45.5 14.5t19.5 46.5l64 324q8 38 -9 63.5t-61 25.5q-20 0 -37 -7.5t-31 -20.5t-23.5 -30
t-13.5 -36l-50 -259q-1 -13 -15 -13h-69q-14 0 -11 12l81 416q3 13 15 13h68q13 0 10 -12l-3 -14q-2 -8 1.5 -9.5t11.5 3.5q22 18 48.5 28.5t49.5 10.5q80 0 113.5 -47t19.5 -123z" />
    <glyph glyph-name="Tbar" unicode="&#x166;" horiz-adv-x="429" 
d="M179 361q10 0 14 14l29 145q0 5 -1.5 8t-7.5 3h-119q-6 0 -10 3.5t-2 11.5l11 58q3 13 17 13h365q15 0 12 -14l-11 -58q-3 -14 -17 -14h-124q-14 0 -15 -11l-28 -145q0 -5 -0.5 -9.5t7.5 -4.5h88q14 0 11 -13l-6 -34q-2 -14 -15 -14h-90q-7 0 -9 -4t-3 -9l-55 -273
q-3 -14 -17 -14h-69q-14 0 -12 13l55 274q0 5 -0.5 9t-6.5 4h-88q-12 0 -10 14l7 38q1 9 15 9h85z" />
    <glyph glyph-name="tbar" unicode="&#x167;" horiz-adv-x="322" 
d="M174 135q-9 -54 41 -54q8 0 22.5 1.5t23.5 4.5q12 4 16 1.5t4 -10.5l1 -53q0 -11 -5.5 -15t-14.5 -6q-14 -4 -38 -6.5t-46 -2.5q-62 0 -86.5 36t-14.5 89l18 90q3 13 -10 13h-46q-13 0 -10 11l6 36q3 12 14 12h47q13 0 16 14l10 56q3 11 -9 11h-46q-14 0 -11 12l11 53
q1 13 14 13h46q13 0 15 13l16 84q2 5 5 8.5t10 3.5l70 11q13 0 10 -12l-17 -96q-3 -12 10 -12h85q13 0 10 -12l-10 -54q-3 -12 -16 -12h-85q-11 0 -14 -11l-11 -58q-3 -12 8 -12h87q14 0 11 -11l-7 -36q-2 -12 -15 -12h-85q-12 0 -15 -13z" />
    <glyph glyph-name="exclam" unicode="!" horiz-adv-x="270" 
d="M171 177q-1 -3 -4 -6.5t-8 -3.5h-44q-5 0 -6.5 3.5t-1.5 5.5l64 429q2 12 14 12h76q12 0 9 -11zM173 50q-5 -24 -25 -41.5t-46 -17.5t-40.5 17.5t-9.5 40.5q5 25 26 42t45 17q26 0 40.5 -17t9.5 -42v1z" />
    <glyph glyph-name="afii10051" unicode="&#x402;" horiz-adv-x="627" 
d="M467 216q4 21 4 39t-8 32t-26.5 22t-50.5 8q-27 0 -55.5 -8.5t-47.5 -22.5q-5 -2 -7.5 -6.5t-4.5 -13.5l-49 -253q-4 -13 -18 -13h-68q-15 0 -13 12q24 128 49 254t50 254q0 5 -0.5 8t-8.5 3h-114q-15 0 -10 14v3t1 7.5l3 16.5t6 31q3 14 17 14h422q9 0 10 -3.5t1 -10.5
l-11 -58q-3 -14 -17 -14h-187q-13 0 -14 -10l-26 -136v-2q0 -3 3 -3q2 0 6 2q30 10 59 15.5t63 5.5q42 0 72.5 -13.5t48.5 -36.5t23.5 -55t-1.5 -69l-15 -87q-6 -34 -18 -68.5t-36 -62t-63 -45t-98 -17.5q-13 0 -12 11l5 60q1 10 7 13.5t17 4.5q28 3 46 13.5t29 25.5
t16.5 34t8.5 38z" />
    <glyph glyph-name="afii10058" unicode="&#x409;" horiz-adv-x="815" 
d="M543 617q13 -2 13 -13q-11 -57 -22 -112.5t-22 -112.5q0 -3 1.5 -6t6.5 -3h98q40 0 71.5 -12.5t53 -34.5t32.5 -51t11 -63q0 -43 -16.5 -81t-45.5 -66.5t-68.5 -45t-85.5 -16.5h-213q-14 0 -14 15l50 253q13 64 25 127l24 126q0 11 -8 11h-142q-10 0 -13 -12
q-4 -20 -7 -40.5t-8 -41.5q-22 -111 -42.5 -190.5t-47.5 -133.5t-65.5 -85t-96.5 -46q-13 -3 -17 12l-14 44q-2 9 1.5 13.5t11.5 8.5q35 16 60 40t44.5 66.5t36.5 109.5t37 170l30 156q3 14 17 14h324zM565 86q27 0 49.5 9t38 24.5t24.5 37t9 46.5q0 37 -22 59t-60 22h-100
q-13 0 -14 -13l-33 -175q0 -10 10 -10h98z" />
    <glyph glyph-name="afii10059" unicode="&#x40a;" horiz-adv-x="769" 
d="M312 0q-10 0 -13 5t-1 12v-1l51 257q2 5 0.5 8t-9.5 3h-150q-12 0 -16 -13l-50 -256q-3 -15 -15 -15h-70q-15 0 -13 14l114 589q3 14 17 14h69q16 0 13 -13l-43 -221q0 -5 1.5 -9t6.5 -4h153q5 0 8.5 4.5t5.5 8.5l43 221q2 13 17 13h66q15 0 14 -13l-43 -223
q0 -3 1.5 -6.5t5.5 -3.5h98q40 0 71.5 -12t53 -34t32.5 -51.5t11 -64.5q0 -45 -16 -83.5t-44.5 -66t-68 -43.5t-87.5 -16h-213zM526 86q29 0 51 10t36.5 26.5t21.5 37.5t7 44q0 38 -24 59t-59 21h-98q-14 0 -15 -12l-34 -175q-3 -11 9 -11h105z" />
    <glyph glyph-name="afii10060" unicode="&#x40b;" horiz-adv-x="619" 
d="M292 382q0 -5 3 -5t7 2q29 11 59.5 17.5t62.5 6.5q43 0 74 -13.5t49 -36.5t23.5 -55t-1.5 -69l-42 -216q-3 -13 -17 -13h-70q-13 0 -13 10v2l39 199q4 21 4.5 40.5t-7.5 34t-26 23t-51 8.5q-31 0 -58 -8.5t-46 -22.5q-4 -2 -7 -6.5t-5 -13.5l-49 -253q-3 -13 -17 -13h-69
q-15 0 -13 12l99 508q1 2 1 4q0 7 -10 7h-113q-8 0 -9.5 4t-1.5 10q0 1 0.5 3t1.5 7.5l3 16.5t5 31q2 7 5.5 10.5t11.5 3.5h422q13 0 12 -10l-11 -62q-3 -14 -18 -14h-187q-13 0 -14 -10z" />
    <glyph glyph-name="afii10145" unicode="&#x40f;" horiz-adv-x="546" 
d="M41 0q-16 0 -14 15l115 589q2 13 17 13h71q14 0 12 -14l-98 -504q-3 -13 9 -13h196q8 0 10.5 3t4.5 10l98 505q2 13 16 13h72q13 0 11 -14l-115 -589q-3 -14 -17 -14h-132q-9 0 -13 -3t-6 -10l-22 -113q-3 -14 -10 -17.5t-14 -3.5h-53q-10 0 -13 4.5t-1 16.5l22 114
q1 6 -1 9t-13 3h-132v0z" />
    <glyph glyph-name="afii10099" unicode="&#x452;" horiz-adv-x="487" 
d="M347 268q8 45 -11.5 67.5t-57.5 22.5q-17 0 -34 -7t-31.5 -19t-24.5 -28.5t-14 -35.5l-50 -255q-1 -13 -15 -13h-69q-14 0 -11 12l93 475q1 10 -9 10h-46q-14 0 -11 12l8 43q1 13 14 13h47q11 0 15 13l8 47q2 5 5 8.5t9 3.5h69q13 0 10 -12l-8 -48q-2 -12 9 -12h135
q12 0 11 -12l-8 -43q-3 -13 -16 -13h-135q-11 0 -13 -10l-15 -77q-3 -15 16 -1q17 13 44.5 22t50.5 9q78 0 111 -46t18 -125l-19 -117q-7 -42 -18.5 -79.5t-32.5 -65.5t-54 -44t-84 -16q-9 0 -21 2t-10 16l6 46q1 9 8 11.5t16 2.5q27 0 43.5 12.5t26 30t14 35.5l7.5 30z" />
    <glyph glyph-name="afii10106" unicode="&#x459;" horiz-adv-x="689" 
d="M426 440q15 0 14 -10l-26 -135v-2q0 -5 6 -5h118q31 0 55 -9.5t40 -26t24 -38t8 -44.5q0 -31 -12 -62.5t-37.5 -56.5t-64.5 -41t-92 -16q-43 0 -74.5 10.5t-51.5 28.5t-30 42t-11 51q0 31 6 61l32 166q0 7 -10 7h-90q-12 0 -14 -13l-15 -78q-15 -76 -31 -125.5
t-37.5 -81.5t-49.5 -50.5t-66 -30.5q-3 -1 -8 -1q-8 0 -9 8l-14 46q-2 6 -0.5 10t13.5 10q26 13 43.5 28t30 39t22 61t20.5 94l28 150q2 14 19 14h264zM405 209q-5 0 -6.5 -2t-2.5 -5q-3 -16 -5.5 -34t-2.5 -26q0 -12 4.5 -24t13.5 -21t24.5 -15t38.5 -6q45 0 72.5 24
t27.5 55q0 24 -14.5 39t-46.5 15h-103z" />
    <glyph glyph-name="afii10107" unicode="&#x45a;" horiz-adv-x="648" 
d="M372 294q0 -7 6 -7h118q32 0 56 -9.5t39.5 -25.5t23.5 -37.5t8 -44.5q0 -31 -12 -62.5t-37.5 -56.5t-64.5 -41t-92 -16q-42 0 -73 10t-51.5 28t-30.5 41.5t-11 50.5q0 27 8 73q0 3 -0.5 5t-5.5 2h-104q-9 0 -9 -8l-36 -180q-3 -16 -19 -16h-62q-15 0 -15 12v3l80 410
q1 6 6 10.5t14 4.5h61q17 0 14 -15l-25 -133v-3q0 -5 8 -5h101q8 0 10 7l25 134q4 15 17 15h66q14 0 14 -12zM363 208q-5 0 -6 -2t-2 -5q-5 -15 -7 -32.5t-2 -26.5q1 -24 18.5 -45t63.5 -21q45 0 72.5 24t27.5 55q0 23 -14.5 38t-46.5 15h-104z" />
    <glyph glyph-name="afii10108" unicode="&#x45b;" horiz-adv-x="473" 
d="M218 558q-3 -11 9 -11h149q13 0 11 -11l-7 -34q-2 -12 -14 -12h-151q-12 0 -13 -11l-14 -73q-3 -16 11 -6q22 18 48 27t49 9q80 0 113.5 -47t19.5 -123l-49 -253q-1 -13 -14 -13h-70q-13 0 -11 12l49 253q8 38 -9 63.5t-61 25.5q-20 0 -37 -7.5t-31 -20.5t-23.5 -30
t-13.5 -36l-47 -247q-1 -13 -15 -13h-69q-14 0 -11 12l92 465q2 8 1.5 10.5t-10.5 2.5h-25q-13 0 -11 12l6 33q3 12 15 12h29q8 0 11 12l14 66q1 13 14 13h68q12 0 11 -12z" />
    <glyph glyph-name="afii10050" unicode="&#x490;" horiz-adv-x="425" 
d="M507 737q12 0 13 -5.5t-1 -15.5l-33 -166q-2 -7 -6 -12.5t-12 -5.5h-228q-13 0 -16 -13l-98 -506q-3 -13 -15 -13h-73q-13 0 -11 12l115 592q3 13 15 13h240q7 0 13 2.5t8 10.5l32 89q5 13 12 15.5t15 2.5h30z" />
    <glyph glyph-name="afii10053" unicode="&#x404;" horiz-adv-x="452" 
d="M185 368q-1 -11 9 -11h165q15 0 12 -14l-10 -55q-5 -14 -16 -14h-166q-5 0 -8.5 -3.5t-5.5 -8.5l-19 -95q-3 -16 -1 -31.5t11 -28t25.5 -20t42.5 -7.5q35 0 56.5 12.5t40.5 32.5q6 7 12.5 10.5t14.5 -2.5q12 -10 25 -20.5t26 -20.5q5 -3 5 -9t-5 -11q-21 -24 -42 -39.5
t-42.5 -24t-44 -11.5t-47.5 -3q-81 0 -128 36.5t-47 104.5q0 9 1 20.5t3 21.5l52 276q15 79 63.5 126t138.5 47q62 0 101.5 -21t64.5 -66q7 -13 -9 -23q-12 -8 -21 -14.5t-21 -14.5q-10 -6 -15.5 -3.5t-10.5 9.5q-13 20 -35.5 34t-50.5 14q-47 0 -73.5 -25t-34.5 -62z" />
    <glyph glyph-name="afii10098" unicode="&#x491;" horiz-adv-x="352" 
d="M108 16q-4 -16 -20 -16h-61q-8 0 -12.5 3.5t-2.5 11.5l80 411q3 15 20 15h187q13 0 15.5 3.5t4.5 7.5q7 19 14 39t13 39q6 12 12.5 15.5t14.5 3.5h23q13 0 14.5 -5.5t-0.5 -16.5l-34 -152q-3 -15 -20 -15h-171q-9 0 -10 -3t-3 -10l-64 -331v0z" />
    <glyph glyph-name="afii10101" unicode="&#x454;" horiz-adv-x="412" 
d="M290 204q-2 -11 -12 -11h-130q-12 0 -15 -14l-5 -21q-9 -36 9 -59.5t63 -23.5q30 0 55.5 14.5t44.5 36.5q9 10 16.5 10t12.5 -5l36 -32q10 -9 6.5 -15.5t-12.5 -17.5q-33 -39 -73 -55.5t-92 -16.5q-41 0 -74 12t-54.5 33.5t-30 52.5t-0.5 70l22 114q33 172 201 172
q34 0 64 -10t51 -27q24 -20 36 -47q3 -8 0 -14t-10 -11l-40 -27q-17 -12 -27 6q-28 48 -80 48q-39 0 -65 -22.5t-34 -63.5q-3 -15 9 -15h128q11 0 10 -10l-10 -51v0z" />
    <glyph glyph-name="afii10018" unicode="&#x411;" horiz-adv-x="476" 
d="M446 617q5 0 9.5 -2.5t2.5 -10.5l-11 -59q-2 -9 -5.5 -11.5t-11.5 -2.5h-195q-13 0 -14 -9q-7 -37 -14.5 -74.5t-14.5 -74.5q0 -8 8 -8h74q40 0 72 -12t54 -32.5t33.5 -48.5t11.5 -60q0 -42 -13.5 -80t-40.5 -67.5t-66 -47t-90 -17.5h-197q-8 0 -10.5 3.5t-2.5 10.5
q31 148 57.5 295t58.5 295q2 13 15 13h290zM226 86q28 0 50 9.5t37.5 25t23.5 36t8 42.5q0 34 -21.5 57t-60.5 23h-77q-10 0 -13 -10v1l-34 -178q0 -6 10 -6h77z" />
    <glyph glyph-name="afii10021" unicode="&#x414;" horiz-adv-x="570" 
d="M295 531q-5 0 -7.5 -4t-3.5 -7q-6 -26 -15 -63.5t-19 -76t-19 -74.5t-16 -59q-5 -16 -11.5 -36t-14.5 -41t-18.5 -41t-22.5 -36q-6 -6 4 -6h202q3 0 6.5 1t5.5 8l82 423q3 12 -12 12h-141zM35 -118q-4 -14 -9 -17t-12 -3h-54q-9 0 -12.5 3t-1.5 13l33 171q3 16 8 21.5
t16 9.5q4 1 10.5 3t8.5 3q35 11 57.5 53t41.5 105q15 46 38.5 136.5t53.5 215.5q4 13 9 17t16 4h308q10 0 14 -4t2 -17l-98 -500q0 -2 0.5 -5.5t4.5 -3.5h23q12 -1 13.5 -6t-0.5 -15l-36 -184q-3 -14 -8 -16.5t-13 -2.5h-55q-9 0 -12.5 3.5t-2.5 15.5l21 108q2 8 -2.5 9
t-9.5 1h-312q-11 0 -13.5 -2.5t-6.5 -11.5z" />
    <glyph glyph-name="afii10024" unicode="&#x416;" horiz-adv-x="785" 
d="M56 207q18 65 55 106.5t107 48.5q7 1 14.5 1h15.5q5 0 7.5 3t-1.5 8l-137 227q-4 6 -1 11t13 5h74q14 0 19 -9l141 -233q3 -4 7 -5.5t6 6.5l44 229q3 12 14 12h73q14 0 11 -13l-42 -217q-1 -8 3 -6.5t8 4.5l218 223q9 9 22 9h82q11 0 12.5 -5.5t-3.5 -12.5l-223 -225
q-5 -5 -4 -8t6 -3h13.5t12.5 -1q63 -9 88 -54t16 -115l-22 -180q-1 -13 -14 -13h-69q-14 0 -12 12l21 178q3 21 1.5 40.5t-9.5 33.5t-24.5 22.5t-43.5 8.5q-24 0 -44 -9t-35 -24t-25 -35t-14 -42l-34 -173q-2 -12 -14 -12h-74q-13 0 -10 13l34 177q10 47 -8 74.5t-70 27.5
q-28 0 -47.5 -9t-33.5 -23t-22.5 -32.5t-13.5 -37.5l-46 -178q-3 -12 -15 -12h-69q-14 0 -11 13z" />
    <glyph glyph-name="afii10026" unicode="&#x418;" horiz-adv-x="540" 
d="M142 603q2 14 17 14h64q17 0 12 -15v1q-19 -101 -38 -200.5t-39 -199.5q0 -1 1 -1q2 0 2 1l301 397q6 8 13 12.5t20 4.5h46q17 0 12 -15v1l-115 -589q-2 -14 -17 -14h-64q-9 0 -11 4t-2 11l77 395q0 2 -2 2l-1 -1l-300 -395q-8 -11 -13.5 -13.5t-17.5 -2.5h-47
q-16 0 -14 15z" />
    <glyph glyph-name="afii10029" unicode="&#x41b;" horiz-adv-x="553" 
d="M293 532q-11 0 -12 -12l-16 -81q-23 -119 -43.5 -198.5t-46.5 -130.5t-63.5 -79t-95.5 -46q-11 -4 -15.5 -1.5t-7.5 10.5l-12 45q-2 8 -1 13t10 9q38 15 63.5 37t45 63t36 107t36.5 168q8 40 16 84t16 85q3 12 18 12h330q16 0 14 -13q-2 -9 -7.5 -37t-13.5 -68.5
t-17.5 -89.5t-19.5 -99.5t-19.5 -99.5t-17 -89.5t-13 -68.5t-7.5 -37q-2 -15 -17 -15h-69q-14 0 -12 14l98 506q1 5 -1.5 8.5t-7.5 3.5h-148z" />
    <glyph glyph-name="afii10037" unicode="&#x423;" horiz-adv-x="452" 
d="M168 618q10 0 15 -2.5t6 -11.5l44 -334q1 -3 3 -3t4 2l171 334q5 8 11 11.5t19 3.5h62q14 0 15 -6t-4 -14l-248 -456q-19 -36 -36 -64.5t-37.5 -48.5t-45.5 -30.5t-61 -10.5h-44q-14 0 -14 4v13q2 13 4.5 25.5t5.5 25.5q2 11 5.5 13.5t11.5 2.5h24q20 0 33.5 5.5
t27.5 23.5l10 15q11 17 10.5 31.5t-3.5 31.5l-67 418q0 8 3 14.5t15 6.5h60z" />
    <glyph glyph-name="afii10040" unicode="&#x426;" horiz-adv-x="559" 
d="M40 0q-16 0 -13 15l114 589q3 13 18 13h69q16 0 13 -14l-98 -504q-2 -7 -0.5 -10t9.5 -3h196q13 0 15 13l98 505q3 13 18 13h68q16 0 13 -14l-99 -507q0 -3 0.5 -6t4.5 -4h36q13 0 14 -8t-1 -16l-33 -172q-3 -14 -9 -16.5t-14 -2.5h-50q-8 0 -13.5 2t-2.5 17l19 99
q1 8 -3.5 9.5t-9.5 1.5h-359z" />
    <glyph glyph-name="afii10041" unicode="&#x427;" horiz-adv-x="502" 
d="M353 262v2q0 3 -2 3q-3 0 -7 -2q-28 -12 -60 -19.5t-63 -7.5q-42 0 -72 13.5t-48 37.5t-24 56t-1 69l37 191q3 13 18 13h70q9 0 10.5 -3.5t1.5 -9.5l-35 -176q-4 -21 -3.5 -39.5t8.5 -32.5t24.5 -22t45.5 -8q28 0 59 8t51 22q4 2 7.5 6t5.5 13q11 57 22 114.5t22 114.5
q4 13 18 13h68q18 0 13 -13q-29 -149 -57.5 -296t-57.5 -296q-3 -13 -18 -13h-68q-14 0 -13 13z" />
    <glyph glyph-name="afii10042" unicode="&#x428;" horiz-adv-x="769" 
d="M39 0q-7 0 -10 5t-3 10l115 589q3 13 16 13h70q6 0 9.5 -4.5t3.5 -9.5l-99 -505q-1 -7 0.5 -9.5t8.5 -2.5h152q11 0 14 12v-1q24 127 48.5 253.5t49.5 253.5q2 7 5 10t11 3h68q6 0 9.5 -4.5t3.5 -9.5q-24 -125 -48.5 -252.5t-49.5 -252.5q-3 -12 9 -12h149q12 0 15 12
q24 125 49.5 253t48.5 253q4 13 17 13h69q6 0 9.5 -4.5t3.5 -9.5l-115 -589q-3 -14 -16 -14h-613z" />
    <glyph glyph-name="afii10043" unicode="&#x429;" horiz-adv-x="782" 
d="M40 0q-16 0 -13 15l114 590q3 12 18 12h68q16 0 13 -13l-99 -506q-1 -7 0.5 -9.5t9.5 -2.5h151q11 0 13 11l99 508q3 12 17 12h69q16 0 12 -13l-98 -506q-3 -12 8 -12h150q12 0 15 13l98 505q3 13 17 13h68q16 0 13 -14l-99 -507q0 -3 0.5 -6.5t5.5 -3.5h38q13 0 14 -8
t-1 -16l-33 -172q-3 -14 -9 -16.5t-14 -2.5h-50q-8 0 -13.5 2.5t-2.5 16.5l19 99q1 8 -3.5 9.5t-9.5 1.5h-585z" />
    <glyph glyph-name="afii10044" unicode="&#x42a;" horiz-adv-x="602" 
d="M232 521q1 10 -7 10h-148q-14 0 -12 11l10 61q1 7 6.5 10t11.5 3h239q6 0 9.5 -4.5t3.5 -9.5l-43 -221q-1 -6 0.5 -8.5t7.5 -2.5h97q41 0 72.5 -12.5t52.5 -35t31.5 -53t10.5 -66.5q0 -44 -16 -81t-44.5 -64t-68 -42.5t-86.5 -15.5h-213q-13 0 -13 14zM355 86
q55 0 88 32.5t33 84.5q0 37 -24 59t-58 22h-99q-10 0 -14 -13q-8 -41 -17.5 -87t-17.5 -88q0 -10 10 -10h99z" />
    <glyph glyph-name="afii10045" unicode="&#x42b;" horiz-adv-x="694" 
d="M141 607q3 10 16 10h68q15 0 13 -13l-44 -223q-1 -6 0.5 -8.5t7.5 -2.5h96q42 0 73 -12.5t52 -35t31.5 -53t10.5 -66.5q0 -44 -16 -81t-44.5 -64t-67.5 -42.5t-86 -15.5h-213q-13 0 -13 14zM594 14q-2 -14 -17 -14h-70q-13 0 -13 14q30 148 58 294.5t57 294.5q3 14 17 14
h69q14 0 14 -13zM247 86q55 0 88 32.5t33 84.5q0 37 -24 59t-59 22h-98q-10 0 -14 -13q-8 -41 -17.5 -87t-17.5 -88q0 -10 10 -10h99z" />
    <glyph glyph-name="afii10046" unicode="&#x42c;" horiz-adv-x="496" 
d="M145 607q3 10 15 10h68q15 0 13 -13l-44 -223q-1 -6 0.5 -8.5t7.5 -2.5h97q41 0 72.5 -12.5t52.5 -35t31.5 -53t10.5 -66.5q0 -44 -16 -81t-44.5 -64t-68 -42.5t-86.5 -15.5h-213q-13 0 -13 14zM250 86q56 0 88.5 32.5t32.5 84.5q0 37 -23.5 59t-58.5 22h-99
q-10 0 -14 -13q-8 -41 -17 -87t-17 -88q0 -10 10 -10h98z" />
    <glyph glyph-name="afii10047" unicode="&#x42d;" horiz-adv-x="450" 
d="M319 266q3 11 -10 11h-174q-15 0 -13 14l11 55q3 15 17 15h174q14 0 15 12q3 21 7 40.5t7 39.5q8 38 -13 62.5t-67 24.5q-23 0 -52 -12t-49 -35q-5 -7 -13 -9t-13 3l-41 34q-5 5 -5.5 11.5t3.5 11.5q38 49 83.5 65t94.5 16q76 0 122.5 -38.5t46.5 -104.5q0 -7 -0.5 -15.5
t-2.5 -16.5l-46 -269q-15 -87 -65.5 -137.5t-151.5 -50.5q-23 0 -46.5 6t-45 16.5t-39 24.5t-27.5 31q-4 8 -3.5 15.5t8.5 13.5l39 31q8 5 14.5 3t11.5 -7q15 -19 38.5 -34t54.5 -15q52 0 79 28t35 70z" />
    <glyph glyph-name="afii10028" unicode="&#x41a;" horiz-adv-x="517" 
d="M434 13q-1 -13 -14 -13h-69q-14 0 -11 12l23 181q2 19 1.5 37.5t-8.5 33t-24.5 23.5t-46.5 9q-53 0 -84.5 -30.5t-41.5 -77.5l-35 -175q-1 -13 -13 -13h-75q-13 0 -11 12l115 592q3 13 17 13h73q11 0 10 -12l-44 -219q-2 -9 2.5 -8t8.5 4l227 226q6 5 10.5 7t12.5 2h84
q9 0 10.5 -5t-3.5 -11l-223 -222q-11 -11 2 -11q20 0 37 -3q56 -11 80.5 -53t12.5 -110z" />
    <glyph glyph-name="afii10083" unicode="&#x441;" horiz-adv-x="412" 
d="M409 364q7 -14 -9 -24l-41 -28q-10 -7 -17 -3t-11 10q-13 23 -33.5 35t-45.5 12q-42 0 -67 -24.5t-32 -60.5l-24 -121q-3 -17 -2 -32.5t9 -27t23.5 -18.5t40.5 -7q33 0 58 18t42 33q7 6 14 8t15 -5l32 -30q14 -11 4 -24q-33 -42 -74 -61.5t-97 -19.5q-41 0 -74 12
t-54.5 33.5t-30 52.5t-0.5 70l22 114q15 80 62 126t136 46q51 0 91 -20t63 -64z" />
    <glyph glyph-name="afii10084" unicode="&#x442;" horiz-adv-x="713" 
d="M624 13q-3 -13 -15 -13h-70q-13 0 -10 12l52 267q7 38 -8 62.5t-58 24.5q-37 0 -63 -26t-34 -61l-51 -266q-3 -13 -15 -13h-69q-13 0 -11 12l51 265q3 17 1 33t-10 28.5t-21.5 20t-33.5 7.5q-39 0 -64.5 -27t-31.5 -60l-52 -266q-3 -13 -15 -13h-70q-13 0 -11 12l52 267
q7 36 23 66.5t41 53.5t59 36t77 13q38 0 71 -16t49 -40q6 -7 13 -1q25 23 60 40t75 17q39 0 68.5 -12.5t48 -35t24.5 -53.5t-1 -68z" />
    <glyph glyph-name="afii10081" unicode="&#x43f;" horiz-adv-x="471" 
d="M380 13q-1 -13 -14 -13h-70q-13 0 -11 12l52 265q8 38 -9 63.5t-61 25.5q-20 0 -37 -7.5t-31 -20.5t-23.5 -30t-13.5 -36l-50 -259q-1 -13 -15 -13h-69q-14 0 -11 12l81 416q3 13 15 13h68q13 0 10 -12l-3 -14q-2 -8 1.5 -9.5t11.5 3.5q22 18 48.5 28.5t49.5 10.5
q80 0 113.5 -47t19.5 -123z" />
    <glyph glyph-name="afii10074" unicode="&#x438;" horiz-adv-x="466" 
d="M373 13q-3 -13 -15 -13h-69q-12 0 -9 12l3 17q2 7 -3 8t-10 -4q-17 -17 -46 -28t-55 -11q-77 0 -110.5 46.5t-19.5 121.5l52 266q3 13 14 13h70q12 0 11 -12l-52 -265q-8 -38 8.5 -63t61.5 -25q19 0 36.5 7.5t31.5 20t23.5 29t12.5 35.5l51 260q1 13 15 13h69
q14 0 11 -12z" />
    <glyph glyph-name="afii10075" unicode="&#x439;" horiz-adv-x="466" 
d="M373 13q-3 -13 -15 -13h-69q-12 0 -9 12l3 17q2 7 -3 8t-10 -4q-17 -17 -46 -28t-55 -11q-77 0 -110.5 46.5t-19.5 121.5l52 266q3 13 14 13h70q12 0 11 -12l-52 -265q-8 -38 8.5 -63t61.5 -25q19 0 36.5 7.5t31.5 20t23.5 29t12.5 35.5l51 260q1 13 15 13h69
q14 0 11 -12zM288 568q27 0 43.5 16t28.5 42q3 7 6 9.5t11 2.5h34q10 0 11.5 -5t-0.5 -12q-15 -61 -50 -93t-92 -32q-25 0 -45.5 10.5t-34.5 27.5t-21 40t-5 48q1 7 4 11.5t13 4.5h32q8 0 11 -3t4 -9q4 -26 16 -42t34 -16z" />
    <glyph glyph-name="afii10038" unicode="&#x424;" horiz-adv-x="584" 
d="M536 237q-6 -36 -21 -67t-40.5 -55t-63.5 -38t-91 -15q-10 0 -11 -9l-7 -38q-3 -15 -17 -15h-67q-14 0 -12 14l8 39q2 9 -8 11q-77 17 -112.5 52.5t-35.5 100.5q0 19 4 35l30 150q7 36 25 67t45.5 54t63.5 37.5t80 16.5q8 0 10 6l5 20q3 14 17 14h65q14 0 13 -13l-4 -22
q-1 -4 5 -6q33 -5 61 -17t48.5 -30t32 -42.5t11.5 -52.5q0 -15 -3 -33zM471 405q5 32 -13.5 56t-56.5 28q-7 0 -7 -5l-65 -329q0 -7 7 -6q48 1 71 23.5t31 61.5zM297 483q1 7 -6 7q-48 -6 -71.5 -29.5t-30.5 -58.5l-34 -168q-6 -31 9.5 -54t59.5 -31q2 0 4.5 0.5t3.5 5.5z
" />
    <glyph glyph-name="afii10090" unicode="&#x448;" horiz-adv-x="711" 
d="M618 13q-3 -13 -15 -13h-69q-12 0 -9 12l3 17q2 7 -3 8t-10 -4q-17 -17 -41 -28t-50 -11q-73 0 -107 42q-6 6 -7 8t-9 -6q-24 -20 -56 -33t-67 -13q-39 0 -68.5 12.5t-48 35t-25 53.5t1.5 68l51 266q3 13 15 13h70q13 0 10 -12l-52 -267q-7 -38 8 -62.5t58 -24.5
q37 0 63.5 26t33.5 61l51 267q3 13 14 13h70q12 0 11 -12l-52 -265q-8 -38 8.5 -63t61.5 -25q39 0 63 27t31 65l51 260q1 13 15 13h69q14 0 11 -12z" />
    <glyph glyph-name="afii10091" unicode="&#x449;" horiz-adv-x="710" 
d="M533 32q-29 -25 -52.5 -32t-43.5 -7q-38 0 -66.5 15.5t-44.5 39.5q-6 7 -13 1q-25 -23 -60 -40t-75 -17q-39 0 -68.5 12.5t-48 35t-25 53.5t1.5 68l51 266q3 13 15 13h70q13 0 10 -12l-52 -267q-7 -38 8 -62.5t58 -24.5q37 0 63 26t34 61l51 266q3 13 15 13h69
q12 0 11 -12l-51 -265q-3 -17 -1 -33t10 -28.5t21.5 -20t33.5 -7.5q43 0 66 27t31 70l50 257q3 13 16 13h69q12 0 11 -12l-68 -350q-3 -12 -0.5 -20t6.5 -14t8.5 -9.5t6.5 -5.5q5 -5 7.5 -9.5t-0.5 -15.5l-37 -145q-3 -13 -16 -13h-46q-13 0 -10 15l28 119q1 7 -6 13
q-12 8 -18 17.5t-8 17.5q-1 5 -3 6.5t-8 -3.5z" />
    <glyph glyph-name="afii10048" unicode="&#x42e;" horiz-adv-x="685" 
d="M621 168q-8 -42 -23 -74t-40 -54.5t-61 -34t-85 -11.5q-40 0 -73.5 9.5t-57.5 28.5t-37.5 46.5t-13.5 62.5q0 9 1 18t3 19l15 81q1 7 -1 11.5t-11 4.5h-51q-8 0 -11 -3.5t-4 -8.5l-49 -248q-3 -15 -16 -15h-68q-16 0 -14 14l114 589q3 14 17 14h69q16 0 13 -13
q-11 -57 -22.5 -115.5t-22.5 -114.5q-2 -14 9 -14h55q8 1 10.5 4.5t4.5 11.5l15 76q16 82 71.5 128t140.5 46q38 0 71 -10t57 -28.5t37.5 -46.5t13.5 -64q0 -20 -5 -42zM578 450q7 39 -17 64t-65 25q-47 0 -76 -26t-37 -63l-53 -273q-9 -45 13 -70.5t69 -25.5q53 0 78 23
t33 66z" />
    <glyph glyph-name="afii10025" unicode="&#x417;" horiz-adv-x="451" 
d="M264 626q40 0 72 -11t54.5 -30.5t35 -46.5t12.5 -58q0 -21 -5.5 -43t-18.5 -41.5t-33 -35t-49 -24.5h-1q-6 -2 -1 -5q15 -6 28.5 -16.5t24 -25t17 -33t6.5 -39.5q0 -50 -15.5 -91t-44.5 -70t-70 -45.5t-92 -16.5q-24 0 -50.5 5t-50.5 15t-44.5 25.5t-33.5 36.5
q-4 8 -3 15t11 14l39 28q7 5 12 5.5t13 -9.5q15 -20 44.5 -34.5t59.5 -14.5q66 0 96 34t30 92q0 42 -29.5 64t-74.5 22h-51q-10 0 -13.5 6.5t-1.5 14.5l10 50q3 14 17 14h68q50 0 78 23t28 68q0 32 -22.5 51.5t-60.5 19.5q-22 0 -50.5 -10.5t-48.5 -30.5q-19 -19 -32 -8
l-37 34q-11 10 -8.5 15.5t9.5 13.5q37 42 83 57.5t93 15.5z" />
    <glyph glyph-name="afii10092" unicode="&#x44a;" horiz-adv-x="492" 
d="M341 288q31 0 55 -9.5t40 -26t24 -38t8 -44.5q0 -31 -12.5 -62.5t-38 -56.5t-64 -41t-91.5 -16q-43 0 -74.5 10.5t-51.5 28.5t-30 42t-11 51q0 31 6 61l31 164q1 2 1 4q0 6 -9 6h-98q-17 0 -15 16l9 50q2 8 7.5 11t13.5 2h186q17 0 17 -9q0 -1 -0.5 -1.5t-0.5 -1.5
q-8 -34 -14 -66.5t-14 -66.5q0 -7 7 -7h119zM208 209q-5 0 -6.5 -2t-2.5 -5q-3 -13 -6 -28.5t-3 -24.5q0 -14 3.5 -27t13 -23t25.5 -16.5t40 -6.5q45 0 72.5 24t27.5 55q0 24 -14.5 39t-46.5 15h-103z" />
    <glyph glyph-name="afii10093" unicode="&#x44b;" horiz-adv-x="629" 
d="M43 187q12 60 23.5 119t22.5 119q3 15 20 15h62q14 0 14 -8v-4l-27 -133q0 -7 6 -7h119q32 0 56 -9.5t39.5 -26t23.5 -38t8 -44.5q0 -31 -12 -62.5t-37.5 -56.5t-64.5 -41t-92 -16q-55 0 -90 16t-53.5 42.5t-22 61.5t4.5 73zM530 15q-3 -15 -20 -15h-60q-14 0 -14 12v3
l80 409q2 16 19 16h60q15 0 15 -12v-3zM150 209q-7 0 -9 -7q-3 -16 -5.5 -34t-2.5 -26q1 -24 18.5 -45t63.5 -21q45 0 72 24t27 55q0 23 -14 38.5t-46 15.5h-104z" />
    <glyph glyph-name="afii10094" unicode="&#x44c;" horiz-adv-x="429" 
d="M38 187q12 60 23 119t23 119q3 15 20 15h62q14 0 14 -8v-4l-27 -133v-2q0 -5 6 -5h119q31 0 55 -9.5t40 -26t24 -38t8 -44.5q0 -31 -12 -62.5t-37.5 -56.5t-64.5 -41t-92 -16q-43 0 -74.5 10.5t-51.5 28.5t-30 42t-11 51q0 31 6 61zM145 209q-5 0 -6.5 -2t-2.5 -5
q-3 -16 -5.5 -34t-2.5 -26q0 -12 4.5 -24t13.5 -21t24.5 -15t38.5 -6q45 0 72.5 24t27.5 55q0 24 -14.5 39t-46.5 15h-103z" />
    <glyph glyph-name="afii10096" unicode="&#x44e;" horiz-adv-x="609" 
d="M553 164q-8 -41 -20 -72.5t-33.5 -53.5t-53.5 -33t-79 -11q-92 0 -132 49.5t-27 131.5q2 9 -2 11.5t-10 2.5h-42q-6 0 -7.5 -2t-2.5 -5l-33 -167q-2 -8 -5.5 -11.5t-12.5 -3.5h-62q-17 0 -14 14l80 412q3 14 18 14h63q15 0 14 -13l-31 -155q-1 -7 6 -7h45q13 0 16 14
q14 76 61 123t133 47q40 0 71 -12.5t51.5 -36t28 -56t0.5 -72.5zM479 272q4 19 3 36.5t-8.5 30t-22 20t-37.5 7.5q-39 0 -61 -25t-30 -63l-22 -114q-7 -35 8 -61.5t59 -26.5q45 0 63.5 24t26.5 64z" />
    <glyph glyph-name="afii10097" unicode="&#x44f;" horiz-adv-x="453" 
d="M298 238q14 0 14 13l21 104q2 11 -10 11h-114q-15 0 -27 -6t-20 -15.5t-12.5 -21.5t-4.5 -23q-1 -12 3.5 -29t20.5 -29q5 -4 15 -4h114zM360 18q-3 -18 -19 -18h-61q-18 0 -14 18l28 130q1 8 -1.5 10t-10.5 2h-75q-7 0 -10 -2.5t-7 -7.5l-82 -131q-6 -9 -12 -14t-22 -5
h-61q-8 0 -11.5 6t2.5 15l94 147q3 5 3.5 7.5t-2.5 6.5q-23 23 -36 53t-9 68q3 30 14.5 56t30 44.5t43.5 29.5t55 11h212q11 0 16.5 -3t8 -7.5t2.5 -9.5t-1 -9z" />
    <glyph glyph-name="afii10193" unicode="&#x45f;" horiz-adv-x="466" 
d="M239 -163q-5 -13 -9 -16.5t-14 -3.5h-38q-12 0 -14.5 4t0.5 15l29 120q2 5 4 8.5t9 3.5h60q4 0 6.5 -2t0.5 -9zM373 13q-3 -13 -15 -13h-69q-12 0 -9 12l3 17q2 7 -3 8t-10 -4q-17 -17 -46 -28t-55 -11q-77 0 -110.5 46.5t-19.5 121.5l52 266q3 13 14 13h70q12 0 11 -12
l-52 -265q-8 -38 8.5 -63t61.5 -25q19 0 36.5 7.5t31.5 20t23.5 29t12.5 35.5l51 260q1 13 15 13h69q14 0 11 -12z" />
    <glyph glyph-name="afii10069" unicode="&#x434;" horiz-adv-x="452" 
d="M318 251q8 43 -12.5 67.5t-65.5 24.5q-42 0 -64 -25t-30 -64l-18 -89q-8 -38 11.5 -63.5t62.5 -25.5q40 0 64.5 21t33.5 67zM396 166q-6 -36 -20 -67t-37.5 -54.5t-57.5 -37t-82 -13.5q-49 0 -83.5 14.5t-54.5 40t-26.5 60t1.5 73.5l15 73q7 38 21.5 69.5t36.5 53.5
t53 34t73 12q24 0 54 -8t50 -26q7 -5 8 3l6 28q12 63 -11 99.5t-89 36.5q-33 0 -79 -10q-4 -1 -10.5 -1t-8.5 11l-9 47q-2 8 -0.5 12.5t12.5 8.5q26 8 52.5 10.5t49.5 2.5q106 0 153.5 -58.5t23.5 -188.5z" />
    <glyph glyph-name="afii10072" unicode="&#x436;" horiz-adv-x="709" 
d="M28 107q8 33 19.5 61.5t29.5 50.5t45 35t67 14q7 0 8 4t-2 7l-98 142q-3 5 -1 12t11 7h76q8 0 11.5 -1t7.5 -6l104 -156q5 -5 9 -3.5t6 11.5l28 145q3 12 15 12h70q12 0 10 -13l-25 -134q-2 -10 2.5 -11t10.5 4l151 145q5 5 9 6t12 1h86q11 0 10.5 -7t-7.5 -12l-153 -142
q-5 -3 -5 -7t7 -4q35 -2 56.5 -15t32 -34t12 -49.5t-3.5 -62.5l-12 -89q-4 -18 -18 -18h-65q-16 0 -13 15l12 91q5 43 -8 67t-58 24q-42 0 -65 -26t-31 -64l-18 -95q-3 -12 -14 -12h-71q-13 0 -10 12l21 111q3 12 2 25t-7.5 24t-20 18t-35.5 7q-26 0 -43.5 -7.5t-29.5 -20
t-19.5 -29t-11.5 -34.5l-23 -91q-2 -8 -5.5 -11.5t-12.5 -3.5h-65q-16 0 -12 18z" />
    <glyph glyph-name="afii10068" unicode="&#x433;" horiz-adv-x="388" 
d="M155 -7q-29 0 -54.5 6.5t-45 20t-31 34t-11.5 47.5q0 30 13 53.5t35 42.5t49.5 33t56.5 25q23 9 42.5 16t34 15t22.5 18t8 25q0 20 -16 30.5t-44 10.5q-21 0 -49.5 -11.5t-49.5 -31.5q-9 -7 -16 -4.5t-15 10.5l-25 26q-10 11 0 21q64 67 167 67q29 0 55 -7.5t45 -22
t30 -35.5t11 -48q0 -23 -7.5 -41t-19.5 -32t-27.5 -24t-30.5 -17q-35 -17 -66 -28.5t-54 -22.5t-37 -23t-16 -29q-1 -23 15.5 -35t41.5 -12q12 0 27 4.5t30 12t29 18.5t24 23q4 5 8.5 8t10.5 -2l47 -34q7 -5 5 -10.5t-7 -11.5q-34 -46 -82.5 -65.5t-102.5 -19.5z" />
    <glyph glyph-name="afii10066" unicode="&#x431;" horiz-adv-x="456" 
d="M201 -6q-51 0 -85 15.5t-52.5 42t-23 61t3.5 73.5l50 247q10 46 25 81t39.5 60t61.5 39.5t91 19.5l99 10q8 1 14 0t7 -13l3 -46q0 -18 -17 -19l-96 -10q-30 -3 -52.5 -9.5t-39.5 -20t-28.5 -35.5t-18.5 -55l-8 -40v-2q0 -3 3 -3t4 1q26 17 52.5 25t51.5 8q42 0 70 -14
t44 -37t20.5 -53t-1.5 -63l-18 -101q-13 -73 -62 -117.5t-137 -44.5zM252 346q-42 0 -67.5 -26.5t-33.5 -65.5l-17 -88q-3 -17 -2.5 -33t8 -29t23.5 -20.5t43 -7.5q42 0 67 23t34 67l18 90q8 37 -9.5 63.5t-63.5 26.5z" />
    <glyph glyph-name="afii10077" unicode="&#x43b;" horiz-adv-x="461" 
d="M130 427q2 14 19 14h288q6 0 10 -4t2 -9l-79 -414q-2 -8 -7 -11t-11 -3h-66q-9 0 -10.5 3.5t-1.5 9.5q17 85 32.5 167.5t31.5 166.5q5 13 -8 13h-113q-12 0 -14 -13q-5 -19 -7.5 -38t-7.5 -39q-15 -76 -31 -125.5t-37.5 -81.5t-49.5 -50.5t-66 -30.5q-5 -2 -10.5 -1
t-6.5 8l-17 52q-2 6 1 9.5t13 8.5q27 13 44.5 28.5t30 39.5t22 59.5t21.5 90.5l28 150v0z" />
    <glyph glyph-name="afii10078" unicode="&#x43c;" horiz-adv-x="570" 
d="M236 245l27 -104q2 -2 3 -2q3 0 3 2l67 102l122 182q7 9 12 12t15 3h59q14 0 14 -12v-4l-80 -408q-3 -16 -19 -16h-60q-14 0 -14 11v4l43 227q0 2 0.5 2.5t0.5 1.5q0 3 -2 3q-1 0 -5 -6l-42 -65l-90 -131q-4 -5 -9 -10t-14 -5h-38q-8 0 -11.5 2.5t-5.5 11.5l-35 127
l-18 70q-2 6 -3 6q-2 0 -3 -6l-22 -114t-22 -113q-2 -8 -5.5 -12t-12.5 -4h-59q-16 0 -16 12v3l80 408q1 6 5.5 11.5t15.5 5.5h48q13 0 16 -4t6 -12z" />
    <glyph glyph-name="afii10079" unicode="&#x43d;" horiz-adv-x="460" 
d="M353 426q2 7 7.5 11t12.5 4h61q8 0 12.5 -3.5t2.5 -11.5l-80 -411q-3 -15 -20 -15h-60q-19 0 -16 14l33 168q2 9 -8 9h-143q-5 0 -7.5 -3t-3.5 -6l-32 -167q-4 -15 -20 -15h-61q-18 0 -15 14l80 412q3 15 19 15h63q9 0 12 -3.5t2 -11.5l-31 -155q-1 -3 0.5 -6t6.5 -3h144
q9 0 11 9z" />
    <glyph glyph-name="afii10086" unicode="&#x444;" horiz-adv-x="560" 
d="M133 162q-7 -37 6.5 -62.5t47.5 -30.5q3 -1 9.5 0t8.5 15l53 265q2 11 -3.5 13.5t-10.5 2.5q-18 0 -33 -8t-26.5 -20.5t-19 -29t-10.5 -34.5zM58 265q7 35 21.5 67t39 57t60 40.5t84.5 16.5q3 0 8 3t7 13l33 163q2 13 15 13h70q8 0 10 -2.5t1 -10.5l-33 -164
q-2 -11 4 -14t11 -4q78 -8 112.5 -58t21.5 -123l-16 -90q-7 -36 -21 -68.5t-38 -57.5t-58.5 -41t-83.5 -19q-5 0 -15.5 -3t-13.5 -18l-26 -133q-1 -13 -14 -13h-71q-11 0 -9 12l27 141q4 17 -2.5 19.5t-11.5 3.5q-38 4 -65.5 21t-43 42.5t-20.5 58t2 68.5zM431 273
q7 36 -6 61t-51 32q-5 1 -12 -0.5t-9 -12.5l-53 -274q-2 -8 4 -10.5t11 -2.5q21 0 37.5 8t28 22t18.5 31t11 35z" />
    <glyph glyph-name="afii10067" unicode="&#x432;" horiz-adv-x="466" 
d="M211 -6q-88 0 -131 39.5t-43 101.5q0 11 1.5 22t3.5 23l20 99q17 80 71 124.5t140 44.5q34 0 63 -8.5t51 -23.5t34.5 -36t12.5 -46q0 -33 -15.5 -55.5t-41.5 -35.5q-2 -1 -2 -4q0 -2 3 -3q26 -9 36.5 -29.5t10.5 -40.5q0 -29 -12 -59.5t-37.5 -55.5t-66.5 -41t-98 -16z
M222 265q1 9 11 9h30q32 0 55 9.5t23 39.5q0 23 -20.5 34t-55.5 11q-17 0 -35 -6.5t-33 -18.5t-26.5 -30t-15.5 -40q-5 -26 -10 -52.5t-10 -52.5q-3 -18 -3 -35t8.5 -30t27 -21t52.5 -8q27 0 46.5 8t33 20t20 27t6.5 29q0 20 -17.5 34.5t-55.5 14.5h-32q-9 0 -9 8z" />
    <glyph glyph-name="afii10088" unicode="&#x446;" horiz-adv-x="466" 
d="M169 -6q-77 0 -109.5 43t-20.5 115q0 1 3 17t7.5 40.5t10.5 55.5t12 61.5t11 57.5t8 44q3 13 15 13h70q13 0 10 -12l-51 -269q-8 -36 9 -60t55 -24q43 0 72.5 26t37.5 69l50 257q3 13 16 13h69q12 0 11 -12l-68 -350q-3 -12 -0.5 -20t7 -14t9 -9.5t6.5 -5.5
q5 -5 7.5 -9.5t-0.5 -15.5l-34 -145q-4 -13 -16 -13h-47q-13 0 -10 15l25 119q1 7 -6 13q-12 9 -18.5 21t-8.5 20q-1 5 -3 7t-8 -3q-25 -22 -60 -33.5t-61 -11.5z" />
    <glyph glyph-name="afii10073" unicode="&#x437;" horiz-adv-x="404" 
d="M160 -6q-48 0 -89 18.5t-65 56.5q-2 4 -2 7q0 5 3 9t8 9l39 34q5 4 11 4q8 0 14 -8t12 -15q31 -33 71 -33q32 0 57 16.5t27 49.5q0 23 -13 36.5t-35 13.5h-61q-10 0 -10 9q0 2 0.5 3.5t0.5 3.5l10 46q1 6 4.5 9t8.5 3h64q10 0 21 2.5t20.5 8.5t16 16t6.5 25
q0 25 -19 36.5t-45 11.5q-27 0 -49 -11.5t-49 -34.5q-7 -5 -11 -5q-7 0 -11 5l-29 36q-7 10 -7 14q0 5 5 10q37 38 78 53t95 15q29 -1 54.5 -8t44.5 -21t30 -35t11 -48q0 -35 -18.5 -64t-54.5 -43q-4 -4 -4 -5q0 -4 3 -5q23 -11 32.5 -31t9.5 -40q0 -36 -13.5 -64.5
t-38.5 -48.5t-59 -30.5t-74 -10.5z" />
    <glyph glyph-name="afii10089" unicode="&#x447;" horiz-adv-x="446" 
d="M72 428q3 13 15 13h70q13 0 10 -12l-21 -108q-8 -38 5.5 -63t64.5 -25q25 0 45.5 7.5t33.5 15.5q3 2 8.5 7t7.5 15l29 150q3 13 16 13h69q13 0 10 -12l-81 -416q-3 -13 -14 -13h-70q-13 0 -10 13l30 153q2 5 -0.5 7t-5.5 2q-4 0 -7 -3q-20 -11 -43.5 -16t-47.5 -5
q-41 0 -70 13.5t-45.5 36.5t-21 55t2.5 69l20 103v0z" />
    <glyph glyph-name="afii10095" unicode="&#x44d;" horiz-adv-x="399" 
d="M126 253q0 10 13 10h116q12 0 15 17q9 38 -11 62.5t-61 24.5q-49 0 -88 -40q-9 -9 -16.5 -12t-17.5 7l-31 28q-13 12 1 24q63 73 163 73q40 0 72 -11.5t53 -33.5t29.5 -54t1.5 -72l-20 -114q-6 -36 -18.5 -67t-35 -53.5t-57 -35t-85.5 -12.5q-22 0 -44.5 5t-43 15.5
t-37 25.5t-25.5 36q-6 12 12 24l31 22q6 4 11.5 5.5t10.5 -3.5q8 -9 16.5 -17.5t19 -15.5t25 -11t34.5 -4q42 0 62.5 24t27.5 76q1 8 -0.5 11t-7.5 3h-120q-10 0 -8 11z" />
    <glyph glyph-name="afii10049" unicode="&#x42f;" horiz-adv-x="518" 
d="M514 617q9 0 11 -4t1 -10l-110 -589q-5 -14 -17 -14h-68q-13 0 -13 14q11 56 22 111t22 111q0 3 -1 6.5t-5 3.5h-93q-8 0 -11 -2.5t-6 -7.5l-133 -215q-8 -10 -14.5 -15.5t-24.5 -5.5h-61q-11 0 -14 8t4 19l146 231l1 2q0 1 1 2q0 1 -1 2q-26 28 -41.5 63t-15.5 83
q0 46 15.5 84t42.5 65.5t64.5 42.5t82.5 15h216zM311 531q-30 0 -52 -9.5t-36.5 -25t-21.5 -35.5t-7 -40q0 -17 5 -40t21 -40q10 -10 24 -10q3 0 7.5 -0.5t17 -0.5h36h63.5q11 0 13 9l37 183q1 9 -10 9h-97z" />
    <glyph glyph-name="Circumflex" unicode="&#xf6c0;" horiz-adv-x="449" 
d="M452 676q3 -5 3 -9.5t-8 -8.5l-24 -11q-8 -4 -12.5 -3.5t-8.5 4.5l-67 62q-6 5 -14 0l-115 -62q-7 -4 -11 -4.5t-11 3.5l-22 11q-7 4 -4 8.5t8 9.5l121 102q10 9 23 9h50q13 0 19 -9l73 -102v0z" />
    <glyph glyph-name="commaaccent" unicode="&#xf6c3;" horiz-adv-x="484" 
d="M167 -215q-5 -10 -11.5 -13.5t-14.5 -3.5h-27q-11 0 -12 7.5t1 16.5l39 145q5 22 27 22h62q15 0 17 -7t-5 -19z" />
    <glyph glyph-name="Acute" unicode="&#xf6c9;" horiz-adv-x="449" 
d="M492 735q6 -8 0.5 -14t-10.5 -8l-162 -67q-5 -2 -12 -1t-10 7l-14 21q-7 11 7 19l139 89q23 15 37 -7l25 -39v0z" />
    <glyph glyph-name="Caron" unicode="&#xf6ca;" horiz-adv-x="444" 
d="M186 761q-3 5 -3 9.5t8 8.5l23 10q8 4 12.5 3.5t8.5 -4.5l69 -61q6 -5 14 0l111 61q7 4 11 4.5t11 -3.5l25 -10q7 -4 4 -8.5t-8 -9.5l-121 -102q-5 -5 -10 -7t-13 -2h-50q-13 0 -19 9l-73 102v0z" />
    <glyph glyph-name="Dieresis" unicode="&#xf6cb;" horiz-adv-x="449" 
d="M460 705q-4 -23 -22 -38t-41 -15t-36 15t-8 38q5 22 23 37t41 15t35.5 -15t7.5 -37zM292 705q-5 -23 -23 -38t-41 -15t-35.5 15t-8.5 38q5 22 23 37t41 15t35.5 -15t8.5 -37z" />
    <glyph glyph-name="DieresisAcute" unicode="&#xf6cc;" horiz-adv-x="454" 
d="M472 711q-5 -23 -23 -38t-41 -15t-36 15t-8 38q5 22 23.5 37.5t41.5 15.5q22 0 35 -15.5t8 -37.5zM193 711q-5 -23 -23 -38t-41 -15t-35.5 15t-7.5 38q4 22 22.5 37.5t41.5 15.5t35.5 -15.5t7.5 -37.5zM384 805q8 -6 5.5 -12.5t-6.5 -10.5l-130 -120q-3 -3 -8.5 -4.5
t-13.5 3.5l-21 13q-12 7 -3 19l105 139q5 6 12 8t12 -2z" />
    <glyph glyph-name="DieresisGrave" unicode="&#xf6cd;" horiz-adv-x="449" 
d="M472 711q-5 -23 -23 -38t-41 -15t-36 15t-8 38q5 22 23.5 37.5t41.5 15.5q22 0 35 -15.5t8 -37.5zM193 711q-5 -23 -23 -38t-41 -15t-35.5 15t-7.5 38q4 22 22.5 37.5t41.5 15.5t35.5 -15.5t7.5 -37.5zM209 833q22 17 38 -6l100 -132q4 -5 5 -10t-5 -10l-21 -14
q-4 -6 -11 -5t-12 6l-128 120q-4 2 -7.5 9.5t5.5 12.5z" />
    <glyph glyph-name="Grave" unicode="&#xf6ce;" horiz-adv-x="449" 
d="M160 774q14 22 37 7l139 -89q14 -8 7 -19l-14 -21q-3 -6 -10 -7t-12 1l-162 67q-5 2 -10.5 8t0.5 14z" />
    <glyph glyph-name="Hungarumlaut" unicode="&#xf6cf;" horiz-adv-x="501" 
d="M403 746q7 -8 2 -14.5t-10 -8.5l-155 -82q-5 -3 -12 -2.5t-11 6.5l-15 19q-8 10 5 20l130 102q21 16 37 -4zM566 746q7 -8 2 -14.5t-10 -8.5l-155 -82q-5 -3 -12 -2.5t-11 6.5l-15 19q-8 10 5 20l130 102q21 16 37 -4z" />
    <glyph glyph-name="Macron" unicode="&#xf6d0;" horiz-adv-x="449" 
d="M433 682q-3 -15 -18 -15h-209q-16 0 -13 15l8 41q3 15 18 15h209q16 0 13 -14l-8 -42v0z" />
    <glyph glyph-name="cyrBreve" unicode="&#xf6d1;" horiz-adv-x="449" 
d="M319 712q27 0 43.5 16t28.5 42q3 7 6 9.5t11 2.5h34q10 0 11.5 -5t-0.5 -12q-15 -61 -50 -93t-92 -32q-25 0 -45.5 10.5t-34.5 27.5t-21 40t-5 48q1 7 4 11.5t13 4.5h32q8 0 11 -3t4 -9q4 -26 16 -42t34 -16z" />
    <glyph glyph-name="cyrbreve" unicode="&#xf6d4;" horiz-adv-x="463" 
d="M316 568q27 0 43.5 16t28.5 42q3 7 6 9.5t11 2.5h34q10 0 11.5 -5t-0.5 -12q-15 -61 -50 -93t-92 -32q-25 0 -45.5 10.5t-34.5 27.5t-21 40t-5 48q1 7 4 11.5t13 4.5h32q8 0 11 -3t4 -9q4 -26 16 -42t34 -16z" />
    <glyph glyph-name="ring" unicode="&#x2da;" horiz-adv-x="450" 
d="M298 474q-38 0 -58.5 21t-20.5 51q0 20 8 39t22 33.5t33 23.5t41 9q33 0 56.5 -20.5t23.5 -51.5q0 -45 -28.5 -75t-76.5 -30zM302 521q23 0 37 14.5t14 35.5q0 14 -9.5 23.5t-24.5 9.5q-23 0 -35.5 -15.5t-12.5 -35.5q0 -14 8.5 -23t22.5 -9z" />
    <glyph glyph-name="Scaron" unicode="&#x160;" horiz-adv-x="461" 
d="M197 -5q-50 0 -97.5 14t-81.5 46q-5 5 -4.5 10.5t6.5 15.5l32 41q6 7 11.5 9.5t16.5 -7.5q18 -14 53.5 -27.5t78.5 -13.5q23 0 44 6.5t37.5 18.5t26 30t9.5 41q0 19 -9 34t-23.5 27t-33 21t-37.5 18q-24 10 -50.5 23t-48.5 32t-36.5 45t-14.5 62q0 45 16.5 79.5t45 57.5
t67 35t81.5 12q48 0 93.5 -14.5t76.5 -43.5q10 -12 -2 -27l-32 -39q-6 -8 -12 -7.5t-14 6.5q-30 23 -58 31t-51 8q-22 0 -42 -5.5t-35 -16.5t-24 -27.5t-9 -39.5q0 -17 9 -30t23 -23.5t31 -18.5t32 -15q25 -11 54 -26t53 -35t40 -47t16 -62q0 -48 -17.5 -85t-49 -62t-75 -38
t-96.5 -13zM168 761q-3 5 -3 9.5t8 8.5l23 10q8 4 12.5 3.5t8.5 -4.5l69 -61q6 -5 14 0l111 61q7 4 11 4.5t11 -3.5l25 -10q7 -4 4 -8.5t-8 -9.5l-121 -102q-5 -5 -10 -7t-13 -2h-50q-13 0 -19 9z" />
    <glyph glyph-name="scaron" unicode="&#x161;" horiz-adv-x="402" 
d="M174 -6q-26 0 -50.5 5.5t-46 16.5t-38.5 29t-27 44q-4 9 8 17l50 26q7 4 10.5 2t7.5 -7q13 -25 35 -39.5t57 -14.5q28 0 49 12.5t21 42.5q0 19 -20.5 30t-46.5 22q-19 8 -41 17.5t-40.5 23.5t-31 34.5t-12.5 50.5q0 34 12 60.5t34 44.5t52 27.5t65 9.5q45 0 85 -15.5
t66 -49.5q5 -5 2.5 -10t-8.5 -11l-36 -36q-5 -5 -11.5 -4t-11.5 7q-16 18 -39.5 29.5t-47.5 11.5q-29 0 -48 -13t-19 -41q0 -20 17.5 -30.5t42.5 -21.5q22 -10 46 -20.5t44.5 -25.5t33.5 -35.5t13 -48.5q0 -36 -14 -62t-38 -43.5t-56 -26t-68 -8.5zM120 618q-3 5 -3 10.5
t8 10.5l26 14q14 8 21 -2l68 -85q6 -7 14 -1l116 87q7 5 11 5.5t11 -4.5l20 -14q7 -5 4 -10.5t-8 -10.5l-122 -124q-5 -5 -10 -8t-13 -3h-50q-13 0 -19 11z" />
    <glyph glyph-name="zcaron" unicode="&#x17e;" horiz-adv-x="415" 
d="M401 388q-2 -8 -6 -16.5t-9 -14.5l-233 -261q-6 -7 -4.5 -11t9.5 -4h186q13 0 10 -12l-11 -56q-1 -13 -14 -13h-313q-12 0 -16 5.5t-2 13.5l5 28q2 7 5 15t10 15l241 269q5 5 4 9.5t-9 4.5h-167q-14 0 -11 12l11 56q3 13 15 13h285q25 0 20 -20zM147 618q-3 5 -3 10.5
t8 10.5l26 14q14 8 21 -2l68 -85q6 -7 14 -1l116 87q7 5 11 5.5t11 -4.5l20 -14q7 -5 4 -10.5t-8 -10.5l-122 -124q-5 -5 -10 -8t-13 -3h-50q-13 0 -19 11z" />
    <glyph glyph-name="Ydieresis" unicode="&#x178;" horiz-adv-x="439" 
d="M280 245q-6 -10 -8.5 -16.5t-4.5 -14.5l-39 -201q-3 -13 -17 -13h-68q-14 0 -13 13l40 205q1 5 1.5 12.5t-1.5 15.5l-86 352q-5 19 15 19h63q10 0 15.5 -2.5t7.5 -11.5l49 -259q2 -5 4.5 -4.5t4.5 4.5l148 257q6 9 10.5 12.5t17.5 3.5h74q14 0 14 -8q0 -3 -4 -11z
M290 705q-5 -23 -23 -38t-41 -15t-35.5 15t-8.5 38q5 22 23 37t41 15t35.5 -15t8.5 -37zM458 705q-4 -23 -22 -38t-41 -15t-36 15t-8 38q5 22 23 37t41 15t35.5 -15t7.5 -37z" />
    <glyph glyph-name="Agrave" unicode="&#xc0;" horiz-adv-x="460" 
d="M331 0q-13 0 -16 12q-1 29 -2 56.5t-3 56.5q0 8 -7 8h-164q-7 0 -11 -8q-12 -28 -24 -57t-24 -56q-5 -12 -18 -12h-69q-12 0 -13.5 6t2.5 14q64 144 130.5 293t131.5 293q5 11 18 11h96q15 0 16 -11q11 -147 20 -293t20 -293q0 -5 -3 -12.5t-14 -7.5h-66zM245 397
q-17 -45 -36 -87.5t-38 -87.5l-2 -4q0 -3 6 -3h122q9 0 9 9q-1 22 -2 50t-2 53.5t-2 45t-1 23.5l-3 114q0 3 -2 3t-4 -4zM164 785q14 22 37 7l139 -89q14 -8 7 -19l-14 -21q-3 -6 -10 -7t-12 1l-162 67q-5 2 -10.5 8t0.5 14z" />
    <glyph glyph-name="Aacute" unicode="&#xc1;" horiz-adv-x="460" 
d="M331 0q-13 0 -16 12q-1 29 -2 56.5t-3 56.5q0 8 -7 8h-164q-7 0 -11 -8q-12 -28 -24 -57t-24 -56q-5 -12 -18 -12h-69q-12 0 -13.5 6t2.5 14q64 144 130.5 293t131.5 293q5 11 18 11h96q15 0 16 -11q11 -147 20 -293t20 -293q0 -5 -3 -12.5t-14 -7.5h-66zM245 397
q-17 -45 -36 -87.5t-38 -87.5l-2 -4q0 -3 6 -3h122q9 0 9 9q-1 22 -2 50t-2 53.5t-2 45t-1 23.5l-3 114q0 3 -2 3t-4 -4zM489 744q6 -8 0.5 -14t-10.5 -8l-162 -67q-5 -2 -12 -1t-10 7l-14 21q-7 11 7 19l139 89q23 15 37 -7z" />
    <glyph glyph-name="Acircumflex" unicode="&#xc2;" horiz-adv-x="460" 
d="M331 0q-13 0 -16 12q-1 29 -2 56.5t-3 56.5q0 8 -7 8h-164q-7 0 -11 -8q-12 -28 -24 -57t-24 -56q-5 -12 -18 -12h-69q-12 0 -13.5 6t2.5 14q64 144 130.5 293t131.5 293q5 11 18 11h96q15 0 16 -11q11 -147 20 -293t20 -293q0 -5 -3 -12.5t-14 -7.5h-66zM460 684
q3 -5 3 -9.5t-8 -8.5l-24 -11q-8 -4 -12.5 -3.5t-8.5 4.5l-67 62q-6 5 -14 0l-115 -62q-7 -4 -11 -4.5t-11 3.5l-22 11q-7 4 -4 8.5t8 9.5l121 102q10 9 23 9h50q13 0 19 -9zM245 397q-17 -45 -36 -87.5t-38 -87.5l-2 -4q0 -3 6 -3h122q9 0 9 9q-1 22 -2 50t-2 53.5t-2 45
t-1 23.5l-3 114q0 3 -2 3t-4 -4z" />
    <glyph glyph-name="Atilde" unicode="&#xc3;" horiz-adv-x="460" 
d="M331 0q-13 0 -16 12q-1 29 -2 56.5t-3 56.5q0 8 -7 8h-164q-7 0 -11 -8q-12 -28 -24 -57t-24 -56q-5 -12 -18 -12h-69q-12 0 -13.5 6t2.5 14q64 144 130.5 293t131.5 293q5 11 18 11h96q15 0 16 -11q11 -147 20 -293t20 -293q0 -5 -3 -12.5t-14 -7.5h-66zM245 397
q-17 -45 -36 -87.5t-38 -87.5l-2 -4q0 -3 6 -3h122q9 0 9 9q-1 22 -2 50t-2 53.5t-2 45t-1 23.5l-3 114q0 3 -2 3t-4 -4zM461 754q5 -5 6 -9t-5 -12q-21 -31 -48 -43.5t-49 -12.5q-17 0 -30.5 5.5t-25.5 12t-24.5 12t-26.5 5.5q-8 0 -20 -7t-23 -18q-8 -9 -14.5 -8.5
t-11.5 5.5l-17 17q-7 8 -7.5 14t5.5 14q19 23 44.5 37.5t51.5 14.5q16 0 30 -6t27.5 -13t26 -13t24.5 -6q11 0 21.5 9.5t19.5 20.5t20 2z" />
    <glyph glyph-name="Adieresis" unicode="&#xc4;" horiz-adv-x="460" 
d="M331 0q-13 0 -16 12q-1 29 -2 56.5t-3 56.5q0 8 -7 8h-164q-7 0 -11 -8q-12 -28 -24 -57t-24 -56q-5 -12 -18 -12h-69q-12 0 -13.5 6t2.5 14q64 144 130.5 293t131.5 293q5 11 18 11h96q15 0 16 -11q11 -147 20 -293t20 -293q0 -5 -3 -12.5t-14 -7.5h-66zM245 397
q-17 -45 -36 -87.5t-38 -87.5l-2 -4q0 -3 6 -3h122q9 0 9 9q-1 22 -2 50t-2 53.5t-2 45t-1 23.5l-3 114q0 3 -2 3t-4 -4zM296 718q-5 -23 -23 -38t-41 -15t-35.5 15t-8.5 38q5 22 23 37t41 15t35.5 -15t8.5 -37zM464 718q-4 -23 -22 -38t-41 -15t-36 15t-8 38q5 22 23 37
t41 15t35.5 -15t7.5 -37z" />
    <glyph glyph-name="Aring" unicode="&#xc5;" horiz-adv-x="460" 
d="M331 0q-13 0 -16 12q-1 29 -2 56.5t-3 56.5q0 8 -7 8h-164q-7 0 -11 -8q-12 -28 -24 -57t-24 -56q-5 -12 -18 -12h-69q-12 0 -13.5 6t2.5 14q64 144 130.5 293t131.5 293q5 11 18 11h96q15 0 16 -11q11 -147 20 -293t20 -293q0 -5 -3 -12.5t-14 -7.5h-66zM314 646
q-38 0 -58.5 21t-20.5 51q0 20 8 39t22 33.5t33 23.5t41 9q33 0 56.5 -20.5t23.5 -51.5q0 -45 -28.5 -75t-76.5 -30zM245 397q-17 -45 -36 -87.5t-38 -87.5l-2 -4q0 -3 6 -3h122q9 0 9 9q-1 22 -2 50t-2 53.5t-2 45t-1 23.5l-3 114q0 3 -2 3t-4 -4zM318 693q23 0 37 14.5
t14 35.5q0 14 -9.5 23.5t-24.5 9.5q-23 0 -35.5 -15.5t-12.5 -35.5q0 -14 8.5 -23t22.5 -9z" />
    <glyph glyph-name="Egrave" unicode="&#xc8;" horiz-adv-x="457" 
d="M390 14q-3 -14 -17 -14h-335q-12 0 -12 10v4l114 589q3 14 18 14h327q15 0 12 -15l-11 -56q-3 -15 -16 -15h-232q-14 0 -15 -11l-30 -149v-3q0 -9 9 -9h192q9 0 11 -4.5t1 -10.5l-10 -59q-4 -13 -16 -13h-193q-13 0 -14 -12l-33 -164v-2q0 -8 11 -8h238q6 0 10 -4t2 -10z
M186 786q14 22 37 7l139 -89q14 -8 7 -19l-14 -21q-3 -6 -10 -7t-12 1l-162 67q-5 2 -10.5 8t0.5 14z" />
    <glyph glyph-name="Eacute" unicode="&#xc9;" horiz-adv-x="457" 
d="M390 14q-3 -14 -17 -14h-335q-12 0 -12 10v4l114 589q3 14 18 14h327q15 0 12 -15l-11 -56q-3 -15 -16 -15h-232q-14 0 -15 -11l-30 -149v-3q0 -9 9 -9h192q9 0 11 -4.5t1 -10.5l-10 -59q-4 -13 -16 -13h-193q-13 0 -14 -12l-33 -164v-2q0 -8 11 -8h238q6 0 10 -4t2 -10z
M463 743q6 -8 0.5 -14t-10.5 -8l-162 -67q-5 -2 -12 -1t-10 7l-14 21q-7 11 7 19l139 89q23 15 37 -7z" />
    <glyph glyph-name="Ecircumflex" unicode="&#xca;" horiz-adv-x="457" 
d="M390 14q-3 -14 -17 -14h-335q-12 0 -12 10v4l114 589q3 14 18 14h327q15 0 12 -15l-11 -56q-3 -15 -16 -15h-232q-14 0 -15 -11l-30 -149v-3q0 -9 9 -9h192q9 0 11 -4.5t1 -10.5l-10 -59q-4 -13 -16 -13h-193q-13 0 -14 -12l-33 -164v-2q0 -8 11 -8h238q6 0 10 -4t2 -10z
M465 695q3 -5 3 -9.5t-8 -8.5l-24 -11q-8 -4 -12.5 -3.5t-8.5 4.5l-67 62q-6 5 -14 0l-115 -62q-7 -4 -11 -4.5t-11 3.5l-22 11q-7 4 -4 8.5t8 9.5l121 102q10 9 23 9h50q13 0 19 -9z" />
    <glyph glyph-name="Edieresis" unicode="&#xcb;" horiz-adv-x="457" 
d="M390 14q-3 -14 -17 -14h-335q-12 0 -12 10v4l114 589q3 14 18 14h327q15 0 12 -15l-11 -56q-3 -15 -16 -15h-232q-14 0 -15 -11l-30 -149v-3q0 -9 9 -9h192q9 0 11 -4.5t1 -10.5l-10 -59q-4 -13 -16 -13h-193q-13 0 -14 -12l-33 -164v-2q0 -8 11 -8h238q6 0 10 -4t2 -10z
M303 721q-5 -23 -23 -38t-41 -15t-35.5 15t-8.5 38q5 22 23 37t41 15t35.5 -15t8.5 -37zM471 721q-4 -23 -22 -38t-41 -15t-36 15t-8 38q5 22 23 37t41 15t35.5 -15t7.5 -37z" />
    <glyph glyph-name="Igrave" unicode="&#xcc;" horiz-adv-x="248" 
d="M47 0q-16 0 -13 15l114 588q3 14 18 14h70q6 0 10.5 -3.5t2.5 -10.5l-114 -588q-3 -15 -18 -15h-70zM54 791q14 22 37 7l139 -89q14 -8 7 -19l-14 -21q-3 -6 -10 -7t-12 1l-162 67q-5 2 -10.5 8t0.5 14z" />
    <glyph glyph-name="Iacute" unicode="&#xcd;" horiz-adv-x="248" 
d="M47 0q-16 0 -13 15l114 588q3 14 18 14h70q6 0 10.5 -3.5t2.5 -10.5l-114 -588q-3 -15 -18 -15h-70zM389 749q6 -8 0.5 -14t-10.5 -8l-162 -67q-5 -2 -12 -1t-10 7l-14 21q-7 11 7 19l139 89q23 15 37 -7z" />
    <glyph glyph-name="Icircumflex" unicode="&#xce;" horiz-adv-x="248" 
d="M47 0q-16 0 -13 15l114 588q3 14 18 14h70q6 0 10.5 -3.5t2.5 -10.5l-114 -588q-3 -15 -18 -15h-70zM358 684q3 -5 3 -9.5t-8 -8.5l-24 -11q-8 -4 -12.5 -3.5t-8.5 4.5l-67 62q-6 5 -14 0l-115 -62q-7 -4 -11 -4.5t-11 3.5l-22 11q-7 4 -4 8.5t8 9.5l121 102q10 9 23 9
h50q13 0 19 -9z" />
    <glyph glyph-name="Idieresis" unicode="&#xcf;" horiz-adv-x="248" 
d="M47 0q-16 0 -13 15l114 588q3 14 18 14h70q6 0 10.5 -3.5t2.5 -10.5l-114 -588q-3 -15 -18 -15h-70zM192 719q-5 -23 -23 -38t-41 -15t-35.5 15t-8.5 38q5 22 23 37t41 15t35.5 -15t8.5 -37zM360 719q-4 -23 -22 -38t-41 -15t-36 15t-8 38q5 22 23 37t41 15t35.5 -15
t7.5 -37z" />
    <glyph glyph-name="Ntilde" unicode="&#xd1;" horiz-adv-x="539" 
d="M208 617q13 0 18 -4.5t9 -12.5q35 -103 69 -209.5t69 -208.5q0 -1 1 -2q2 0 2 2l83 421q3 14 17 14h64q17 0 12 -13q-28 -147 -56 -292t-57 -292q-2 -12 -9 -16t-15 -4h-44q-11 0 -17.5 3t-9.5 12q-17 47 -35 99.5t-36 106t-36 106t-35 99.5q0 2 -2 2l-1 -2l-78 -413
q-4 -13 -17 -13h-65q-14 0 -13 13l113 580q2 12 7 18t19 6h43zM507 728q5 -5 6 -9t-5 -12q-21 -31 -48 -43.5t-49 -12.5q-17 0 -30.5 5.5t-25.5 12t-24.5 12t-26.5 5.5q-8 0 -20 -7t-23 -18q-8 -9 -14.5 -8.5t-11.5 5.5l-17 17q-7 8 -7.5 14t5.5 14q19 23 44.5 37.5
t51.5 14.5q16 0 30 -6t27.5 -13t26 -13t24.5 -6q11 0 21.5 9.5t19.5 20.5t20 2z" />
    <glyph glyph-name="Ograve" unicode="&#xd2;" horiz-adv-x="508" 
d="M444 173q-8 -40 -24 -73t-42 -56.5t-63.5 -36.5t-88.5 -13q-47 0 -83 14.5t-59 40t-31.5 61t-0.5 77.5l51 262q16 83 70.5 130t144.5 47q42 0 78.5 -12.5t61 -36.5t35.5 -59t2 -79zM397 444q8 40 -15 67.5t-69 27.5q-47 0 -76 -26.5t-37 -64.5l-52 -266q-7 -45 15 -73
t67 -28q51 0 79 24.5t36 66.5zM238 796q14 22 37 7l139 -89q14 -8 7 -19l-14 -21q-3 -6 -10 -7t-12 1l-162 67q-5 2 -10.5 8t0.5 14z" />
    <glyph glyph-name="Oacute" unicode="&#xd3;" horiz-adv-x="508" 
d="M444 173q-8 -40 -24 -73t-42 -56.5t-63.5 -36.5t-88.5 -13q-47 0 -83 14.5t-59 40t-31.5 61t-0.5 77.5l51 262q16 83 70.5 130t144.5 47q42 0 78.5 -12.5t61 -36.5t35.5 -59t2 -79zM397 444q8 40 -15 67.5t-69 27.5q-47 0 -76 -26.5t-37 -64.5l-52 -266q-7 -45 15 -73
t67 -28q51 0 79 24.5t36 66.5zM512 748q6 -8 0.5 -14t-10.5 -8l-162 -67q-5 -2 -12 -1t-10 7l-14 21q-7 11 7 19l139 89q23 15 37 -7z" />
    <glyph glyph-name="Ocircumflex" unicode="&#xd4;" horiz-adv-x="508" 
d="M444 173q-8 -40 -24 -73t-42 -56.5t-63.5 -36.5t-88.5 -13q-47 0 -83 14.5t-59 40t-31.5 61t-0.5 77.5l51 262q16 83 70.5 130t144.5 47q42 0 78.5 -12.5t61 -36.5t35.5 -59t2 -79zM397 444q8 40 -15 67.5t-69 27.5q-47 0 -76 -26.5t-37 -64.5l-52 -266q-7 -45 15 -73
t67 -28q51 0 79 24.5t36 66.5zM483 688q3 -5 3 -9.5t-8 -8.5l-24 -11q-8 -4 -12.5 -3.5t-8.5 4.5l-67 62q-6 5 -14 0l-115 -62q-7 -4 -11 -4.5t-11 3.5l-22 11q-7 4 -4 8.5t8 9.5l121 102q10 9 23 9h50q13 0 19 -9z" />
    <glyph glyph-name="Otilde" unicode="&#xd5;" horiz-adv-x="508" 
d="M444 173q-8 -40 -24 -73t-42 -56.5t-63.5 -36.5t-88.5 -13q-47 0 -83 14.5t-59 40t-31.5 61t-0.5 77.5l51 262q16 83 70.5 130t144.5 47q42 0 78.5 -12.5t61 -36.5t35.5 -59t2 -79zM397 444q8 40 -15 67.5t-69 27.5q-47 0 -76 -26.5t-37 -64.5l-52 -266q-7 -45 15 -73
t67 -28q51 0 79 24.5t36 66.5zM502 746q5 -5 6 -9t-5 -12q-21 -31 -48 -43.5t-49 -12.5q-17 0 -30.5 5.5t-25.5 12t-24.5 12t-26.5 5.5q-8 0 -20 -7t-23 -18q-8 -9 -14.5 -8.5t-11.5 5.5l-17 17q-7 8 -7.5 14t5.5 14q19 23 44.5 37.5t51.5 14.5q16 0 30 -6t27.5 -13t26 -13
t24.5 -6q11 0 21.5 9.5t19.5 20.5t20 2z" />
    <glyph glyph-name="Odieresis" unicode="&#xd6;" horiz-adv-x="508" 
d="M444 173q-8 -40 -24 -73t-42 -56.5t-63.5 -36.5t-88.5 -13q-47 0 -83 14.5t-59 40t-31.5 61t-0.5 77.5l51 262q16 83 70.5 130t144.5 47q42 0 78.5 -12.5t61 -36.5t35.5 -59t2 -79zM397 444q8 40 -15 67.5t-69 27.5q-47 0 -76 -26.5t-37 -64.5l-52 -266q-7 -45 15 -73
t67 -28q51 0 79 24.5t36 66.5zM491 719q-4 -23 -22 -38t-41 -15t-36 15t-8 38q5 22 23 37t41 15t35.5 -15t7.5 -37zM323 719q-5 -23 -23 -38t-41 -15t-35.5 15t-8.5 38q5 22 23 37t41 15t35.5 -15t8.5 -37z" />
    <glyph glyph-name="Ugrave" unicode="&#xd9;" horiz-adv-x="516" 
d="M446 169q-15 -80 -72 -127.5t-149 -47.5q-44 0 -79.5 13.5t-59 38.5t-33 60.5t-0.5 80.5l81 417q1 13 17 13h69q13 0 12 -12l-85 -431q-7 -43 16.5 -68t65.5 -25q52 0 81 25t37 63l84 435q3 13 18 13h68q16 0 13 -12zM230 774q14 22 37 7l139 -89q14 -8 7 -19l-14 -21
q-3 -6 -10 -7t-12 1l-162 67q-5 2 -10.5 8t0.5 14z" />
    <glyph glyph-name="Uacute" unicode="&#xda;" horiz-adv-x="516" 
d="M446 169q-15 -80 -72 -127.5t-149 -47.5q-44 0 -79.5 13.5t-59 38.5t-33 60.5t-0.5 80.5l81 417q1 13 17 13h69q13 0 12 -12l-85 -431q-7 -43 16.5 -68t65.5 -25q52 0 81 25t37 63l84 435q3 13 18 13h68q16 0 13 -12zM487 735q6 -8 0.5 -14t-10.5 -8l-162 -67
q-5 -2 -12 -1t-10 7l-14 21q-7 11 7 19l139 89q23 15 37 -7z" />
    <glyph glyph-name="Ucircumflex" unicode="&#xdb;" horiz-adv-x="516" 
d="M446 169q-15 -80 -72 -127.5t-149 -47.5q-44 0 -79.5 13.5t-59 38.5t-33 60.5t-0.5 80.5l81 417q1 13 17 13h69q13 0 12 -12l-85 -431q-7 -43 16.5 -68t65.5 -25q52 0 81 25t37 63l84 435q3 13 18 13h68q16 0 13 -12zM492 685q3 -5 3 -9.5t-8 -8.5l-24 -11
q-8 -4 -12.5 -3.5t-8.5 4.5l-67 62q-6 5 -14 0l-115 -62q-7 -4 -11 -4.5t-11 3.5l-22 11q-7 4 -4 8.5t8 9.5l121 102q10 9 23 9h50q13 0 19 -9z" />
    <glyph glyph-name="Udieresis" unicode="&#xdc;" horiz-adv-x="516" 
d="M446 169q-15 -80 -72 -127.5t-149 -47.5q-44 0 -79.5 13.5t-59 38.5t-33 60.5t-0.5 80.5l81 417q1 13 17 13h69q13 0 12 -12l-85 -431q-7 -43 16.5 -68t65.5 -25q52 0 81 25t37 63l84 435q3 13 18 13h68q16 0 13 -12zM490 717q-4 -23 -22 -38t-41 -15t-36 15t-8 38
q5 22 23 37t41 15t35.5 -15t7.5 -37zM322 717q-5 -23 -23 -38t-41 -15t-35.5 15t-8.5 38q5 22 23 37t41 15t35.5 -15t8.5 -37z" />
    <glyph glyph-name="Yacute" unicode="&#xdd;" horiz-adv-x="439" 
d="M280 245q-6 -10 -8.5 -16.5t-4.5 -14.5l-39 -201q-3 -13 -17 -13h-68q-14 0 -13 13l40 205q1 5 1.5 12.5t-1.5 15.5l-86 352q-5 19 15 19h63q10 0 15.5 -2.5t7.5 -11.5l49 -259q2 -5 4.5 -4.5t4.5 4.5l148 257q6 9 10.5 12.5t17.5 3.5h74q14 0 14 -8q0 -3 -4 -11z
M450 741q6 -8 0.5 -14t-10.5 -8l-162 -67q-5 -2 -12 -1t-10 7l-14 21q-7 11 7 19l139 89q23 15 37 -7z" />
    <glyph glyph-name="agrave" unicode="&#xe0;" horiz-adv-x="459" 
d="M246 369q-20 0 -51.5 -6t-59.5 -17q-5 -2 -10.5 -1t-7.5 8l-16 50q-2 8 1.5 12.5t8.5 6.5q31 12 66 19.5t73 7.5q51 0 86 -13.5t55 -38t25.5 -58.5t-2.5 -74l-50 -253q-1 -12 -13 -12h-72q-10 0 -8 9l3 15q2 9 -2.5 9t-9.5 -5q-22 -19 -45.5 -25.5t-52.5 -7.5
q-66 0 -100 33.5t-34 96.5q0 41 13.5 74t38 56t58.5 35t75 12q23 0 47 -5.5t40 -15.5q5 -4 10.5 -2.5t7.5 9.5l2 9q8 32 -10 52t-66 20zM215 229q-38 0 -65.5 -26t-27.5 -68q0 -26 16 -44t51 -18q40 0 68 27t28 67q0 27 -19 44.5t-51 17.5zM207 671q5 3 12 0.5t12 -9.5
l92 -147q7 -13 -4 -19l-22 -11q-8 -4 -14 -2t-8 5l-119 130q-4 5 -6 12t6 12z" />
    <glyph glyph-name="aacute" unicode="&#xe1;" horiz-adv-x="459" 
d="M246 369q-20 0 -51.5 -6t-59.5 -17q-5 -2 -10.5 -1t-7.5 8l-16 50q-2 8 1.5 12.5t8.5 6.5q31 12 66 19.5t73 7.5q51 0 86 -13.5t55 -38t25.5 -58.5t-2.5 -74l-50 -253q-1 -12 -13 -12h-72q-10 0 -8 9l3 15q2 9 -2.5 9t-9.5 -5q-22 -19 -45.5 -25.5t-52.5 -7.5
q-66 0 -100 33.5t-34 96.5q0 41 13.5 74t38 56t58.5 35t75 12q23 0 47 -5.5t40 -15.5q5 -4 10.5 -2.5t7.5 9.5l2 9q8 32 -10 52t-66 20zM215 229q-38 0 -65.5 -26t-27.5 -68q0 -26 16 -44t51 -18q40 0 68 27t28 67q0 27 -19 44.5t-51 17.5zM404 633q8 -6 5.5 -12.5
t-6.5 -10.5l-130 -120q-3 -3 -8.5 -4.5t-13.5 3.5l-21 13q-12 7 -3 19l105 139q5 6 12 8t12 -2z" />
    <glyph glyph-name="acircumflex" unicode="&#xe2;" horiz-adv-x="459" 
d="M246 369q-20 0 -51.5 -6t-59.5 -17q-5 -2 -10.5 -1t-7.5 8l-16 50q-2 8 1.5 12.5t8.5 6.5q31 12 66 19.5t73 7.5q51 0 86 -13.5t55 -38t25.5 -58.5t-2.5 -74l-50 -253q-1 -12 -13 -12h-72q-10 0 -8 9l3 15q2 9 -2.5 9t-9.5 -5q-22 -19 -45.5 -25.5t-52.5 -7.5
q-66 0 -100 33.5t-34 96.5q0 41 13.5 74t38 56t58.5 35t75 12q23 0 47 -5.5t40 -15.5q5 -4 10.5 -2.5t7.5 9.5l2 9q8 32 -10 52t-66 20zM215 229q-38 0 -65.5 -26t-27.5 -68q0 -26 16 -44t51 -18q40 0 68 27t28 67q0 27 -19 44.5t-51 17.5zM435 526q3 -5 3 -10.5t-8 -10.5
l-26 -14q-14 -8 -21 2l-68 85q-6 7 -14 1l-116 -87q-7 -5 -11 -5.5t-11 4.5l-20 14q-7 5 -4 10.5t8 10.5l122 124q5 5 10 8t13 3h50q13 0 19 -11z" />
    <glyph glyph-name="atilde" unicode="&#xe3;" horiz-adv-x="459" 
d="M246 369q-20 0 -51.5 -6t-59.5 -17q-5 -2 -10.5 -1t-7.5 8l-16 50q-2 8 1.5 12.5t8.5 6.5q31 12 66 19.5t73 7.5q51 0 86 -13.5t55 -38t25.5 -58.5t-2.5 -74l-50 -253q-1 -12 -13 -12h-72q-10 0 -8 9l3 15q2 9 -2.5 9t-9.5 -5q-22 -19 -45.5 -25.5t-52.5 -7.5
q-66 0 -100 33.5t-34 96.5q0 41 13.5 74t38 56t58.5 35t75 12q23 0 47 -5.5t40 -15.5q5 -4 10.5 -2.5t7.5 9.5l2 9q8 32 -10 52t-66 20zM215 229q-38 0 -65.5 -26t-27.5 -68q0 -26 16 -44t51 -18q40 0 68 27t28 67q0 27 -19 44.5t-51 17.5zM426 586q5 -5 6 -9t-5 -12
q-21 -31 -48 -43.5t-49 -12.5q-17 0 -30.5 5.5t-25.5 12t-24.5 12t-26.5 5.5q-8 0 -20 -7t-23 -18q-8 -9 -14.5 -8.5t-11.5 5.5l-17 17q-7 8 -7.5 14t5.5 14q19 23 44.5 37.5t51.5 14.5q16 0 30 -6t27.5 -13t26 -13t24.5 -6q11 0 21.5 9.5t19.5 20.5t20 2z" />
    <glyph glyph-name="adieresis" unicode="&#xe4;" horiz-adv-x="459" 
d="M246 369q-20 0 -51.5 -6t-59.5 -17q-5 -2 -10.5 -1t-7.5 8l-16 50q-2 8 1.5 12.5t8.5 6.5q31 12 66 19.5t73 7.5q51 0 86 -13.5t55 -38t25.5 -58.5t-2.5 -74l-50 -253q-1 -12 -13 -12h-72q-10 0 -8 9l3 15q2 9 -2.5 9t-9.5 -5q-22 -19 -45.5 -25.5t-52.5 -7.5
q-66 0 -100 33.5t-34 96.5q0 41 13.5 74t38 56t58.5 35t75 12q23 0 47 -5.5t40 -15.5q5 -4 10.5 -2.5t7.5 9.5l2 9q8 32 -10 52t-66 20zM215 229q-38 0 -65.5 -26t-27.5 -68q0 -26 16 -44t51 -18q40 0 68 27t28 67q0 27 -19 44.5t-51 17.5zM414 550q-5 -23 -22.5 -38
t-40.5 -15t-36 15t-8 38q4 22 22.5 37.5t41.5 15.5q22 0 35 -15.5t8 -37.5zM245 550q-5 -23 -23 -38t-41 -15t-35.5 15t-7.5 38q5 22 23 37.5t41 15.5t35.5 -15.5t7.5 -37.5z" />
    <glyph glyph-name="aring" unicode="&#xe5;" horiz-adv-x="459" 
d="M246 369q-20 0 -51.5 -6t-59.5 -17q-5 -2 -10.5 -1t-7.5 8l-16 50q-2 8 1.5 12.5t8.5 6.5q31 12 66 19.5t73 7.5q51 0 86 -13.5t55 -38t25.5 -58.5t-2.5 -74l-50 -253q-1 -12 -13 -12h-72q-10 0 -8 9l3 15q2 9 -2.5 9t-9.5 -5q-22 -19 -45.5 -25.5t-52.5 -7.5
q-66 0 -100 33.5t-34 96.5q0 41 13.5 74t38 56t58.5 35t75 12q23 0 47 -5.5t40 -15.5q5 -4 10.5 -2.5t7.5 9.5l2 9q8 32 -10 52t-66 20zM215 229q-38 0 -65.5 -26t-27.5 -68q0 -26 16 -44t51 -18q40 0 68 27t28 67q0 27 -19 44.5t-51 17.5zM288 474q-38 0 -58.5 21t-20.5 51
q0 20 8 39t22 33.5t33 23.5t41 9q33 0 56.5 -20.5t23.5 -51.5q0 -45 -28.5 -75t-76.5 -30zM292 521q23 0 37 14.5t14 35.5q0 14 -9.5 23.5t-24.5 9.5q-23 0 -35.5 -15.5t-12.5 -35.5q0 -14 8.5 -23t22.5 -9z" />
    <glyph glyph-name="egrave" unicode="&#xe8;" horiz-adv-x="448" 
d="M422 333q0 -52 -26.5 -83t-67 -48t-88.5 -23t-92 -7q-11 0 -14 -11l-4 -22q-8 -32 11.5 -47.5t63.5 -15.5q29 0 55 17t43 32q13 13 23 4l39 -35q6 -6 8.5 -11.5t-5.5 -13.5q-35 -40 -76 -58t-95 -18q-43 0 -76.5 10.5t-54.5 32.5t-28 56.5t2 82.5l18 92q10 51 29.5 86
t47 56t62.5 30t76 9q26 0 52.5 -7t48 -21t35 -35.5t13.5 -51.5zM328 317q0 20 -13.5 35.5t-49.5 15.5q-47 0 -73.5 -23t-33.5 -55l-7 -33q-1 -10 11 -10q28 0 57.5 3.5t53.5 11.5t39.5 21.5t15.5 33.5zM211 671q5 3 12 0.5t12 -9.5l92 -147q7 -13 -4 -19l-22 -11
q-8 -4 -14 -2t-8 5l-119 130q-4 5 -6 12t6 12z" />
    <glyph glyph-name="eacute" unicode="&#xe9;" horiz-adv-x="448" 
d="M422 333q0 -52 -26.5 -83t-67 -48t-88.5 -23t-92 -7q-11 0 -14 -11l-4 -22q-8 -32 11.5 -47.5t63.5 -15.5q29 0 55 17t43 32q13 13 23 4l39 -35q6 -6 8.5 -11.5t-5.5 -13.5q-35 -40 -76 -58t-95 -18q-43 0 -76.5 10.5t-54.5 32.5t-28 56.5t2 82.5l18 92q10 51 29.5 86
t47 56t62.5 30t76 9q26 0 52.5 -7t48 -21t35 -35.5t13.5 -51.5zM328 317q0 20 -13.5 35.5t-49.5 15.5q-47 0 -73.5 -23t-33.5 -55l-7 -33q-1 -10 11 -10q28 0 57.5 3.5t53.5 11.5t39.5 21.5t15.5 33.5zM400 633q8 -6 5.5 -12.5t-6.5 -10.5l-130 -120q-3 -3 -8.5 -4.5
t-13.5 3.5l-21 13q-12 7 -3 19l105 139q5 6 12 8t12 -2z" />
    <glyph glyph-name="ecircumflex" unicode="&#xea;" horiz-adv-x="448" 
d="M422 333q0 -52 -26.5 -83t-67 -48t-88.5 -23t-92 -7q-11 0 -14 -11l-4 -22q-8 -32 11.5 -47.5t63.5 -15.5q29 0 55 17t43 32q13 13 23 4l39 -35q6 -6 8.5 -11.5t-5.5 -13.5q-35 -40 -76 -58t-95 -18q-43 0 -76.5 10.5t-54.5 32.5t-28 56.5t2 82.5l18 92q10 51 29.5 86
t47 56t62.5 30t76 9q26 0 52.5 -7t48 -21t35 -35.5t13.5 -51.5zM328 317q0 20 -13.5 35.5t-49.5 15.5q-47 0 -73.5 -23t-33.5 -55l-7 -33q-1 -10 11 -10q28 0 57.5 3.5t53.5 11.5t39.5 21.5t15.5 33.5zM415 526q3 -5 3 -10.5t-8 -10.5l-26 -14q-14 -8 -21 2l-68 85
q-6 7 -14 1l-116 -87q-7 -5 -11 -5.5t-11 4.5l-20 14q-7 5 -4 10.5t8 10.5l122 124q5 5 10 8t13 3h50q13 0 19 -11z" />
    <glyph glyph-name="edieresis" unicode="&#xeb;" horiz-adv-x="448" 
d="M422 333q0 -52 -26.5 -83t-67 -48t-88.5 -23t-92 -7q-11 0 -14 -11l-4 -22q-8 -32 11.5 -47.5t63.5 -15.5q29 0 55 17t43 32q13 13 23 4l39 -35q6 -6 8.5 -11.5t-5.5 -13.5q-35 -40 -76 -58t-95 -18q-43 0 -76.5 10.5t-54.5 32.5t-28 56.5t2 82.5l18 92q10 51 29.5 86
t47 56t62.5 30t76 9q26 0 52.5 -7t48 -21t35 -35.5t13.5 -51.5zM328 317q0 20 -13.5 35.5t-49.5 15.5q-47 0 -73.5 -23t-33.5 -55l-7 -33q-1 -10 11 -10q28 0 57.5 3.5t53.5 11.5t39.5 21.5t15.5 33.5zM419 550q-5 -23 -22.5 -38t-40.5 -15t-36 15t-8 38q4 22 22.5 37.5
t41.5 15.5q22 0 35 -15.5t8 -37.5zM250 550q-5 -23 -23 -38t-41 -15t-35.5 15t-7.5 38q5 22 23 37.5t41 15.5t35.5 -15.5t7.5 -37.5z" />
    <glyph glyph-name="igrave" unicode="&#xec;" horiz-adv-x="213" 
d="M117 12q-3 -12 -15 -12h-70q-13 0 -11 12l81 416q3 13 15 13h70q13 0 10 -13zM75 671q5 3 12 0.5t12 -9.5l92 -147q7 -13 -4 -19l-22 -11q-8 -4 -14 -2t-8 5l-119 130q-4 5 -6 12t6 12z" />
    <glyph glyph-name="iacute" unicode="&#xed;" horiz-adv-x="213" 
d="M117 12q-3 -12 -15 -12h-70q-13 0 -11 12l81 416q3 13 15 13h70q13 0 10 -13zM306 633q8 -6 5.5 -12.5t-6.5 -10.5l-130 -120q-3 -3 -8.5 -4.5t-13.5 3.5l-21 13q-12 7 -3 19l105 139q5 6 12 8t12 -2z" />
    <glyph glyph-name="icircumflex" unicode="&#xee;" horiz-adv-x="213" 
d="M117 12q-3 -12 -15 -12h-70q-13 0 -11 12l81 416q3 13 15 13h70q13 0 10 -13zM303 526q3 -5 3 -10.5t-8 -10.5l-26 -14q-14 -8 -21 2l-68 85q-6 7 -14 1l-116 -87q-7 -5 -11 -5.5t-11 4.5l-20 14q-7 5 -4 10.5t8 10.5l122 124q5 5 10 8t13 3h50q13 0 19 -11z" />
    <glyph glyph-name="idieresis" unicode="&#xef;" horiz-adv-x="213" 
d="M117 12q-3 -12 -15 -12h-70q-13 0 -11 12l81 416q3 13 15 13h70q13 0 10 -13zM313 550q-5 -23 -22.5 -38t-40.5 -15t-36 15t-8 38q4 22 22.5 37.5t41.5 15.5q22 0 35 -15.5t8 -37.5zM144 550q-5 -23 -23 -38t-41 -15t-35.5 15t-7.5 38q5 22 23 37.5t41 15.5t35.5 -15.5
t7.5 -37.5z" />
    <glyph glyph-name="ntilde" unicode="&#xf1;" horiz-adv-x="471" 
d="M380 13q-1 -13 -14 -13h-70q-13 0 -11 12l52 265q8 38 -9 63.5t-61 25.5q-20 0 -37 -7.5t-31 -20.5t-23.5 -30t-13.5 -36l-50 -259q-1 -13 -15 -13h-69q-14 0 -11 12l81 416q3 13 15 13h68q13 0 10 -12l-3 -14q-2 -8 1.5 -9.5t11.5 3.5q22 18 48.5 28.5t49.5 10.5
q80 0 113.5 -47t19.5 -123zM438 586q5 -5 6 -9t-5 -12q-21 -31 -48 -43.5t-49 -12.5q-17 0 -30.5 5.5t-25.5 12t-24.5 12t-26.5 5.5q-8 0 -20 -7t-23 -18q-8 -9 -14.5 -8.5t-11.5 5.5l-17 17q-7 8 -7.5 14t5.5 14q19 23 44.5 37.5t51.5 14.5q16 0 30 -6t27.5 -13t26 -13
t24.5 -6q11 0 21.5 9.5t19.5 20.5t20 2z" />
    <glyph glyph-name="ograve" unicode="&#xf2;" horiz-adv-x="458" 
d="M402 164q-15 -82 -64.5 -126t-139.5 -44q-42 0 -74.5 14t-53 38.5t-28.5 58.5t0 75l19 99q14 76 64 123t137 47q40 0 72.5 -12.5t54.5 -36t31 -56t2 -72.5zM328 272q8 39 -12.5 66.5t-59.5 27.5q-38 0 -65 -25t-35 -63l-22 -114q-3 -16 0 -32t12 -28.5t24 -20t36 -7.5
q39 0 66 24t35 64zM225 671q5 3 12 0.5t12 -9.5l92 -147q7 -13 -4 -19l-22 -11q-8 -4 -14 -2t-8 5l-119 130q-4 5 -6 12t6 12z" />
    <glyph glyph-name="oacute" unicode="&#xf3;" horiz-adv-x="458" 
d="M402 164q-15 -82 -64.5 -126t-139.5 -44q-42 0 -74.5 14t-53 38.5t-28.5 58.5t0 75l19 99q14 76 64 123t137 47q40 0 72.5 -12.5t54.5 -36t31 -56t2 -72.5zM328 272q8 39 -12.5 66.5t-59.5 27.5q-38 0 -65 -25t-35 -63l-22 -114q-3 -16 0 -32t12 -28.5t24 -20t36 -7.5
q39 0 66 24t35 64zM420 633q8 -6 5.5 -12.5t-6.5 -10.5l-130 -120q-3 -3 -8.5 -4.5t-13.5 3.5l-21 13q-12 7 -3 19l105 139q5 6 12 8t12 -2z" />
    <glyph glyph-name="ocircumflex" unicode="&#xf4;" horiz-adv-x="458" 
d="M402 164q-15 -82 -64.5 -126t-139.5 -44q-42 0 -74.5 14t-53 38.5t-28.5 58.5t0 75l19 99q14 76 64 123t137 47q40 0 72.5 -12.5t54.5 -36t31 -56t2 -72.5zM328 272q8 39 -12.5 66.5t-59.5 27.5q-38 0 -65 -25t-35 -63l-22 -114q-3 -16 0 -32t12 -28.5t24 -20t36 -7.5
q39 0 66 24t35 64zM427 526q3 -5 3 -10.5t-8 -10.5l-26 -14q-14 -8 -21 2l-68 85q-6 7 -14 1l-116 -87q-7 -5 -11 -5.5t-11 4.5l-20 14q-7 5 -4 10.5t8 10.5l122 124q5 5 10 8t13 3h50q13 0 19 -11z" />
    <glyph glyph-name="otilde" unicode="&#xf5;" horiz-adv-x="458" 
d="M402 164q-15 -82 -64.5 -126t-139.5 -44q-42 0 -74.5 14t-53 38.5t-28.5 58.5t0 75l19 99q14 76 64 123t137 47q40 0 72.5 -12.5t54.5 -36t31 -56t2 -72.5zM328 272q8 39 -12.5 66.5t-59.5 27.5q-38 0 -65 -25t-35 -63l-22 -114q-3 -16 0 -32t12 -28.5t24 -20t36 -7.5
q39 0 66 24t35 64zM433 586q5 -5 6 -9t-5 -12q-21 -31 -48 -43.5t-49 -12.5q-17 0 -30.5 5.5t-25.5 12t-24.5 12t-26.5 5.5q-8 0 -20 -7t-23 -18q-8 -9 -14.5 -8.5t-11.5 5.5l-17 17q-7 8 -7.5 14t5.5 14q19 23 44.5 37.5t51.5 14.5q16 0 30 -6t27.5 -13t26 -13t24.5 -6
q11 0 21.5 9.5t19.5 20.5t20 2z" />
    <glyph glyph-name="odieresis" unicode="&#xf6;" horiz-adv-x="458" 
d="M402 164q-15 -82 -64.5 -126t-139.5 -44q-42 0 -74.5 14t-53 38.5t-28.5 58.5t0 75l19 99q14 76 64 123t137 47q40 0 72.5 -12.5t54.5 -36t31 -56t2 -72.5zM328 272q8 39 -12.5 66.5t-59.5 27.5q-38 0 -65 -25t-35 -63l-22 -114q-3 -16 0 -32t12 -28.5t24 -20t36 -7.5
q39 0 66 24t35 64zM425 550q-5 -23 -22.5 -38t-40.5 -15t-36 15t-8 38q4 22 22.5 37.5t41.5 15.5q22 0 35 -15.5t8 -37.5zM256 550q-5 -23 -23 -38t-41 -15t-35.5 15t-7.5 38q5 22 23 37.5t41 15.5t35.5 -15.5t7.5 -37.5z" />
    <glyph glyph-name="ugrave" unicode="&#xf9;" horiz-adv-x="466" 
d="M373 13q-3 -13 -15 -13h-69q-12 0 -9 12l3 17q2 7 -3 8t-10 -4q-17 -17 -46 -28t-55 -11q-77 0 -110.5 46.5t-19.5 121.5l52 266q3 13 14 13h70q12 0 11 -12l-52 -265q-8 -38 8.5 -63t61.5 -25q19 0 36.5 7.5t31.5 20t23.5 29t12.5 35.5l51 260q1 13 15 13h69
q14 0 11 -12zM217 671q5 3 12 0.5t12 -9.5l92 -147q7 -13 -4 -19l-22 -11q-8 -4 -14 -2t-8 5l-119 130q-4 5 -6 12t6 12z" />
    <glyph glyph-name="uacute" unicode="&#xfa;" horiz-adv-x="466" 
d="M373 13q-3 -13 -15 -13h-69q-12 0 -9 12l3 17q2 7 -3 8t-10 -4q-17 -17 -46 -28t-55 -11q-77 0 -110.5 46.5t-19.5 121.5l52 266q3 13 14 13h70q12 0 11 -12l-52 -265q-8 -38 8.5 -63t61.5 -25q19 0 36.5 7.5t31.5 20t23.5 29t12.5 35.5l51 260q1 13 15 13h69
q14 0 11 -12zM418 633q8 -6 5.5 -12.5t-6.5 -10.5l-130 -120q-3 -3 -8.5 -4.5t-13.5 3.5l-21 13q-12 7 -3 19l105 139q5 6 12 8t12 -2z" />
    <glyph glyph-name="ucircumflex" unicode="&#xfb;" horiz-adv-x="466" 
d="M373 13q-3 -13 -15 -13h-69q-12 0 -9 12l3 17q2 7 -3 8t-10 -4q-17 -17 -46 -28t-55 -11q-77 0 -110.5 46.5t-19.5 121.5l52 266q3 13 14 13h70q12 0 11 -12l-52 -265q-8 -38 8.5 -63t61.5 -25q19 0 36.5 7.5t31.5 20t23.5 29t12.5 35.5l51 260q1 13 15 13h69
q14 0 11 -12zM427 526q3 -5 3 -10.5t-8 -10.5l-26 -14q-14 -8 -21 2l-68 85q-6 7 -14 1l-116 -87q-7 -5 -11 -5.5t-11 4.5l-20 14q-7 5 -4 10.5t8 10.5l122 124q5 5 10 8t13 3h50q13 0 19 -11z" />
    <glyph glyph-name="udieresis" unicode="&#xfc;" horiz-adv-x="466" 
d="M373 13q-3 -13 -15 -13h-69q-12 0 -9 12l3 17q2 7 -3 8t-10 -4q-17 -17 -46 -28t-55 -11q-77 0 -110.5 46.5t-19.5 121.5l52 266q3 13 14 13h70q12 0 11 -12l-52 -265q-8 -38 8.5 -63t61.5 -25q19 0 36.5 7.5t31.5 20t23.5 29t12.5 35.5l51 260q1 13 15 13h69
q14 0 11 -12zM435 550q-5 -23 -22.5 -38t-40.5 -15t-36 15t-8 38q4 22 22.5 37.5t41.5 15.5q22 0 35 -15.5t8 -37.5zM266 550q-5 -23 -23 -38t-41 -15t-35.5 15t-7.5 38q5 22 23 37.5t41 15.5t35.5 -15.5t7.5 -37.5z" />
    <glyph glyph-name="yacute" unicode="&#xfd;" horiz-adv-x="412" 
d="M58 -183q-11 0 -15 6t4 20l83 155h-13q-10 0 -13.5 2.5t-5.5 11.5l-48 411q-1 8 2.5 13t12.5 5h61q10 0 15 -4.5t6 -10.5l25 -335q0 -8 8 0l115 224q9 19 14.5 33t7.5 25.5t2.5 22t0.5 21.5q0 7 3 15.5t17 8.5h51q15 0 18.5 -6t3.5 -17q0 -36 -6 -62t-24 -60
q-38 -72 -64 -122t-45 -86.5t-33.5 -64.5t-28.5 -54.5t-30 -57.5t-38 -73q-4 -7 -12 -14t-22 -7h-52zM380 633q8 -6 5.5 -12.5t-6.5 -10.5l-130 -120q-3 -3 -8.5 -4.5t-13.5 3.5l-21 13q-12 7 -3 19l105 139q5 6 12 8t12 -2z" />
    <glyph glyph-name="Amacron" unicode="&#x100;" horiz-adv-x="460" 
d="M331 0q-13 0 -16 12q-1 29 -2 56.5t-3 56.5q0 8 -7 8h-164q-7 0 -11 -8q-12 -28 -24 -57t-24 -56q-5 -12 -18 -12h-69q-12 0 -13.5 6t2.5 14q64 144 130.5 293t131.5 293q5 11 18 11h96q15 0 16 -11q11 -147 20 -293t20 -293q0 -5 -3 -12.5t-14 -7.5h-66zM245 397
q-17 -45 -36 -87.5t-38 -87.5l-2 -4q0 -3 6 -3h122q9 0 9 9q-1 22 -2 50t-2 53.5t-2 45t-1 23.5l-3 114q0 3 -2 3t-4 -4zM432 690q-3 -15 -18 -15h-209q-16 0 -13 15l8 41q3 15 18 15h209q16 0 13 -14z" />
    <glyph glyph-name="amacron" unicode="&#x101;" horiz-adv-x="459" 
d="M246 369q-20 0 -51.5 -6t-59.5 -17q-5 -2 -10.5 -1t-7.5 8l-16 50q-2 8 1.5 12.5t8.5 6.5q31 12 66 19.5t73 7.5q51 0 86 -13.5t55 -38t25.5 -58.5t-2.5 -74l-50 -253q-1 -12 -13 -12h-72q-10 0 -8 9l3 15q2 9 -2.5 9t-9.5 -5q-22 -19 -45.5 -25.5t-52.5 -7.5
q-66 0 -100 33.5t-34 96.5q0 41 13.5 74t38 56t58.5 35t75 12q23 0 47 -5.5t40 -15.5q5 -4 10.5 -2.5t7.5 9.5l2 9q8 32 -10 52t-66 20zM215 229q-38 0 -65.5 -26t-27.5 -68q0 -26 16 -44t51 -18q40 0 68 27t28 67q0 27 -19 44.5t-51 17.5zM420 540q-2 -12 -14 -12h-242
q-13 0 -11 12l10 51q3 12 15 12h242q13 0 10 -11z" />
    <glyph glyph-name="Abreve" unicode="&#x102;" horiz-adv-x="460" 
d="M331 0q-13 0 -16 12q-1 29 -2 56.5t-3 56.5q0 8 -7 8h-164q-7 0 -11 -8q-12 -28 -24 -57t-24 -56q-5 -12 -18 -12h-69q-12 0 -13.5 6t2.5 14q64 144 130.5 293t131.5 293q5 11 18 11h96q15 0 16 -11q11 -147 20 -293t20 -293q0 -5 -3 -12.5t-14 -7.5h-66zM323 724
q27 0 43.5 16t28.5 42q3 7 6 9.5t11 2.5h34q10 0 11.5 -5t-0.5 -12q-15 -61 -50 -93t-92 -32q-25 0 -45.5 10.5t-34.5 27.5t-21 40t-5 48q1 7 4 11.5t13 4.5h32q8 0 11 -3t4 -9q4 -26 16 -42t34 -16zM245 397q-17 -45 -36 -87.5t-38 -87.5l-2 -4q0 -3 6 -3h122q9 0 9 9
q-1 22 -2 50t-2 53.5t-2 45t-1 23.5l-3 114q0 3 -2 3t-4 -4z" />
    <glyph glyph-name="abreve" unicode="&#x103;" horiz-adv-x="459" 
d="M246 369q-20 0 -51.5 -6t-59.5 -17q-5 -2 -10.5 -1t-7.5 8l-16 50q-2 8 1.5 12.5t8.5 6.5q31 12 66 19.5t73 7.5q51 0 86 -13.5t55 -38t25.5 -58.5t-2.5 -74l-50 -253q-1 -12 -13 -12h-72q-10 0 -8 9l3 15q2 9 -2.5 9t-9.5 -5q-22 -19 -45.5 -25.5t-52.5 -7.5
q-66 0 -100 33.5t-34 96.5q0 41 13.5 74t38 56t58.5 35t75 12q23 0 47 -5.5t40 -15.5q5 -4 10.5 -2.5t7.5 9.5l2 9q8 32 -10 52t-66 20zM215 229q-38 0 -65.5 -26t-27.5 -68q0 -26 16 -44t51 -18q40 0 68 27t28 67q0 27 -19 44.5t-51 17.5zM292 565q27 0 43.5 16t28.5 42
q3 7 6 9.5t11 2.5h34q10 0 11.5 -5t-0.5 -12q-15 -61 -50 -93t-92 -32q-25 0 -45.5 10.5t-34.5 27.5t-21 40t-5 48q1 7 4 11.5t13 4.5h32q8 0 11 -3t4 -9q4 -26 16 -42t34 -16z" />
    <glyph glyph-name="Cacute" unicode="&#x106;" horiz-adv-x="457" 
d="M227 81q38 0 61 13.5t44 31.5q8 7 14 10t14 -4l44 -44q9 -11 0 -21q-43 -44 -86.5 -58.5t-89.5 -14.5t-82 13t-60 37.5t-33 58.5t-1 76l53 270q7 40 22 72.5t38.5 55.5t57 36t79.5 13t92 -17t80 -63q8 -9 -5 -22l-39 -37q-7 -6 -12 -4.5t-13 9.5q-22 21 -47 34.5
t-54 13.5q-48 0 -71 -26.5t-30 -64.5l-54 -278q-7 -37 12.5 -63.5t65.5 -26.5zM480 753q6 -8 0.5 -14t-10.5 -8l-162 -67q-5 -2 -12 -1t-10 7l-14 21q-7 11 7 19l139 89q23 15 37 -7z" />
    <glyph glyph-name="cacute" unicode="&#x107;" horiz-adv-x="412" 
d="M409 364q7 -14 -9 -24l-41 -28q-10 -7 -17 -3t-11 10q-13 23 -33.5 35t-45.5 12q-42 0 -67 -24.5t-32 -60.5l-24 -121q-3 -17 -2 -32.5t9 -27t23.5 -18.5t40.5 -7q33 0 58 18t42 33q7 6 14 8t15 -5l32 -30q14 -11 4 -24q-33 -42 -74 -61.5t-97 -19.5q-41 0 -74 12
t-54.5 33.5t-30 52.5t-0.5 70l22 114q15 80 62 126t136 46q51 0 91 -20t63 -64zM410 633q8 -6 5.5 -12.5t-6.5 -10.5l-130 -120q-3 -3 -8.5 -4.5t-13.5 3.5l-21 13q-12 7 -3 19l105 139q5 6 12 8t12 -2z" />
    <glyph glyph-name="Ccircumflex" unicode="&#x108;" horiz-adv-x="457" 
d="M227 81q38 0 61 13.5t44 31.5q8 7 14 10t14 -4l44 -44q9 -11 0 -21q-43 -44 -86.5 -58.5t-89.5 -14.5t-82 13t-60 37.5t-33 58.5t-1 76l53 270q7 40 22 72.5t38.5 55.5t57 36t79.5 13t92 -17t80 -63q8 -9 -5 -22l-39 -37q-7 -6 -12 -4.5t-13 9.5q-22 21 -47 34.5
t-54 13.5q-48 0 -71 -26.5t-30 -64.5l-54 -278q-7 -37 12.5 -63.5t65.5 -26.5zM469 687q3 -5 3 -9.5t-8 -8.5l-24 -11q-8 -4 -12.5 -3.5t-8.5 4.5l-67 62q-6 5 -14 0l-115 -62q-7 -4 -11 -4.5t-11 3.5l-22 11q-7 4 -4 8.5t8 9.5l121 102q10 9 23 9h50q13 0 19 -9z" />
    <glyph glyph-name="ccircumflex" unicode="&#x109;" horiz-adv-x="412" 
d="M409 364q7 -14 -9 -24l-41 -28q-10 -7 -17 -3t-11 10q-13 23 -33.5 35t-45.5 12q-42 0 -67 -24.5t-32 -60.5l-24 -121q-3 -17 -2 -32.5t9 -27t23.5 -18.5t40.5 -7q33 0 58 18t42 33q7 6 14 8t15 -5l32 -30q14 -11 4 -24q-33 -42 -74 -61.5t-97 -19.5q-41 0 -74 12
t-54.5 33.5t-30 52.5t-0.5 70l22 114q15 80 62 126t136 46q51 0 91 -20t63 -64zM420 526q3 -5 3 -10.5t-8 -10.5l-26 -14q-14 -8 -21 2l-68 85q-6 7 -14 1l-116 -87q-7 -5 -11 -5.5t-11 4.5l-20 14q-7 5 -4 10.5t8 10.5l122 124q5 5 10 8t13 3h50q13 0 19 -11z" />
    <glyph glyph-name="Cdotaccent" unicode="&#x10a;" horiz-adv-x="457" 
d="M227 81q38 0 61 13.5t44 31.5q8 7 14 10t14 -4l44 -44q9 -11 0 -21q-43 -44 -86.5 -58.5t-89.5 -14.5t-82 13t-60 37.5t-33 58.5t-1 76l53 270q7 40 22 72.5t38.5 55.5t57 36t79.5 13t92 -17t80 -63q8 -9 -5 -22l-39 -37q-7 -6 -12 -4.5t-13 9.5q-22 21 -47 34.5
t-54 13.5q-48 0 -71 -26.5t-30 -64.5l-54 -278q-7 -37 12.5 -63.5t65.5 -26.5zM391 720q-5 -23 -23 -38t-41 -15t-35.5 15t-8.5 38q5 22 23 37.5t41 15.5t35.5 -15.5t8.5 -37.5z" />
    <glyph glyph-name="cdotaccent" unicode="&#x10b;" horiz-adv-x="412" 
d="M409 364q7 -14 -9 -24l-41 -28q-10 -7 -17 -3t-11 10q-13 23 -33.5 35t-45.5 12q-42 0 -67 -24.5t-32 -60.5l-24 -121q-3 -17 -2 -32.5t9 -27t23.5 -18.5t40.5 -7q33 0 58 18t42 33q7 6 14 8t15 -5l32 -30q14 -11 4 -24q-33 -42 -74 -61.5t-97 -19.5q-41 0 -74 12
t-54.5 33.5t-30 52.5t-0.5 70l22 114q15 80 62 126t136 46q51 0 91 -20t63 -64zM333 550q-5 -23 -23 -38t-41 -15t-35.5 15t-8.5 38q5 22 23 37.5t41 15.5t35.5 -15.5t8.5 -37.5z" />
    <glyph glyph-name="Ccaron" unicode="&#x10c;" horiz-adv-x="457" 
d="M227 81q38 0 61 13.5t44 31.5q8 7 14 10t14 -4l44 -44q9 -11 0 -21q-43 -44 -86.5 -58.5t-89.5 -14.5t-82 13t-60 37.5t-33 58.5t-1 76l53 270q7 40 22 72.5t38.5 55.5t57 36t79.5 13t92 -17t80 -63q8 -9 -5 -22l-39 -37q-7 -6 -12 -4.5t-13 9.5q-22 21 -47 34.5
t-54 13.5q-48 0 -71 -26.5t-30 -64.5l-54 -278q-7 -37 12.5 -63.5t65.5 -26.5zM208 775q-3 5 -3 9.5t8 8.5l23 10q8 4 12.5 3.5t8.5 -4.5l69 -61q6 -5 14 0l111 61q7 4 11 4.5t11 -3.5l25 -10q7 -4 4 -8.5t-8 -9.5l-121 -102q-5 -5 -10 -7t-13 -2h-50q-13 0 -19 9z" />
    <glyph glyph-name="ccaron" unicode="&#x10d;" horiz-adv-x="412" 
d="M409 364q7 -14 -9 -24l-41 -28q-10 -7 -17 -3t-11 10q-13 23 -33.5 35t-45.5 12q-42 0 -67 -24.5t-32 -60.5l-24 -121q-3 -17 -2 -32.5t9 -27t23.5 -18.5t40.5 -7q33 0 58 18t42 33q7 6 14 8t15 -5l32 -30q14 -11 4 -24q-33 -42 -74 -61.5t-97 -19.5q-41 0 -74 12
t-54.5 33.5t-30 52.5t-0.5 70l22 114q15 80 62 126t136 46q51 0 91 -20t63 -64zM156 618q-3 5 -3 10.5t8 10.5l26 14q14 8 21 -2l68 -85q6 -7 14 -1l116 87q7 5 11 5.5t11 -4.5l20 -14q7 -5 4 -10.5t-8 -10.5l-122 -124q-5 -5 -10 -8t-13 -3h-50q-13 0 -19 11z" />
    <glyph glyph-name="Dcaron" unicode="&#x10e;" horiz-adv-x="505" 
d="M40 0q-15 0 -13 14l115 589q2 14 18 14h176q50 1 83.5 -13t52.5 -38.5t23.5 -59t-2.5 -74.5l-45 -249q-17 -94 -66 -138.5t-140 -44.5h-202zM237 87q50 0 76.5 25t34.5 68l51 259q8 48 -13 70t-66 22h-80q-15 0 -16 -12l-82 -421q-3 -11 9 -11h86zM176 761q-3 5 -3 9.5
t8 8.5l23 10q8 4 12.5 3.5t8.5 -4.5l69 -61q6 -5 14 0l111 61q7 4 11 4.5t11 -3.5l25 -10q7 -4 4 -8.5t-8 -9.5l-121 -102q-5 -5 -10 -7t-13 -2h-50q-13 0 -19 9z" />
    <glyph glyph-name="dcaron" unicode="&#x10f;" horiz-adv-x="579" 
d="M370 12q-2 -12 -15 -12h-72q-13 0 -10 12l2 11q2 5 -2 7t-9 -2q-44 -33 -92 -33q-35 0 -63 12t-47 34t-26 53t0 69l20 115q7 35 22 66t38.5 54t56 36t76.5 13q34 0 57 -10t31 -18q7 -6 11.5 -3.5t6.5 8.5l40 200q3 13 16 13h67q14 0 11 -12zM326 270q3 17 0 34
t-12.5 30.5t-26.5 22t-41 8.5q-40 0 -63 -25.5t-31 -61.5l-22 -115q-8 -37 12.5 -62t64.5 -25q38 0 63.5 25.5t33.5 61.5zM579 463q-5 -10 -11.5 -13.5t-14.5 -3.5h-27q-11 0 -12 7.5t1 16.5l39 145q5 22 27 22h62q15 0 17 -7t-5 -19z" />
    <glyph glyph-name="Emacron" unicode="&#x112;" horiz-adv-x="457" 
d="M390 14q-3 -14 -17 -14h-335q-12 0 -12 10v4l114 589q3 14 18 14h327q15 0 12 -15l-11 -56q-3 -15 -16 -15h-232q-14 0 -15 -11l-30 -149v-3q0 -9 9 -9h192q9 0 11 -4.5t1 -10.5l-10 -59q-4 -13 -16 -13h-193q-13 0 -14 -12l-33 -164v-2q0 -8 11 -8h238q6 0 10 -4t2 -10z
M440 682q-3 -15 -18 -15h-209q-16 0 -13 15l8 41q3 15 18 15h209q16 0 13 -14z" />
    <glyph glyph-name="emacron" unicode="&#x113;" horiz-adv-x="448" 
d="M422 333q0 -52 -26.5 -83t-67 -48t-88.5 -23t-92 -7q-11 0 -14 -11l-4 -22q-8 -32 11.5 -47.5t63.5 -15.5q29 0 55 17t43 32q13 13 23 4l39 -35q6 -6 8.5 -11.5t-5.5 -13.5q-35 -40 -76 -58t-95 -18q-43 0 -76.5 10.5t-54.5 32.5t-28 56.5t2 82.5l18 92q10 51 29.5 86
t47 56t62.5 30t76 9q26 0 52.5 -7t48 -21t35 -35.5t13.5 -51.5zM328 317q0 20 -13.5 35.5t-49.5 15.5q-47 0 -73.5 -23t-33.5 -55l-7 -33q-1 -10 11 -10q28 0 57.5 3.5t53.5 11.5t39.5 21.5t15.5 33.5zM415 540q-2 -12 -14 -12h-242q-13 0 -11 12l10 51q3 12 15 12h242
q13 0 10 -11z" />
    <glyph glyph-name="Ebreve" unicode="&#x114;" horiz-adv-x="457" 
d="M390 14q-3 -14 -17 -14h-335q-12 0 -12 10v4l114 589q3 14 18 14h327q15 0 12 -15l-11 -56q-3 -15 -16 -15h-232q-14 0 -15 -11l-30 -149v-3q0 -9 9 -9h192q9 0 11 -4.5t1 -10.5l-10 -59q-4 -13 -16 -13h-193q-13 0 -14 -12l-33 -164v-2q0 -8 11 -8h238q6 0 10 -4t2 -10z
M322 726q27 0 43.5 16t28.5 42q3 7 6 9.5t11 2.5h34q10 0 11.5 -5t-0.5 -12q-15 -61 -50 -93t-92 -32q-25 0 -45.5 10.5t-34.5 27.5t-21 40t-5 48q1 7 4 11.5t13 4.5h32q8 0 11 -3t4 -9q4 -26 16 -42t34 -16z" />
    <glyph glyph-name="ebreve" unicode="&#x115;" horiz-adv-x="448" 
d="M422 333q0 -52 -26.5 -83t-67 -48t-88.5 -23t-92 -7q-11 0 -14 -11l-4 -22q-8 -32 11.5 -47.5t63.5 -15.5q29 0 55 17t43 32q13 13 23 4l39 -35q6 -6 8.5 -11.5t-5.5 -13.5q-35 -40 -76 -58t-95 -18q-43 0 -76.5 10.5t-54.5 32.5t-28 56.5t2 82.5l18 92q10 51 29.5 86
t47 56t62.5 30t76 9q26 0 52.5 -7t48 -21t35 -35.5t13.5 -51.5zM328 317q0 20 -13.5 35.5t-49.5 15.5q-47 0 -73.5 -23t-33.5 -55l-7 -33q-1 -10 11 -10q28 0 57.5 3.5t53.5 11.5t39.5 21.5t15.5 33.5zM277 565q27 0 43.5 16t28.5 42q3 7 6 9.5t11 2.5h34q10 0 11.5 -5
t-0.5 -12q-15 -61 -50 -93t-92 -32q-25 0 -45.5 10.5t-34.5 27.5t-21 40t-5 48q1 7 4 11.5t13 4.5h32q8 0 11 -3t4 -9q4 -26 16 -42t34 -16z" />
    <glyph glyph-name="Edotaccent" unicode="&#x116;" horiz-adv-x="457" 
d="M390 14q-3 -14 -17 -14h-335q-12 0 -12 10v4l114 589q3 14 18 14h327q15 0 12 -15l-11 -56q-3 -15 -16 -15h-232q-14 0 -15 -11l-30 -149v-3q0 -9 9 -9h192q9 0 11 -4.5t1 -10.5l-10 -59q-4 -13 -16 -13h-193q-13 0 -14 -12l-33 -164v-2q0 -8 11 -8h238q6 0 10 -4t2 -10z
M386 718q-5 -23 -23 -38t-41 -15t-35.5 15t-8.5 38q5 22 23 37.5t41 15.5t35.5 -15.5t8.5 -37.5z" />
    <glyph glyph-name="edotaccent" unicode="&#x117;" horiz-adv-x="448" 
d="M422 333q0 -52 -26.5 -83t-67 -48t-88.5 -23t-92 -7q-11 0 -14 -11l-4 -22q-8 -32 11.5 -47.5t63.5 -15.5q29 0 55 17t43 32q13 13 23 4l39 -35q6 -6 8.5 -11.5t-5.5 -13.5q-35 -40 -76 -58t-95 -18q-43 0 -76.5 10.5t-54.5 32.5t-28 56.5t2 82.5l18 92q10 51 29.5 86
t47 56t62.5 30t76 9q26 0 52.5 -7t48 -21t35 -35.5t13.5 -51.5zM328 317q0 20 -13.5 35.5t-49.5 15.5q-47 0 -73.5 -23t-33.5 -55l-7 -33q-1 -10 11 -10q28 0 57.5 3.5t53.5 11.5t39.5 21.5t15.5 33.5zM342 550q-5 -23 -23 -38t-41 -15t-35.5 15t-8.5 38q5 22 23 37.5
t41 15.5t35.5 -15.5t8.5 -37.5z" />
    <glyph glyph-name="Ecaron" unicode="&#x11a;" horiz-adv-x="457" 
d="M390 14q-3 -14 -17 -14h-335q-12 0 -12 10v4l114 589q3 14 18 14h327q15 0 12 -15l-11 -56q-3 -15 -16 -15h-232q-14 0 -15 -11l-30 -149v-3q0 -9 9 -9h192q9 0 11 -4.5t1 -10.5l-10 -59q-4 -13 -16 -13h-193q-13 0 -14 -12l-33 -164v-2q0 -8 11 -8h238q6 0 10 -4t2 -10z
M194 773q-3 5 -3 9.5t8 8.5l23 10q8 4 12.5 3.5t8.5 -4.5l69 -61q6 -5 14 0l111 61q7 4 11 4.5t11 -3.5l25 -10q7 -4 4 -8.5t-8 -9.5l-121 -102q-5 -5 -10 -7t-13 -2h-50q-13 0 -19 9z" />
    <glyph glyph-name="ecaron" unicode="&#x11b;" horiz-adv-x="448" 
d="M422 333q0 -52 -26.5 -83t-67 -48t-88.5 -23t-92 -7q-11 0 -14 -11l-4 -22q-8 -32 11.5 -47.5t63.5 -15.5q29 0 55 17t43 32q13 13 23 4l39 -35q6 -6 8.5 -11.5t-5.5 -13.5q-35 -40 -76 -58t-95 -18q-43 0 -76.5 10.5t-54.5 32.5t-28 56.5t2 82.5l18 92q10 51 29.5 86
t47 56t62.5 30t76 9q26 0 52.5 -7t48 -21t35 -35.5t13.5 -51.5zM328 317q0 20 -13.5 35.5t-49.5 15.5q-47 0 -73.5 -23t-33.5 -55l-7 -33q-1 -10 11 -10q28 0 57.5 3.5t53.5 11.5t39.5 21.5t15.5 33.5zM163 618q-3 5 -3 10.5t8 10.5l26 14q14 8 21 -2l68 -85q6 -7 14 -1
l116 87q7 5 11 5.5t11 -4.5l20 -14q7 -5 4 -10.5t-8 -10.5l-122 -124q-5 -5 -10 -8t-13 -3h-50q-13 0 -19 11z" />
    <glyph glyph-name="Gcircumflex" unicode="&#x11c;" horiz-adv-x="508" 
d="M225 -6q-46 -1 -82.5 13.5t-60 41t-33 62t-0.5 76.5l54 262q15 80 65.5 128.5t139.5 48.5q48 0 93.5 -18t76.5 -63q9 -10 -7 -23l-40 -37q-7 -6 -14 -3.5t-12 8.5q-43 50 -93 50q-48 0 -75.5 -26.5t-35.5 -64.5l-53 -271q-4 -18 -1.5 -35.5t12.5 -31t27 -22t43 -8.5
q27 0 47.5 9t35 23.5t23 32.5t10.5 37l12 63q2 9 -6 9h-65q-13 0 -12 14l12 60q3 12 17 12h155q8 0 12 -3t2 -11q-3 -15 -7 -37t-8.5 -44.5t-8.5 -44t-7 -36.5q-15 -79 -69.5 -125t-146.5 -46zM475 689q3 -5 3 -9.5t-8 -8.5l-24 -11q-8 -4 -12.5 -3.5t-8.5 4.5l-67 62
q-6 5 -14 0l-115 -62q-7 -4 -11 -4.5t-11 3.5l-22 11q-7 4 -4 8.5t8 9.5l121 102q10 9 23 9h50q13 0 19 -9z" />
    <glyph glyph-name="gcircumflex" unicode="&#x11d;" horiz-adv-x="454" 
d="M370 -17q-17 -89 -60 -129t-132 -40q-19 0 -38.5 2.5t-37.5 7t-32.5 9.5t-23.5 10q-11 6 -14 13.5t3 19.5l19 37q11 20 30 10q25 -12 52 -17.5t41 -5.5q25 0 42 6t28 16.5t17 24.5t9 31l9 37q2 6 -2 8.5t-13 -3.5q-13 -8 -33.5 -17t-52.5 -9q-37 0 -65.5 14t-47 37
t-25.5 54t-1 65l22 114q7 35 20.5 65.5t36.5 53.5t55.5 36.5t77.5 13.5q26 0 53 -9.5t42 -23.5q5 -5 8 -3t4 7l3 14q3 9 14 9h68q12 0 11 -12zM333 278q7 36 -13.5 62t-58.5 26q-42 0 -68 -25t-34 -63l-23 -114q-8 -37 10.5 -63t59.5 -26q22 0 39.5 8t31 20.5t22.5 28.5
t12 32zM442 526q3 -5 3 -10.5t-8 -10.5l-26 -14q-14 -8 -21 2l-68 85q-6 7 -14 1l-116 -87q-7 -5 -11 -5.5t-11 4.5l-20 14q-7 5 -4 10.5t8 10.5l122 124q5 5 10 8t13 3h50q13 0 19 -11z" />
    <glyph glyph-name="Gbreve" unicode="&#x11e;" horiz-adv-x="508" 
d="M225 -6q-46 -1 -82.5 13.5t-60 41t-33 62t-0.5 76.5l54 262q15 80 65.5 128.5t139.5 48.5q48 0 93.5 -18t76.5 -63q9 -10 -7 -23l-40 -37q-7 -6 -14 -3.5t-12 8.5q-43 50 -93 50q-48 0 -75.5 -26.5t-35.5 -64.5l-53 -271q-4 -18 -1.5 -35.5t12.5 -31t27 -22t43 -8.5
q27 0 47.5 9t35 23.5t23 32.5t10.5 37l12 63q2 9 -6 9h-65q-13 0 -12 14l12 60q3 12 17 12h155q8 0 12 -3t2 -11q-3 -15 -7 -37t-8.5 -44.5t-8.5 -44t-7 -36.5q-15 -79 -69.5 -125t-146.5 -46zM341 728q27 0 43.5 16t28.5 42q3 7 6 9.5t11 2.5h34q10 0 11.5 -5t-0.5 -12
q-15 -61 -50 -93t-92 -32q-25 0 -45.5 10.5t-34.5 27.5t-21 40t-5 48q1 7 4 11.5t13 4.5h32q8 0 11 -3t4 -9q4 -26 16 -42t34 -16z" />
    <glyph glyph-name="gbreve" unicode="&#x11f;" horiz-adv-x="454" 
d="M370 -17q-17 -89 -60 -129t-132 -40q-19 0 -38.5 2.5t-37.5 7t-32.5 9.5t-23.5 10q-11 6 -14 13.5t3 19.5l19 37q11 20 30 10q25 -12 52 -17.5t41 -5.5q25 0 42 6t28 16.5t17 24.5t9 31l9 37q2 6 -2 8.5t-13 -3.5q-13 -8 -33.5 -17t-52.5 -9q-37 0 -65.5 14t-47 37
t-25.5 54t-1 65l22 114q7 35 20.5 65.5t36.5 53.5t55.5 36.5t77.5 13.5q26 0 53 -9.5t42 -23.5q5 -5 8 -3t4 7l3 14q3 9 14 9h68q12 0 11 -12zM333 278q7 36 -13.5 62t-58.5 26q-42 0 -68 -25t-34 -63l-23 -114q-8 -37 10.5 -63t59.5 -26q22 0 39.5 8t31 20.5t22.5 28.5
t12 32zM277 565q27 0 43.5 16t28.5 42q3 7 6 9.5t11 2.5h34q10 0 11.5 -5t-0.5 -12q-15 -61 -50 -93t-92 -32q-25 0 -45.5 10.5t-34.5 27.5t-21 40t-5 48q1 7 4 11.5t13 4.5h32q8 0 11 -3t4 -9q4 -26 16 -42t34 -16z" />
    <glyph glyph-name="Gdotaccent" unicode="&#x120;" horiz-adv-x="508" 
d="M225 -6q-46 -1 -82.5 13.5t-60 41t-33 62t-0.5 76.5l54 262q15 80 65.5 128.5t139.5 48.5q48 0 93.5 -18t76.5 -63q9 -10 -7 -23l-40 -37q-7 -6 -14 -3.5t-12 8.5q-43 50 -93 50q-48 0 -75.5 -26.5t-35.5 -64.5l-53 -271q-4 -18 -1.5 -35.5t12.5 -31t27 -22t43 -8.5
q27 0 47.5 9t35 23.5t23 32.5t10.5 37l12 63q2 9 -6 9h-65q-13 0 -12 14l12 60q3 12 17 12h155q8 0 12 -3t2 -11q-3 -15 -7 -37t-8.5 -44.5t-8.5 -44t-7 -36.5q-15 -79 -69.5 -125t-146.5 -46zM398 715q-5 -23 -23 -38t-41 -15t-35.5 15t-8.5 38q5 22 23 37.5t41 15.5
t35.5 -15.5t8.5 -37.5z" />
    <glyph glyph-name="gdotaccent" unicode="&#x121;" horiz-adv-x="454" 
d="M370 -17q-17 -89 -60 -129t-132 -40q-19 0 -38.5 2.5t-37.5 7t-32.5 9.5t-23.5 10q-11 6 -14 13.5t3 19.5l19 37q11 20 30 10q25 -12 52 -17.5t41 -5.5q25 0 42 6t28 16.5t17 24.5t9 31l9 37q2 6 -2 8.5t-13 -3.5q-13 -8 -33.5 -17t-52.5 -9q-37 0 -65.5 14t-47 37
t-25.5 54t-1 65l22 114q7 35 20.5 65.5t36.5 53.5t55.5 36.5t77.5 13.5q26 0 53 -9.5t42 -23.5q5 -5 8 -3t4 7l3 14q3 9 14 9h68q12 0 11 -12zM333 278q7 36 -13.5 62t-58.5 26q-42 0 -68 -25t-34 -63l-23 -114q-8 -37 10.5 -63t59.5 -26q22 0 39.5 8t31 20.5t22.5 28.5
t12 32zM360 550q-5 -23 -23 -38t-41 -15t-35.5 15t-8.5 38q5 22 23 37.5t41 15.5t35.5 -15.5t8.5 -37.5z" />
    <glyph glyph-name="Gcommaaccent" unicode="&#x122;" horiz-adv-x="508" 
d="M225 -6q-46 -1 -82.5 13.5t-60 41t-33 62t-0.5 76.5l54 262q15 80 65.5 128.5t139.5 48.5q48 0 93.5 -18t76.5 -63q9 -10 -7 -23l-40 -37q-7 -6 -14 -3.5t-12 8.5q-43 50 -93 50q-48 0 -75.5 -26.5t-35.5 -64.5l-53 -271q-4 -18 -1.5 -35.5t12.5 -31t27 -22t43 -8.5
q27 0 47.5 9t35 23.5t23 32.5t10.5 37l12 63q2 9 -6 9h-65q-13 0 -12 14l12 60q3 12 17 12h155q8 0 12 -3t2 -11q-3 -15 -7 -37t-8.5 -44.5t-8.5 -44t-7 -36.5q-15 -79 -69.5 -125t-146.5 -46zM177 -215q-5 -10 -11.5 -13.5t-14.5 -3.5h-27q-11 0 -12 7.5t1 16.5l39 145
q5 22 27 22h62q15 0 17 -7t-5 -19z" />
    <glyph glyph-name="gcommaaccent" unicode="&#x123;" horiz-adv-x="454" 
d="M314 667q5 10 11.5 13.5t14.5 3.5h27q11 0 12 -7.5t-1 -16.5l-39 -145q-5 -22 -27 -22h-62q-15 0 -17 7t5 19zM370 -17q-17 -89 -60 -129t-132 -40q-19 0 -38.5 2.5t-37.5 7t-32.5 9.5t-23.5 10q-11 6 -14 13.5t3 19.5l19 37q11 20 30 10q25 -12 52 -17.5t41 -5.5
q25 0 42 6t28 16.5t17 24.5t9 31l9 37q2 6 -2 8.5t-13 -3.5q-13 -8 -33.5 -17t-52.5 -9q-37 0 -65.5 14t-47 37t-25.5 54t-1 65l22 114q7 35 20.5 65.5t36.5 53.5t55.5 36.5t77.5 13.5q26 0 53 -9.5t42 -23.5q5 -5 8 -3t4 7l3 14q3 9 14 9h68q12 0 11 -12zM333 278
q7 36 -13.5 62t-58.5 26q-42 0 -68 -25t-34 -63l-23 -114q-8 -37 10.5 -63t59.5 -26q22 0 39.5 8t31 20.5t22.5 28.5t12 32z" />
    <glyph glyph-name="Hcircumflex" unicode="&#x124;" horiz-adv-x="540" 
d="M454 603q3 14 17 14h69q17 0 14 -13l-114 -589q-3 -15 -18 -15h-69q-16 0 -13 15l48 247q2 13 -9 13h-190q-8 0 -11 -3.5t-4 -9.5l-49 -247q-3 -15 -17 -15h-69q-15 0 -12 15l113 588q3 14 18 14h69q15 0 12 -14q0 -3 -3.5 -20.5t-8.5 -42t-10 -52t-10 -52t-8.5 -42
t-3.5 -20.5q-1 -13 9 -13h192q11 0 14 13zM491 691q3 -5 3 -9.5t-8 -8.5l-24 -11q-8 -4 -12.5 -3.5t-8.5 4.5l-67 62q-6 5 -14 0l-115 -62q-7 -4 -11 -4.5t-11 3.5l-22 11q-7 4 -4 8.5t8 9.5l121 102q10 9 23 9h50q13 0 19 -9z" />
    <glyph glyph-name="hcircumflex" unicode="&#x125;" horiz-adv-x="473" 
d="M380 13q-1 -13 -14 -13h-70q-13 0 -11 12l52 265q8 38 -9 63.5t-61 25.5q-20 0 -37 -7.5t-31 -20.5t-23.5 -30t-13.5 -36l-50 -259q-1 -13 -15 -13h-69q-14 0 -11 12l121 613q1 13 14 13h68q12 0 11 -12l-40 -208q-3 -16 11 -6q22 18 48 27t49 9q80 0 113.5 -47
t19.5 -123zM327 676q3 -5 3 -9.5t-8 -8.5l-24 -11q-8 -4 -12.5 -3.5t-8.5 4.5l-67 62q-6 5 -14 0l-115 -62q-7 -4 -11 -4.5t-11 3.5l-22 11q-7 4 -4 8.5t8 9.5l121 102q10 9 23 9h50q13 0 19 -9z" />
    <glyph glyph-name="Itilde" unicode="&#x128;" horiz-adv-x="248" 
d="M47 0q-16 0 -13 15l114 588q3 14 18 14h70q6 0 10.5 -3.5t2.5 -10.5l-114 -588q-3 -15 -18 -15h-70zM351 756q5 -5 6 -9t-5 -12q-21 -31 -48 -43.5t-49 -12.5q-17 0 -30.5 5.5t-25.5 12t-24.5 12t-26.5 5.5q-8 0 -20 -7t-23 -18q-8 -9 -14.5 -8.5t-11.5 5.5l-17 17
q-7 8 -7.5 14t5.5 14q19 23 44.5 37.5t51.5 14.5q16 0 30 -6t27.5 -13t26 -13t24.5 -6q11 0 21.5 9.5t19.5 20.5t20 2z" />
    <glyph glyph-name="itilde" unicode="&#x129;" horiz-adv-x="234" 
d="M129 12q-3 -12 -15 -12h-70q-13 0 -11 12l81 416q3 13 15 13h70q13 0 10 -13zM323 586q5 -5 6 -9t-5 -12q-21 -31 -48 -43.5t-49 -12.5q-17 0 -30.5 5.5t-25.5 12t-24.5 12t-26.5 5.5q-8 0 -20 -7t-23 -18q-8 -9 -14.5 -8.5t-11.5 5.5l-17 17q-7 8 -7.5 14t5.5 14
q19 23 44.5 37.5t51.5 14.5q16 0 30 -6t27.5 -13t26 -13t24.5 -6q11 0 21.5 9.5t19.5 20.5t20 2z" />
    <glyph glyph-name="Imacron" unicode="&#x12a;" horiz-adv-x="248" 
d="M47 0q-16 0 -13 15l114 588q3 14 18 14h70q6 0 10.5 -3.5t2.5 -10.5l-114 -588q-3 -15 -18 -15h-70zM330 682q-3 -15 -18 -15h-209q-16 0 -13 15l8 41q3 15 18 15h209q16 0 13 -14z" />
    <glyph glyph-name="imacron" unicode="&#x12b;" horiz-adv-x="213" 
d="M117 12q-3 -12 -15 -12h-70q-13 0 -11 12l81 416q3 13 15 13h70q13 0 10 -13zM304 540q-2 -12 -14 -12h-242q-13 0 -11 12l10 51q3 12 15 12h242q13 0 10 -11z" />
    <glyph glyph-name="Ibreve" unicode="&#x12c;" horiz-adv-x="271" 
d="M63 0q-16 0 -13 15l114 588q3 14 18 14h70q6 0 10.5 -3.5t2.5 -10.5l-114 -588q-3 -15 -18 -15h-70zM229 727q27 0 43.5 16t28.5 42q3 7 6 9.5t11 2.5h34q10 0 11.5 -5t-0.5 -12q-15 -61 -50 -93t-92 -32q-25 0 -45.5 10.5t-34.5 27.5t-21 40t-5 48q1 7 4 11.5t13 4.5h32
q8 0 11 -3t4 -9q4 -26 16 -42t34 -16z" />
    <glyph glyph-name="ibreve" unicode="&#x12d;" horiz-adv-x="234" 
d="M138 12q-3 -12 -15 -12h-70q-13 0 -11 12l81 416q3 13 15 13h70q13 0 10 -13zM181 571q27 0 43.5 16t28.5 42q3 7 6 9.5t11 2.5h34q10 0 11.5 -5t-0.5 -12q-15 -61 -50 -93t-92 -32q-25 0 -45.5 10.5t-34.5 27.5t-21 40t-5 48q1 7 4 11.5t13 4.5h32q8 0 11 -3t4 -9
q4 -26 16 -42t34 -16z" />
    <glyph glyph-name="Idotaccent" unicode="&#x130;" horiz-adv-x="248" 
d="M47 0q-16 0 -13 15l114 588q3 14 18 14h70q6 0 10.5 -3.5t2.5 -10.5l-114 -588q-3 -15 -18 -15h-70zM270 720q-5 -23 -23 -38t-41 -15t-35.5 15t-8.5 38q5 22 23 37.5t41 15.5t35.5 -15.5t8.5 -37.5z" />
    <glyph glyph-name="dotlessi" unicode="&#x131;" horiz-adv-x="213" 
d="M117 12q-3 -12 -15 -12h-70q-13 0 -11 12l81 416q3 13 15 13h70q13 0 10 -13z" />
    <glyph glyph-name="IJ" unicode="&#x132;" horiz-adv-x="515" 
d="M129 -81q0 8 3 14.5t17 8.5q48 6 78.5 21t49.5 37t28.5 50t15.5 60q23 123 48 246.5t48 247.5q4 13 16 13h68q13 0 13 -12v-2l-95 -498q-9 -45 -25 -89.5t-46 -80t-78 -58.5t-121 -25q-8 0 -11 2.5t-5 10.5zM47 0q-16 0 -13 15l114 588q3 14 18 14h70q6 0 10.5 -3.5
t2.5 -10.5l-114 -588q-3 -15 -18 -15h-70z" />
    <glyph glyph-name="ij" unicode="&#x133;" horiz-adv-x="418" 
d="M110 -104q4 14 25 9q8 -2 17 -2.5t14 -0.5q38 1 48 55l92 472q1 12 15 12h68q7 0 9.5 -3.5t1.5 -8.5l-94 -484q-11 -58 -44.5 -94t-96.5 -36q-21 0 -37.5 2.5t-19.5 4.5q-8 3 -10.5 6t-0.5 14zM392 626q24 0 38 -16.5t9 -39.5t-25 -39.5t-43 -16.5q-24 0 -37.5 16
t-9.5 40q4 23 24 39.5t44 16.5zM190 626q24 0 38 -16.5t9 -39.5t-25 -39.5t-43 -16.5q-24 0 -37.5 16t-9.5 40q4 23 24 39.5t44 16.5zM118 12q-3 -12 -15 -12h-70q-13 0 -11 12l81 416q3 13 15 13h70q13 0 10 -13z" />
    <glyph glyph-name="Jcircumflex" unicode="&#x134;" horiz-adv-x="289" 
d="M-97 -81q0 8 3 14.5t17 8.5q48 6 78.5 21t49.5 37t28.5 50t15.5 60q23 123 48 246.5t48 247.5q4 13 16 13h68q13 0 13 -12v-2l-95 -498q-9 -45 -25 -89.5t-46 -80t-78 -58.5t-121 -25q-8 0 -11 2.5t-5 10.5zM389 676q3 -5 3 -9.5t-8 -8.5l-24 -11q-8 -4 -12.5 -3.5
t-8.5 4.5l-67 62q-6 5 -14 0l-115 -62q-7 -4 -11 -4.5t-11 3.5l-22 11q-7 4 -4 8.5t8 9.5l121 102q10 9 23 9h50q13 0 19 -9z" />
    <glyph glyph-name="jcircumflex" unicode="&#x135;" horiz-adv-x="244" 
d="M-74 -104q4 14 25 9q8 -2 17 -2.5t14 -0.5q38 1 48 55l92 472q1 12 15 12h68q7 0 9.5 -3.5t1.5 -8.5l-94 -484q-11 -58 -44.5 -94t-96.5 -36q-21 0 -37.5 2.5t-19.5 4.5q-8 3 -10.5 6t-0.5 14zM328 526q3 -5 3 -10.5t-8 -10.5l-26 -14q-14 -8 -21 2l-68 85q-6 7 -14 1
l-116 -87q-7 -5 -11 -5.5t-11 4.5l-20 14q-7 5 -4 10.5t8 10.5l122 124q5 5 10 8t13 3h50q13 0 19 -11z" />
    <glyph glyph-name="Kcommaaccent" unicode="&#x136;" horiz-adv-x="517" 
d="M434 13q-1 -13 -14 -13h-69q-14 0 -11 12l23 181q2 19 1.5 37.5t-8.5 33t-24.5 23.5t-46.5 9q-53 0 -84.5 -30.5t-41.5 -77.5l-35 -175q-1 -13 -13 -13h-75q-13 0 -11 12l115 592q3 13 17 13h73q11 0 10 -12l-44 -219q-2 -9 2.5 -8t8.5 4l227 226q6 5 10.5 7t12.5 2h84
q9 0 10.5 -5t-3.5 -11l-223 -222q-11 -11 2 -11q20 0 37 -3q56 -11 80.5 -53t12.5 -110zM193 -197q-5 -10 -11.5 -13.5t-14.5 -3.5h-27q-11 0 -12 7.5t1 16.5l39 145q5 22 27 22h62q15 0 17 -7t-5 -19z" />
    <glyph glyph-name="kcommaaccent" unicode="&#x137;" horiz-adv-x="443" 
d="M387 18q-4 -18 -18 -18h-65q-16 0 -14 15l13 91q3 19 2 36t-8.5 29.5t-22 20t-38.5 7.5q-46 0 -71.5 -27.5t-33.5 -64.5l-18 -95q-3 -12 -14 -12h-71q-13 0 -10 12l119 612q2 13 14 13h70q13 0 10 -12l-65 -333q-3 -12 5 -12q3 0 7 4q31 28 54 49.5t41.5 38.5t34 32
t31.5 29q5 5 9 6t12 1h91q9 0 9.5 -5.5t-4.5 -9.5l-156 -142q-3 -2 -5 -6q0 -3 5 -5q36 -4 57.5 -18.5t33 -37t13 -51t-3.5 -60.5zM169 -215q-5 -10 -11.5 -13.5t-14.5 -3.5h-27q-11 0 -12 7.5t1 16.5l39 145q5 22 27 22h62q15 0 17 -7t-5 -19z" />
    <glyph glyph-name="kgreenlandic" unicode="&#x138;" horiz-adv-x="452" 
d="M387 18q-4 -18 -18 -18h-65q-16 0 -14 15l13 91q3 19 2 36t-8.5 29.5t-22 20t-38.5 7.5q-46 0 -71.5 -27.5t-33.5 -64.5l-18 -95q-3 -12 -14 -12h-71q-13 0 -10 12l81 416q2 13 14 13h70q13 0 10 -12l-27 -137q-3 -12 5 -12q3 0 7 4q31 28 54 49.5t41.5 38.5t34 32
t31.5 29q5 5 9 6t12 1h91q9 0 9.5 -5.5t-4.5 -9.5l-156 -142q-3 -2 -5 -6q0 -3 5 -5q36 -4 57.5 -18.5t33 -37t13 -51t-3.5 -60.5z" />
    <glyph glyph-name="Lacute" unicode="&#x139;" horiz-adv-x="425" 
d="M381 87q6 0 10 -3.5t2 -11.5l-11 -57q-3 -15 -16 -15h-326q-15 0 -13 15l114 589q2 13 17 13h69q15 0 13 -13l-99 -507q-2 -10 10 -10h230zM369 735q6 -8 0.5 -14t-10.5 -8l-162 -67q-5 -2 -12 -1t-10 7l-14 21q-7 11 7 19l139 89q23 15 37 -7z" />
    <glyph glyph-name="lacute" unicode="&#x13a;" horiz-adv-x="234" 
d="M139 127q-5 -26 0 -35.5t25 -9.5h11q12 0 13.5 -7t0.5 -14l-6 -49q-2 -17 -18 -18q-8 -1 -16 -1h-16q-34 0 -54 8.5t-29.5 26.5t-9 46.5t8.5 68.5l94 481q2 13 14 13h69q14 0 11 -12zM369 771q6 -8 0.5 -14t-10.5 -8l-162 -67q-5 -2 -12 -1t-10 7l-14 21q-7 11 7 19
l139 89q23 15 37 -7z" />
    <glyph glyph-name="Lcommaaccent" unicode="&#x13b;" horiz-adv-x="425" 
d="M381 87q6 0 10 -3.5t2 -11.5l-11 -57q-3 -15 -16 -15h-326q-15 0 -13 15l114 589q2 13 17 13h69q15 0 13 -13l-99 -507q-2 -10 10 -10h230zM157 -215q-5 -10 -11.5 -13.5t-14.5 -3.5h-27q-11 0 -12 7.5t1 16.5l39 145q5 22 27 22h62q15 0 17 -7t-5 -19z" />
    <glyph glyph-name="lcommaaccent" unicode="&#x13c;" horiz-adv-x="234" 
d="M139 127q-5 -26 0 -35.5t25 -9.5h11q12 0 13.5 -7t0.5 -14l-6 -49q-2 -17 -18 -18q-8 -1 -16 -1h-16q-34 0 -54 8.5t-29.5 26.5t-9 46.5t8.5 68.5l94 481q2 13 14 13h69q14 0 11 -12zM39 -215q-5 -10 -11.5 -13.5t-14.5 -3.5h-27q-11 0 -12 7.5t1 16.5l39 145q5 22 27 22
h62q15 0 17 -7t-5 -19z" />
    <glyph glyph-name="Lcaron" unicode="&#x13d;" horiz-adv-x="425" 
d="M381 87q6 0 10 -3.5t2 -11.5l-11 -57q-3 -15 -16 -15h-326q-15 0 -13 15l114 589q2 13 17 13h69q15 0 13 -13l-99 -507q-2 -10 10 -10h230zM375 443q-5 -10 -11.5 -13.5t-14.5 -3.5h-27q-11 0 -12 7.5t1 16.5l39 145q5 22 27 22h62q15 0 17 -7t-5 -19z" />
    <glyph glyph-name="lcaron" unicode="&#x13e;" horiz-adv-x="329" 
d="M139 127q-5 -26 0 -35.5t25 -9.5h11q12 0 13.5 -7t0.5 -14l-6 -49q-2 -17 -18 -18q-8 -1 -16 -1h-16q-34 0 -54 8.5t-29.5 26.5t-9 46.5t8.5 68.5l94 481q2 13 14 13h69q14 0 11 -12zM318 464q-5 -10 -11.5 -13.5t-14.5 -3.5h-27q-11 0 -12 7.5t1 16.5l39 145q5 22 27 22
h62q15 0 17 -7t-5 -19z" />
    <glyph glyph-name="Ldot" unicode="&#x13f;" horiz-adv-x="425" 
d="M381 87q6 0 10 -3.5t2 -11.5l-11 -57q-3 -15 -16 -15h-326q-15 0 -13 15l114 589q2 13 17 13h69q15 0 13 -13l-99 -507q-2 -10 10 -10h230zM392 300q-5 -23 -23 -38t-41 -15t-35.5 15t-8.5 38q5 22 23 37.5t41 15.5t35.5 -15.5t8.5 -37.5z" />
    <glyph glyph-name="ldot" unicode="&#x140;" horiz-adv-x="322" 
d="M342 320q-5 -23 -23 -38t-41 -15t-35.5 15t-8.5 38q5 22 23 37.5t41 15.5t35.5 -15.5t8.5 -37.5zM139 127q-5 -26 0 -35.5t25 -9.5h11q12 0 13.5 -7t0.5 -14l-6 -49q-2 -17 -18 -18q-8 -1 -16 -1h-16q-34 0 -54 8.5t-29.5 26.5t-9 46.5t8.5 68.5l94 481q2 13 14 13h69
q14 0 11 -12z" />
    <glyph glyph-name="nacute" unicode="&#x144;" horiz-adv-x="471" 
d="M380 13q-1 -13 -14 -13h-70q-13 0 -11 12l52 265q8 38 -9 63.5t-61 25.5q-20 0 -37 -7.5t-31 -20.5t-23.5 -30t-13.5 -36l-50 -259q-1 -13 -15 -13h-69q-14 0 -11 12l81 416q3 13 15 13h68q13 0 10 -12l-3 -14q-2 -8 1.5 -9.5t11.5 3.5q22 18 48.5 28.5t49.5 10.5
q80 0 113.5 -47t19.5 -123zM402 633q8 -6 5.5 -12.5t-6.5 -10.5l-130 -120q-3 -3 -8.5 -4.5t-13.5 3.5l-21 13q-12 7 -3 19l105 139q5 6 12 8t12 -2z" />
    <glyph glyph-name="Ncommaaccent" unicode="&#x145;" horiz-adv-x="539" 
d="M208 617q13 0 18 -4.5t9 -12.5q35 -103 69 -209.5t69 -208.5q0 -1 1 -2q2 0 2 2l83 421q3 14 17 14h64q17 0 12 -13q-28 -147 -56 -292t-57 -292q-2 -12 -9 -16t-15 -4h-44q-11 0 -17.5 3t-9.5 12q-17 47 -35 99.5t-36 106t-36 106t-35 99.5q0 2 -2 2l-1 -2l-78 -413
q-4 -13 -17 -13h-65q-14 0 -13 13l113 580q2 12 7 18t19 6h43zM185 -195q-5 -10 -11.5 -13.5t-14.5 -3.5h-27q-11 0 -12 7.5t1 16.5l39 145q5 22 27 22h62q15 0 17 -7t-5 -19z" />
    <glyph glyph-name="ncommaaccent" unicode="&#x146;" horiz-adv-x="471" 
d="M380 13q-1 -13 -14 -13h-70q-13 0 -11 12l52 265q8 38 -9 63.5t-61 25.5q-20 0 -37 -7.5t-31 -20.5t-23.5 -30t-13.5 -36l-50 -259q-1 -13 -15 -13h-69q-14 0 -11 12l81 416q3 13 15 13h68q13 0 10 -12l-3 -14q-2 -8 1.5 -9.5t11.5 3.5q22 18 48.5 28.5t49.5 10.5
q80 0 113.5 -47t19.5 -123zM154 -215q-5 -10 -11.5 -13.5t-14.5 -3.5h-27q-11 0 -12 7.5t1 16.5l39 145q5 22 27 22h62q15 0 17 -7t-5 -19z" />
    <glyph glyph-name="Ncaron" unicode="&#x147;" horiz-adv-x="539" 
d="M208 617q13 0 18 -4.5t9 -12.5q35 -103 69 -209.5t69 -208.5q0 -1 1 -2q2 0 2 2l83 421q3 14 17 14h64q17 0 12 -13q-28 -147 -56 -292t-57 -292q-2 -12 -9 -16t-15 -4h-44q-11 0 -17.5 3t-9.5 12q-17 47 -35 99.5t-36 106t-36 106t-35 99.5q0 2 -2 2l-1 -2l-78 -413
q-4 -13 -17 -13h-65q-14 0 -13 13l113 580q2 12 7 18t19 6h43zM212 761q-3 5 -3 9.5t8 8.5l23 10q8 4 12.5 3.5t8.5 -4.5l69 -61q6 -5 14 0l111 61q7 4 11 4.5t11 -3.5l25 -10q7 -4 4 -8.5t-8 -9.5l-121 -102q-5 -5 -10 -7t-13 -2h-50q-13 0 -19 9z" />
    <glyph glyph-name="ncaron" unicode="&#x148;" horiz-adv-x="471" 
d="M380 13q-1 -13 -14 -13h-70q-13 0 -11 12l52 265q8 38 -9 63.5t-61 25.5q-20 0 -37 -7.5t-31 -20.5t-23.5 -30t-13.5 -36l-50 -259q-1 -13 -15 -13h-69q-14 0 -11 12l81 416q3 13 15 13h68q13 0 10 -12l-3 -14q-2 -8 1.5 -9.5t11.5 3.5q22 18 48.5 28.5t49.5 10.5
q80 0 113.5 -47t19.5 -123zM159 618q-3 5 -3 10.5t8 10.5l26 14q14 8 21 -2l68 -85q6 -7 14 -1l116 87q7 5 11 5.5t11 -4.5l20 -14q7 -5 4 -10.5t-8 -10.5l-122 -124q-5 -5 -10 -8t-13 -3h-50q-13 0 -19 11z" />
    <glyph glyph-name="napostrophe" unicode="&#x149;" horiz-adv-x="520" 
d="M429 13q-1 -13 -14 -13h-70q-13 0 -11 12l52 265q8 38 -9 63.5t-61 25.5q-20 0 -37 -7.5t-31 -20.5t-23.5 -30t-13.5 -36l-50 -259q-1 -13 -15 -13h-69q-14 0 -11 12l81 416q3 13 15 13h68q13 0 10 -12l-3 -14q-2 -8 1.5 -9.5t11.5 3.5q22 18 48.5 28.5t49.5 10.5
q80 0 113.5 -47t19.5 -123zM95 435q-5 -10 -11.5 -13.5t-14.5 -3.5h-27q-11 0 -12 7.5t1 16.5l39 145q5 22 27 22h62q15 0 17 -7t-5 -19z" />
    <glyph glyph-name="Omacron" unicode="&#x14c;" horiz-adv-x="508" 
d="M444 173q-8 -40 -24 -73t-42 -56.5t-63.5 -36.5t-88.5 -13q-47 0 -83 14.5t-59 40t-31.5 61t-0.5 77.5l51 262q16 83 70.5 130t144.5 47q42 0 78.5 -12.5t61 -36.5t35.5 -59t2 -79zM397 444q8 40 -15 67.5t-69 27.5q-47 0 -76 -26.5t-37 -64.5l-52 -266q-7 -45 15 -73
t67 -28q51 0 79 24.5t36 66.5zM473 689q-3 -15 -18 -15h-209q-16 0 -13 15l8 41q3 15 18 15h209q16 0 13 -14z" />
    <glyph glyph-name="omacron" unicode="&#x14d;" horiz-adv-x="458" 
d="M402 164q-15 -82 -64.5 -126t-139.5 -44q-42 0 -74.5 14t-53 38.5t-28.5 58.5t0 75l19 99q14 76 64 123t137 47q40 0 72.5 -12.5t54.5 -36t31 -56t2 -72.5zM328 272q8 39 -12.5 66.5t-59.5 27.5q-38 0 -65 -25t-35 -63l-22 -114q-3 -16 0 -32t12 -28.5t24 -20t36 -7.5
q39 0 66 24t35 64zM426 540q-2 -12 -14 -12h-242q-13 0 -11 12l10 51q3 12 15 12h242q13 0 10 -11z" />
    <glyph glyph-name="Obreve" unicode="&#x14e;" horiz-adv-x="508" 
d="M444 173q-8 -40 -24 -73t-42 -56.5t-63.5 -36.5t-88.5 -13q-47 0 -83 14.5t-59 40t-31.5 61t-0.5 77.5l51 262q16 83 70.5 130t144.5 47q42 0 78.5 -12.5t61 -36.5t35.5 -59t2 -79zM397 444q8 40 -15 67.5t-69 27.5q-47 0 -76 -26.5t-37 -64.5l-52 -266q-7 -45 15 -73
t67 -28q51 0 79 24.5t36 66.5zM356 727q27 0 43.5 16t28.5 42q3 7 6 9.5t11 2.5h34q10 0 11.5 -5t-0.5 -12q-15 -61 -50 -93t-92 -32q-25 0 -45.5 10.5t-34.5 27.5t-21 40t-5 48q1 7 4 11.5t13 4.5h32q8 0 11 -3t4 -9q4 -26 16 -42t34 -16z" />
    <glyph glyph-name="obreve" unicode="&#x14f;" horiz-adv-x="458" 
d="M402 164q-15 -82 -64.5 -126t-139.5 -44q-42 0 -74.5 14t-53 38.5t-28.5 58.5t0 75l19 99q14 76 64 123t137 47q40 0 72.5 -12.5t54.5 -36t31 -56t2 -72.5zM328 272q8 39 -12.5 66.5t-59.5 27.5q-38 0 -65 -25t-35 -63l-22 -114q-3 -16 0 -32t12 -28.5t24 -20t36 -7.5
q39 0 66 24t35 64zM301 565q27 0 43.5 16t28.5 42q3 7 6 9.5t11 2.5h34q10 0 11.5 -5t-0.5 -12q-15 -61 -50 -93t-92 -32q-25 0 -45.5 10.5t-34.5 27.5t-21 40t-5 48q1 7 4 11.5t13 4.5h32q8 0 11 -3t4 -9q4 -26 16 -42t34 -16z" />
    <glyph glyph-name="Ohungarumlaut" unicode="&#x150;" horiz-adv-x="508" 
d="M444 173q-8 -40 -24 -73t-42 -56.5t-63.5 -36.5t-88.5 -13q-47 0 -83 14.5t-59 40t-31.5 61t-0.5 77.5l51 262q16 83 70.5 130t144.5 47q42 0 78.5 -12.5t61 -36.5t35.5 -59t2 -79zM397 444q8 40 -15 67.5t-69 27.5q-47 0 -76 -26.5t-37 -64.5l-52 -266q-7 -45 15 -73
t67 -28q51 0 79 24.5t36 66.5zM390 765q7 -8 2 -14.5t-10 -8.5l-155 -82q-5 -3 -12 -2.5t-11 6.5l-15 19q-8 10 5 20l130 102q21 16 37 -4zM553 765q7 -8 2 -14.5t-10 -8.5l-155 -82q-5 -3 -12 -2.5t-11 6.5l-15 19q-8 10 5 20l130 102q21 16 37 -4z" />
    <glyph glyph-name="ohungarumlaut" unicode="&#x151;" horiz-adv-x="458" 
d="M402 164q-15 -82 -64.5 -126t-139.5 -44q-42 0 -74.5 14t-53 38.5t-28.5 58.5t0 75l19 99q14 76 64 123t137 47q40 0 72.5 -12.5t54.5 -36t31 -56t2 -72.5zM328 272q8 39 -12.5 66.5t-59.5 27.5q-38 0 -65 -25t-35 -63l-22 -114q-3 -16 0 -32t12 -28.5t24 -20t36 -7.5
q39 0 66 24t35 64zM484 633q8 -6 5.5 -12.5t-6.5 -10.5l-130 -120q-3 -3 -8.5 -4.5t-13.5 3.5l-21 13q-12 7 -3 19l105 139q5 6 12 8t12 -2zM347 633q8 -6 5.5 -12.5t-6.5 -10.5l-130 -120q-3 -3 -8.5 -4.5t-13.5 3.5l-21 13q-12 7 -3 19l105 139q5 6 12 8t12 -2z" />
    <glyph glyph-name="Racute" unicode="&#x154;" horiz-adv-x="498" 
d="M343 617q84 0 121.5 -38t37.5 -106q0 -65 -32.5 -117.5t-95.5 -90.5q-8 -5 -6 -10.5t5 -16.5l59 -216q2 -2 2 -4.5v-4.5q0 -8 -6 -10.5t-11 -2.5h-59q-17 0 -23 5.5t-8 14.5l-57 218q-2 7 -12 7h-80q-8 0 -11 -9l-43 -223q-3 -13 -17 -13h-68q-14 0 -14 13
q29 148 57.5 295.5t57.5 295.5q3 13 17 13h186zM236 531q-12 0 -15 -11l-35 -180q0 -10 9 -10h108q5 0 10 2l10 4q23 12 38 29.5t24 35t12.5 33t3.5 23.5q0 34 -19 54t-64 20h-82zM469 744q6 -8 0.5 -14t-10.5 -8l-162 -67q-5 -2 -12 -1t-10 7l-14 21q-7 11 7 19l139 89
q23 15 37 -7z" />
    <glyph glyph-name="racute" unicode="&#x155;" horiz-adv-x="316" 
d="M324 361q-4 -10 -8.5 -11t-9.5 -1q-36 1 -61.5 -5t-42.5 -19.5t-27 -34t-15 -47.5l-45 -230q-3 -13 -15 -13h-69q-14 0 -12 12l81 416q3 13 15 13h60q14 0 11 -12l-8 -41q-2 -6 1.5 -7.5t8.5 3.5q10 13 25 26t34 22t42.5 12.5t52.5 -0.5q14 -1 7 -18zM338 637
q8 -6 5.5 -12.5t-6.5 -10.5l-130 -120q-3 -3 -8.5 -4.5t-13.5 3.5l-21 13q-12 7 -3 19l105 139q5 6 12 8t12 -2z" />
    <glyph glyph-name="Rcaron" unicode="&#x158;" horiz-adv-x="498" 
d="M343 617q84 0 121.5 -38t37.5 -106q0 -65 -32.5 -117.5t-95.5 -90.5q-8 -5 -6 -10.5t5 -16.5l59 -216q2 -2 2 -4.5v-4.5q0 -8 -6 -10.5t-11 -2.5h-59q-17 0 -23 5.5t-8 14.5l-57 218q-2 7 -12 7h-80q-8 0 -11 -9l-43 -223q-3 -13 -17 -13h-68q-14 0 -14 13
q29 148 57.5 295.5t57.5 295.5q3 13 17 13h186zM236 531q-12 0 -15 -11l-35 -180q0 -10 9 -10h108q5 0 10 2l10 4q23 12 38 29.5t24 35t12.5 33t3.5 23.5q0 34 -19 54t-64 20h-82zM186 769q-3 5 -3 9.5t8 8.5l23 10q8 4 12.5 3.5t8.5 -4.5l69 -61q6 -5 14 0l111 61
q7 4 11 4.5t11 -3.5l25 -10q7 -4 4 -8.5t-8 -9.5l-121 -102q-5 -5 -10 -7t-13 -2h-50q-13 0 -19 9z" />
    <glyph glyph-name="rcaron" unicode="&#x159;" horiz-adv-x="316" 
d="M324 361q-4 -10 -8.5 -11t-9.5 -1q-36 1 -61.5 -5t-42.5 -19.5t-27 -34t-15 -47.5l-45 -230q-3 -13 -15 -13h-69q-14 0 -12 12l81 416q3 13 15 13h60q14 0 11 -12l-8 -41q-2 -6 1.5 -7.5t8.5 3.5q10 13 25 26t34 22t42.5 12.5t52.5 -0.5q14 -1 7 -18zM97 637
q-3 5 -3 10.5t8 10.5l26 14q14 8 21 -2l68 -85q6 -7 14 -1l116 87q7 5 11 5.5t11 -4.5l20 -14q7 -5 4 -10.5t-8 -10.5l-122 -124q-5 -5 -10 -8t-13 -3h-50q-13 0 -19 11z" />
    <glyph glyph-name="Sacute" unicode="&#x15a;" horiz-adv-x="461" 
d="M197 -5q-50 0 -97.5 14t-81.5 46q-5 5 -4.5 10.5t6.5 15.5l32 41q6 7 11.5 9.5t16.5 -7.5q18 -14 53.5 -27.5t78.5 -13.5q23 0 44 6.5t37.5 18.5t26 30t9.5 41q0 19 -9 34t-23.5 27t-33 21t-37.5 18q-24 10 -50.5 23t-48.5 32t-36.5 45t-14.5 62q0 45 16.5 79.5t45 57.5
t67 35t81.5 12q48 0 93.5 -14.5t76.5 -43.5q10 -12 -2 -27l-32 -39q-6 -8 -12 -7.5t-14 6.5q-30 23 -58 31t-51 8q-22 0 -42 -5.5t-35 -16.5t-24 -27.5t-9 -39.5q0 -17 9 -30t23 -23.5t31 -18.5t32 -15q25 -11 54 -26t53 -35t40 -47t16 -62q0 -48 -17.5 -85t-49 -62t-75 -38
t-96.5 -13zM458 761q6 -8 0.5 -14t-10.5 -8l-162 -67q-5 -2 -12 -1t-10 7l-14 21q-7 11 7 19l139 89q23 15 37 -7z" />
    <glyph glyph-name="sacute" unicode="&#x15b;" horiz-adv-x="402" 
d="M174 -6q-26 0 -50.5 5.5t-46 16.5t-38.5 29t-27 44q-4 9 8 17l50 26q7 4 10.5 2t7.5 -7q13 -25 35 -39.5t57 -14.5q28 0 49 12.5t21 42.5q0 19 -20.5 30t-46.5 22q-19 8 -41 17.5t-40.5 23.5t-31 34.5t-12.5 50.5q0 34 12 60.5t34 44.5t52 27.5t65 9.5q45 0 85 -15.5
t66 -49.5q5 -5 2.5 -10t-8.5 -11l-36 -36q-5 -5 -11.5 -4t-11.5 7q-16 18 -39.5 29.5t-47.5 11.5q-29 0 -48 -13t-19 -41q0 -20 17.5 -30.5t42.5 -21.5q22 -10 46 -20.5t44.5 -25.5t33.5 -35.5t13 -48.5q0 -36 -14 -62t-38 -43.5t-56 -26t-68 -8.5zM368 634q8 -6 5.5 -12.5
t-6.5 -10.5l-130 -120q-3 -3 -8.5 -4.5t-13.5 3.5l-21 13q-12 7 -3 19l105 139q5 6 12 8t12 -2z" />
    <glyph glyph-name="Scircumflex" unicode="&#x15c;" horiz-adv-x="461" 
d="M197 -5q-50 0 -97.5 14t-81.5 46q-5 5 -4.5 10.5t6.5 15.5l32 41q6 7 11.5 9.5t16.5 -7.5q18 -14 53.5 -27.5t78.5 -13.5q23 0 44 6.5t37.5 18.5t26 30t9.5 41q0 19 -9 34t-23.5 27t-33 21t-37.5 18q-24 10 -50.5 23t-48.5 32t-36.5 45t-14.5 62q0 45 16.5 79.5t45 57.5
t67 35t81.5 12q48 0 93.5 -14.5t76.5 -43.5q10 -12 -2 -27l-32 -39q-6 -8 -12 -7.5t-14 6.5q-30 23 -58 31t-51 8q-22 0 -42 -5.5t-35 -16.5t-24 -27.5t-9 -39.5q0 -17 9 -30t23 -23.5t31 -18.5t32 -15q25 -11 54 -26t53 -35t40 -47t16 -62q0 -48 -17.5 -85t-49 -62t-75 -38
t-96.5 -13zM447 690q3 -5 3 -9.5t-8 -8.5l-24 -11q-8 -4 -12.5 -3.5t-8.5 4.5l-67 62q-6 5 -14 0l-115 -62q-7 -4 -11 -4.5t-11 3.5l-22 11q-7 4 -4 8.5t8 9.5l121 102q10 9 23 9h50q13 0 19 -9z" />
    <glyph glyph-name="scircumflex" unicode="&#x15d;" horiz-adv-x="402" 
d="M174 -6q-26 0 -50.5 5.5t-46 16.5t-38.5 29t-27 44q-4 9 8 17l50 26q7 4 10.5 2t7.5 -7q13 -25 35 -39.5t57 -14.5q28 0 49 12.5t21 42.5q0 19 -20.5 30t-46.5 22q-19 8 -41 17.5t-40.5 23.5t-31 34.5t-12.5 50.5q0 34 12 60.5t34 44.5t52 27.5t65 9.5q45 0 85 -15.5
t66 -49.5q5 -5 2.5 -10t-8.5 -11l-36 -36q-5 -5 -11.5 -4t-11.5 7q-16 18 -39.5 29.5t-47.5 11.5q-29 0 -48 -13t-19 -41q0 -20 17.5 -30.5t42.5 -21.5q22 -10 46 -20.5t44.5 -25.5t33.5 -35.5t13 -48.5q0 -36 -14 -62t-38 -43.5t-56 -26t-68 -8.5zM394 526q3 -5 3 -10.5
t-8 -10.5l-26 -14q-14 -8 -21 2l-68 85q-6 7 -14 1l-116 -87q-7 -5 -11 -5.5t-11 4.5l-20 14q-7 5 -4 10.5t8 10.5l122 124q5 5 10 8t13 3h50q13 0 19 -11z" />
    <glyph glyph-name="Tcommaaccent" unicode="&#x162;" horiz-adv-x="429" 
d="M479 546q-5 -15 -18 -15h-125q-11 0 -14 -10l-99 -507q-3 -14 -16 -14h-69q-17 0 -13 13l98 507q3 11 -9 11h-121q-14 0 -11 15l11 57q3 14 17 14h368q14 0 11 -13zM118 -215q-5 -10 -11.5 -13.5t-14.5 -3.5h-27q-11 0 -12 7.5t1 16.5l39 145q5 22 27 22h62q15 0 17 -7
t-5 -19z" />
    <glyph glyph-name="tcommaaccent" unicode="&#x163;" horiz-adv-x="373" 
d="M293 25q1 -11 -5 -14.5t-14 -5.5t-19.5 -4t-25 -3.5t-26.5 -2t-22 -0.5q-37 0 -60 9.5t-35 26t-13.5 39.5t3.5 50l45 232q2 11 -10 11h-40q-13 0 -11 12l11 53q2 13 13 13h41q12 0 15 13l15 76q2 13 15 13l71 15q13 0 11 -12l-18 -93q-3 -12 9 -12h86q12 0 11 -12
l-11 -53q-1 -13 -15 -13h-86q-13 0 -14 -11l-42 -216q-6 -32 4 -44t37 -12q8 0 25 2t26 4q12 2 16.5 -1t5.5 -11zM98 -215q-5 -10 -11.5 -13.5t-14.5 -3.5h-27q-11 0 -12 7.5t1 16.5l39 145q5 22 27 22h62q15 0 17 -7t-5 -19z" />
    <glyph glyph-name="Tcaron" unicode="&#x164;" horiz-adv-x="429" 
d="M479 546q-5 -15 -18 -15h-125q-11 0 -14 -10l-99 -507q-3 -14 -16 -14h-69q-17 0 -13 13l98 507q3 11 -9 11h-121q-14 0 -11 15l11 57q3 14 17 14h368q14 0 11 -13zM179 773q-3 5 -3 9.5t8 8.5l23 10q8 4 12.5 3.5t8.5 -4.5l69 -61q6 -5 14 0l111 61q7 4 11 4.5t11 -3.5
l25 -10q7 -4 4 -8.5t-8 -9.5l-121 -102q-5 -5 -10 -7t-13 -2h-50q-13 0 -19 9z" />
    <glyph glyph-name="tcaron" unicode="&#x165;" horiz-adv-x="360" 
d="M292 25q1 -11 -5 -14.5t-14 -5.5t-19.5 -4t-25 -3.5t-26.5 -2t-22 -0.5q-37 0 -60 9.5t-35 26t-13.5 39.5t3.5 50l45 232q2 11 -10 11h-40q-13 0 -11 12l11 53q2 13 13 13h41q12 0 15 13l15 76q2 13 15 13l71 15q13 0 11 -12l-18 -93q-3 -12 9 -12h86q12 0 11 -12
l-11 -53q-1 -13 -15 -13h-86q-13 0 -14 -11l-42 -216q-6 -32 4 -44t37 -12q8 0 25 2t26 4q12 2 16.5 -1t5.5 -11zM366 523q-5 -10 -11.5 -13.5t-14.5 -3.5h-27q-11 0 -12 7.5t1 16.5l39 145q5 22 27 22h62q15 0 17 -7t-5 -19z" />
    <glyph glyph-name="Utilde" unicode="&#x168;" horiz-adv-x="516" 
d="M446 169q-15 -80 -72 -127.5t-149 -47.5q-44 0 -79.5 13.5t-59 38.5t-33 60.5t-0.5 80.5l81 417q1 13 17 13h69q13 0 12 -12l-85 -431q-7 -43 16.5 -68t65.5 -25q52 0 81 25t37 63l84 435q3 13 18 13h68q16 0 13 -12zM497 742q5 -5 6 -9t-5 -12q-21 -31 -48 -43.5
t-49 -12.5q-17 0 -30.5 5.5t-25.5 12t-24.5 12t-26.5 5.5q-8 0 -20 -7t-23 -18q-8 -9 -14.5 -8.5t-11.5 5.5l-17 17q-7 8 -7.5 14t5.5 14q19 23 44.5 37.5t51.5 14.5q16 0 30 -6t27.5 -13t26 -13t24.5 -6q11 0 21.5 9.5t19.5 20.5t20 2z" />
    <glyph glyph-name="utilde" unicode="&#x169;" horiz-adv-x="466" 
d="M373 13q-3 -13 -15 -13h-69q-12 0 -9 12l3 17q2 7 -3 8t-10 -4q-17 -17 -46 -28t-55 -11q-77 0 -110.5 46.5t-19.5 121.5l52 266q3 13 14 13h70q12 0 11 -12l-52 -265q-8 -38 8.5 -63t61.5 -25q19 0 36.5 7.5t31.5 20t23.5 29t12.5 35.5l51 260q1 13 15 13h69
q14 0 11 -12zM438 586q5 -5 6 -9t-5 -12q-21 -31 -48 -43.5t-49 -12.5q-17 0 -30.5 5.5t-25.5 12t-24.5 12t-26.5 5.5q-8 0 -20 -7t-23 -18q-8 -9 -14.5 -8.5t-11.5 5.5l-17 17q-7 8 -7.5 14t5.5 14q19 23 44.5 37.5t51.5 14.5q16 0 30 -6t27.5 -13t26 -13t24.5 -6
q11 0 21.5 9.5t19.5 20.5t20 2z" />
    <glyph glyph-name="Umacron" unicode="&#x16a;" horiz-adv-x="516" 
d="M446 169q-15 -80 -72 -127.5t-149 -47.5q-44 0 -79.5 13.5t-59 38.5t-33 60.5t-0.5 80.5l81 417q1 13 17 13h69q13 0 12 -12l-85 -431q-7 -43 16.5 -68t65.5 -25q52 0 81 25t37 63l84 435q3 13 18 13h68q16 0 13 -12zM464 692q-3 -15 -18 -15h-209q-16 0 -13 15l8 41
q3 15 18 15h209q16 0 13 -14z" />
    <glyph glyph-name="umacron" unicode="&#x16b;" horiz-adv-x="466" 
d="M373 13q-3 -13 -15 -13h-69q-12 0 -9 12l3 17q2 7 -3 8t-10 -4q-17 -17 -46 -28t-55 -11q-77 0 -110.5 46.5t-19.5 121.5l52 266q3 13 14 13h70q12 0 11 -12l-52 -265q-8 -38 8.5 -63t61.5 -25q19 0 36.5 7.5t31.5 20t23.5 29t12.5 35.5l51 260q1 13 15 13h69
q14 0 11 -12zM427 540q-2 -12 -14 -12h-242q-13 0 -11 12l10 51q3 12 15 12h242q13 0 10 -11z" />
    <glyph glyph-name="Ubreve" unicode="&#x16c;" horiz-adv-x="516" 
d="M446 169q-15 -80 -72 -127.5t-149 -47.5q-44 0 -79.5 13.5t-59 38.5t-33 60.5t-0.5 80.5l81 417q1 13 17 13h69q13 0 12 -12l-85 -431q-7 -43 16.5 -68t65.5 -25q52 0 81 25t37 63l84 435q3 13 18 13h68q16 0 13 -12zM345 725q27 0 43.5 16t28.5 42q3 7 6 9.5t11 2.5h34
q10 0 11.5 -5t-0.5 -12q-15 -61 -50 -93t-92 -32q-25 0 -45.5 10.5t-34.5 27.5t-21 40t-5 48q1 7 4 11.5t13 4.5h32q8 0 11 -3t4 -9q4 -26 16 -42t34 -16z" />
    <glyph glyph-name="ubreve" unicode="&#x16d;" horiz-adv-x="466" 
d="M373 13q-3 -13 -15 -13h-69q-12 0 -9 12l3 17q2 7 -3 8t-10 -4q-17 -17 -46 -28t-55 -11q-77 0 -110.5 46.5t-19.5 121.5l52 266q3 13 14 13h70q12 0 11 -12l-52 -265q-8 -38 8.5 -63t61.5 -25q19 0 36.5 7.5t31.5 20t23.5 29t12.5 35.5l51 260q1 13 15 13h69
q14 0 11 -12zM292 565q27 0 43.5 16t28.5 42q3 7 6 9.5t11 2.5h34q10 0 11.5 -5t-0.5 -12q-15 -61 -50 -93t-92 -32q-25 0 -45.5 10.5t-34.5 27.5t-21 40t-5 48q1 7 4 11.5t13 4.5h32q8 0 11 -3t4 -9q4 -26 16 -42t34 -16z" />
    <glyph glyph-name="Uring" unicode="&#x16e;" horiz-adv-x="516" 
d="M446 169q-15 -80 -72 -127.5t-149 -47.5q-44 0 -79.5 13.5t-59 38.5t-33 60.5t-0.5 80.5l81 417q1 13 17 13h69q13 0 12 -12l-85 -431q-7 -43 16.5 -68t65.5 -25q52 0 81 25t37 63l84 435q3 13 18 13h68q16 0 13 -12zM342 647q-38 0 -58.5 21t-20.5 51q0 20 8 39t22 33.5
t33 23.5t41 9q33 0 56.5 -20.5t23.5 -51.5q0 -45 -28.5 -75t-76.5 -30zM346 694q23 0 37 14.5t14 35.5q0 14 -9.5 23.5t-24.5 9.5q-23 0 -35.5 -15.5t-12.5 -35.5q0 -14 8.5 -23t22.5 -9z" />
    <glyph glyph-name="uring" unicode="&#x16f;" horiz-adv-x="466" 
d="M373 13q-3 -13 -15 -13h-69q-12 0 -9 12l3 17q2 7 -3 8t-10 -4q-17 -17 -46 -28t-55 -11q-77 0 -110.5 46.5t-19.5 121.5l52 266q3 13 14 13h70q12 0 11 -12l-52 -265q-8 -38 8.5 -63t61.5 -25q19 0 36.5 7.5t31.5 20t23.5 29t12.5 35.5l51 260q1 13 15 13h69
q14 0 11 -12zM277 474q-38 0 -58.5 21t-20.5 51q0 20 8 39t22 33.5t33 23.5t41 9q33 0 56.5 -20.5t23.5 -51.5q0 -45 -28.5 -75t-76.5 -30zM281 521q23 0 37 14.5t14 35.5q0 14 -9.5 23.5t-24.5 9.5q-23 0 -35.5 -15.5t-12.5 -35.5q0 -14 8.5 -23t22.5 -9z" />
    <glyph glyph-name="Uhungarumlaut" unicode="&#x170;" horiz-adv-x="516" 
d="M446 169q-15 -80 -72 -127.5t-149 -47.5q-44 0 -79.5 13.5t-59 38.5t-33 60.5t-0.5 80.5l81 417q1 13 17 13h69q13 0 12 -12l-85 -431q-7 -43 16.5 -68t65.5 -25q52 0 81 25t37 63l84 435q3 13 18 13h68q16 0 13 -12zM425 757q7 -8 2 -14.5t-10 -8.5l-155 -82
q-5 -3 -12 -2.5t-11 6.5l-15 19q-8 10 5 20l130 102q21 16 37 -4zM588 757q7 -8 2 -14.5t-10 -8.5l-155 -82q-5 -3 -12 -2.5t-11 6.5l-15 19q-8 10 5 20l130 102q21 16 37 -4z" />
    <glyph glyph-name="uhungarumlaut" unicode="&#x171;" horiz-adv-x="466" 
d="M373 13q-3 -13 -15 -13h-69q-12 0 -9 12l3 17q2 7 -3 8t-10 -4q-17 -17 -46 -28t-55 -11q-77 0 -110.5 46.5t-19.5 121.5l52 266q3 13 14 13h70q12 0 11 -12l-52 -265q-8 -38 8.5 -63t61.5 -25q19 0 36.5 7.5t31.5 20t23.5 29t12.5 35.5l51 260q1 13 15 13h69
q14 0 11 -12zM484 633q8 -6 5.5 -12.5t-6.5 -10.5l-130 -120q-3 -3 -8.5 -4.5t-13.5 3.5l-21 13q-12 7 -3 19l105 139q5 6 12 8t12 -2zM347 633q8 -6 5.5 -12.5t-6.5 -10.5l-130 -120q-3 -3 -8.5 -4.5t-13.5 3.5l-21 13q-12 7 -3 19l105 139q5 6 12 8t12 -2z" />
    <glyph glyph-name="Wcircumflex" unicode="&#x174;" horiz-adv-x="695" 
d="M510 13q-7 -13 -19 -13h-77q-6 0 -10.5 3t-4.5 9l-6 291l-2 132q0 1 -3 0q-4 -11 -11 -29t-15 -37.5t-15.5 -38t-11.5 -29.5l-116 -290q-6 -11 -19 -11h-76q-15 0 -16 10l-22 589q0 6 3.5 12t14.5 6h67q13 0 13 -14l4 -294l-1 -147q2 -3 5 0q13 36 27.5 72.5t27.5 71.5
l122 301q2 4 5 7t13 3h67q6 0 10.5 -3t4.5 -9l8 -301l1 -142q0 -3 1.5 -2.5t3.5 2.5l54 146l118 297q4 12 18 12h72q14 0 15 -7t-2 -13zM572 686q3 -5 3 -9.5t-8 -8.5l-24 -11q-8 -4 -12.5 -3.5t-8.5 4.5l-67 62q-6 5 -14 0l-115 -62q-7 -4 -11 -4.5t-11 3.5l-22 11
q-7 4 -4 8.5t8 9.5l121 102q10 9 23 9h50q13 0 19 -9z" />
    <glyph glyph-name="wcircumflex" unicode="&#x175;" horiz-adv-x="630" 
d="M521 313q9 19 14 33.5t7 26t2.5 22t0.5 21.5q0 7 3 15.5t17 8.5h54q15 0 18.5 -6t3.5 -17q0 -18 -1 -33t-4.5 -29.5t-9 -29t-14.5 -31.5l-142 -282q-7 -13 -23 -13h-67q-11 0 -14.5 2.5t-5.5 11.5l-31 171q-2 6 -5.5 6t-5.5 -5l-85 -173q-8 -13 -24 -13h-66
q-11 0 -14.5 2.5t-5.5 11.5l-72 410q-1 8 2.5 13t12.5 5h68q10 0 12.5 -4.5t3.5 -10.5l43 -300q1 -5 4 -5t5 4l94 192q4 7 4.5 9.5t-1.5 10.5l-14 86q-1 8 2.5 13t12.5 5h69q10 0 12.5 -4.5t3.5 -10.5l42 -293q1 -5 4 -5t5 4zM498 538q3 -5 3 -10.5t-8 -10.5l-26 -14
q-14 -8 -21 2l-68 85q-6 7 -14 1l-116 -87q-7 -5 -11 -5.5t-11 4.5l-20 14q-7 5 -4 10.5t8 10.5l122 124q5 5 10 8t13 3h50q13 0 19 -11z" />
    <glyph glyph-name="Ycircumflex" unicode="&#x176;" horiz-adv-x="439" 
d="M280 245q-6 -10 -8.5 -16.5t-4.5 -14.5l-39 -201q-3 -13 -17 -13h-68q-14 0 -13 13l40 205q1 5 1.5 12.5t-1.5 15.5l-86 352q-5 19 15 19h63q10 0 15.5 -2.5t7.5 -11.5l49 -259q2 -5 4.5 -4.5t4.5 4.5l148 257q6 9 10.5 12.5t17.5 3.5h74q14 0 14 -8q0 -3 -4 -11z
M440 685q3 -5 3 -9.5t-8 -8.5l-24 -11q-8 -4 -12.5 -3.5t-8.5 4.5l-67 62q-6 5 -14 0l-115 -62q-7 -4 -11 -4.5t-11 3.5l-22 11q-7 4 -4 8.5t8 9.5l121 102q10 9 23 9h50q13 0 19 -9z" />
    <glyph glyph-name="ycircumflex" unicode="&#x177;" horiz-adv-x="412" 
d="M58 -183q-11 0 -15 6t4 20l83 155h-13q-10 0 -13.5 2.5t-5.5 11.5l-48 411q-1 8 2.5 13t12.5 5h61q10 0 15 -4.5t6 -10.5l25 -335q0 -8 8 0l115 224q9 19 14.5 33t7.5 25.5t2.5 22t0.5 21.5q0 7 3 15.5t17 8.5h51q15 0 18.5 -6t3.5 -17q0 -36 -6 -62t-24 -60
q-38 -72 -64 -122t-45 -86.5t-33.5 -64.5t-28.5 -54.5t-30 -57.5t-38 -73q-4 -7 -12 -14t-22 -7h-52zM393 526q3 -5 3 -10.5t-8 -10.5l-26 -14q-14 -8 -21 2l-68 85q-6 7 -14 1l-116 -87q-7 -5 -11 -5.5t-11 4.5l-20 14q-7 5 -4 10.5t8 10.5l122 124q5 5 10 8t13 3h50
q13 0 19 -11z" />
    <glyph glyph-name="Zacute" unicode="&#x179;" horiz-adv-x="418" 
d="M355 15q-2 -8 -5.5 -11.5t-11.5 -3.5h-329q-14 0 -17.5 6.5t-1.5 14.5l5 24q2 8 6.5 19t9.5 19l314 437q7 11 -6 11h-202q-14 0 -11 15l11 57q3 14 16 14h308q15 0 19 -5.5t2 -16.5l-6 -31q-2 -11 -9 -22.5t-13 -19.5l-304 -423q-9 -12 4 -12h221q14 0 11 -15zM443 744
q6 -8 0.5 -14t-10.5 -8l-162 -67q-5 -2 -12 -1t-10 7l-14 21q-7 11 7 19l139 89q23 15 37 -7z" />
    <glyph glyph-name="zacute" unicode="&#x17a;" horiz-adv-x="415" 
d="M401 388q-2 -8 -6 -16.5t-9 -14.5l-233 -261q-6 -7 -4.5 -11t9.5 -4h186q13 0 10 -12l-11 -56q-1 -13 -14 -13h-313q-12 0 -16 5.5t-2 13.5l5 28q2 7 5 15t10 15l241 269q5 5 4 9.5t-9 4.5h-167q-14 0 -11 12l11 56q3 13 15 13h285q25 0 20 -20zM389 633q8 -6 5.5 -12.5
t-6.5 -10.5l-130 -120q-3 -3 -8.5 -4.5t-13.5 3.5l-21 13q-12 7 -3 19l105 139q5 6 12 8t12 -2z" />
    <glyph glyph-name="Zdotaccent" unicode="&#x17b;" horiz-adv-x="418" 
d="M355 15q-2 -8 -5.5 -11.5t-11.5 -3.5h-329q-14 0 -17.5 6.5t-1.5 14.5l5 24q2 8 6.5 19t9.5 19l314 437q7 11 -6 11h-202q-14 0 -11 15l11 57q3 14 16 14h308q15 0 19 -5.5t2 -16.5l-6 -31q-2 -11 -9 -22.5t-13 -19.5l-304 -423q-9 -12 4 -12h221q14 0 11 -15zM370 718
q-5 -23 -23 -38t-41 -15t-35.5 15t-8.5 38q5 22 23 37.5t41 15.5t35.5 -15.5t8.5 -37.5z" />
    <glyph glyph-name="zdotaccent" unicode="&#x17c;" horiz-adv-x="415" 
d="M401 388q-2 -8 -6 -16.5t-9 -14.5l-233 -261q-6 -7 -4.5 -11t9.5 -4h186q13 0 10 -12l-11 -56q-1 -13 -14 -13h-313q-12 0 -16 5.5t-2 13.5l5 28q2 7 5 15t10 15l241 269q5 5 4 9.5t-9 4.5h-167q-14 0 -11 12l11 56q3 13 15 13h285q25 0 20 -20zM325 556q-5 -23 -23 -38
t-41 -15t-35.5 15t-8.5 38q5 22 23 37.5t41 15.5t35.5 -15.5t8.5 -37.5z" />
    <glyph glyph-name="AEacute" unicode="&#x1fc;" horiz-adv-x="716" 
d="M691 15q-3 -15 -14 -15h-347q-15 0 -15 14l17 117v9t-10 4h-168q-10 0 -13 -8l-62 -124q-5 -12 -19 -12h-67q-12 0 -12 11q0 5 3 11q73 141 148.5 289t148.5 290q2 5 7.5 10.5t16.5 5.5h427q6 0 10 -4t3 -11l-8 -56q0 -15 -15 -15h-222q-13 0 -15 -11l-19 -151
q-5 -10 9 -10h192q9 0 11 -4t1 -11l-9 -58q0 -14 -14 -14h-193q-11 0 -14 -12l-23 -161q-1 -13 11 -13h250q15 0 13 -14zM342 531q-5 0 -8.5 -3t-5.5 -6l-137 -285q-2 -3 -2 -5.5t5 -2.5h138q14 0 15 13l41 280q0 4 -0.5 6.5t-6.5 2.5h-39zM661 754q6 -8 0.5 -14t-10.5 -8
l-162 -67q-5 -2 -12 -1t-10 7l-14 21q-7 11 7 19l139 89q23 15 37 -7z" />
    <glyph glyph-name="aeacute" unicode="&#x1fd;" horiz-adv-x="713" 
d="M688 334q0 -53 -24.5 -85t-63 -48t-86.5 -18t-94 4q-10 2 -11 -1.5t-3 -5.5q-1 -2 -1.5 -8t-1 -12.5t-0.5 -12.5v-9q0 -11 3 -22t11 -20t22.5 -14.5t38.5 -5.5q25 0 53 16t45 33q8 8 13 8t11 -5l36 -35q7 -7 9 -11.5t-6 -13.5q-67 -75 -169 -75q-50 0 -83 16t-51 39
q-6 6 -11 1q-25 -24 -61.5 -39t-77.5 -15q-63 0 -102.5 35.5t-39.5 102.5q0 73 45.5 119.5t135.5 46.5q30 0 54.5 -6t39.5 -11q10 -3 12 6q10 39 -12 59t-63 20q-9 0 -20.5 -2t-24.5 -5t-25 -7.5t-22 -8.5q-22 -10 -27 9l-14 49q-2 17 12 22q30 13 66 20t72 7t68 -11.5
t54 -31.5q3 -3 6 -2.5t5 2.5q29 23 63.5 31.5t76.5 8.5q27 0 53 -7.5t45.5 -22t31.5 -36t12 -48.5zM220 223q-39 0 -62.5 -22.5t-23.5 -60.5q0 -25 17 -44.5t47 -19.5q49 0 80 30.5t36 78.5q1 10 -4 13q-6 5 -16.5 9.5t-23 8t-26 5.5t-24.5 2zM601 321q0 18 -16 32.5
t-41 14.5q-50 0 -78 -24t-36 -56l-3 -14q-3 -12 10 -15q31 -6 60.5 -5t52.5 9t37 22.5t14 35.5zM555 648q8 -6 5.5 -12.5t-6.5 -10.5l-130 -120q-3 -3 -8.5 -4.5t-13.5 3.5l-21 13q-12 7 -3 19l105 139q5 6 12 8t12 -2z" />
    <glyph glyph-name="Oslashacute" unicode="&#x1fe;" horiz-adv-x="498" 
d="M494 755q6 -8 0.5 -14t-10.5 -8l-162 -67q-5 -2 -12 -1t-10 7l-14 21q-7 11 7 19l139 89q23 15 37 -7zM444 173q-8 -40 -24 -73t-42 -56.5t-63.5 -36.5t-88.5 -13q-35 0 -64 8.5t-52 23.5q-6 5 -10.5 5.5t-10.5 -7.5l-18 -24q-8 -12 -17 -4l-23 18q-5 3 -5 6.5t6 11.5
l23 30q11 14 5 24q-20 44 -8 101l51 262q16 83 70.5 130t144.5 47q62 0 109 -28q7 -5 11 -5t10 8l15 21q5 7 8.5 9.5t11.5 -2.5l22 -17q9 -5 4 -14l-24 -33q-8 -11 -5.5 -16l4.5 -9q11 -21 14 -46.5t-3 -54.5zM393 422q2 6 0.5 10t-8.5 -5l-220 -300q-5 -7 -6.5 -10.5
t2.5 -8.5q11 -14 29 -20.5t40 -6.5q51 0 79 24.5t36 66.5zM154 212q-2 -8 1 -8.5t6 3.5l212 292q8 11 5.5 16t-5.5 7q-22 17 -60 17q-47 0 -76 -26.5t-37 -64.5z" />
    </font>
</defs>
</svg>
